<svg width="120" height="142" viewBox="0 0 120 142" fill="none" xmlns="http://www.w3.org/2000/svg">
<g filter="url(#filter0_d_816_648)">
<mask id="path-1-outside-1_816_648" maskUnits="userSpaceOnUse" x="26" y="26" width="68" height="90" fill="black">
<rect fill="white" x="26" y="26" width="68" height="90"/>
<path d="M60.08 45.36C53.6 45.36 49.16 48.96 42.92 56.64L29.96 46.2C38.24 34.92 46.28 28.8 61.28 28.8C79.16 28.8 90.2 39.12 90.2 54.84C90.2 68.88 83 75.96 68.12 87.48L54.44 98.04H91.04V114H28.88V99.36L56.84 76.44C67.28 67.8 71.36 63.24 71.36 56.28C71.36 49.2 66.68 45.36 60.08 45.36Z"/>
</mask>
<path d="M60.08 45.36C53.6 45.36 49.16 48.96 42.92 56.64L29.96 46.2C38.24 34.92 46.28 28.8 61.28 28.8C79.16 28.8 90.2 39.12 90.2 54.84C90.2 68.88 83 75.96 68.12 87.48L54.44 98.04H91.04V114H28.88V99.36L56.84 76.44C67.28 67.8 71.36 63.24 71.36 56.28C71.36 49.2 66.68 45.36 60.08 45.36Z" fill="#22003D"/>
<path d="M42.92 56.64L41.6653 58.1975L43.2163 59.4469L44.4722 57.9012L42.92 56.64ZM29.96 46.2L28.3477 45.0165L27.2163 46.558L28.7053 47.7575L29.96 46.2ZM68.12 87.48L69.3421 89.0632L69.3443 89.0614L68.12 87.48ZM54.44 98.04L53.2179 96.4568L48.5761 100.04H54.44V98.04ZM91.04 98.04H93.04V96.04H91.04V98.04ZM91.04 114V116H93.04V114H91.04ZM28.88 114H26.88V116H28.88V114ZM28.88 99.36L27.6121 97.8133L26.88 98.4134V99.36H28.88ZM56.84 76.44L58.1079 77.9867L58.1151 77.9808L56.84 76.44ZM60.08 43.36C52.6084 43.36 47.6434 47.655 41.3678 55.3788L44.4722 57.9012C50.6766 50.265 54.5916 47.36 60.08 47.36V43.36ZM44.1747 55.0825L31.2147 44.6425L28.7053 47.7575L41.6653 58.1975L44.1747 55.0825ZM31.5723 47.3835C35.6428 41.8381 39.5356 37.7298 44.1259 34.9868C48.6818 32.2644 54.0728 30.8 61.28 30.8V26.8C53.4872 26.8 47.3582 28.3956 42.0741 31.5532C36.8244 34.6902 32.5572 39.2819 28.3477 45.0165L31.5723 47.3835ZM61.28 30.8C69.8418 30.8 76.552 33.2669 81.099 37.4043C85.6269 41.5242 88.2 47.4709 88.2 54.84H92.2C92.2 46.489 89.2531 39.4158 83.791 34.4457C78.348 29.4931 70.5982 26.8 61.28 26.8V30.8ZM88.2 54.84C88.2 61.4501 86.5267 66.3107 83.1301 70.9183C79.6567 75.6302 74.3505 80.127 66.8957 85.8986L69.3443 89.0614C76.7695 83.313 82.5034 78.5098 86.3499 73.2917C90.2733 67.9693 92.2 62.2699 92.2 54.84H88.2ZM66.8979 85.8968L53.2179 96.4568L55.6621 99.6232L69.3421 89.0632L66.8979 85.8968ZM54.44 100.04H91.04V96.04H54.44V100.04ZM89.04 98.04V114H93.04V98.04H89.04ZM91.04 112H28.88V116H91.04V112ZM30.88 114V99.36H26.88V114H30.88ZM30.1479 100.907L58.1079 77.9867L55.5721 74.8933L27.6121 97.8133L30.1479 100.907ZM58.1151 77.9808C68.45 69.4278 73.36 64.3052 73.36 56.28H69.36C69.36 62.1748 66.11 66.1722 55.5649 74.8992L58.1151 77.9808ZM73.36 56.28C73.36 52.2788 72.023 48.981 69.5529 46.6967C67.1056 44.4333 63.7581 43.36 60.08 43.36V47.36C63.0019 47.36 65.2944 48.2067 66.8371 49.6333C68.357 51.039 69.36 53.2012 69.36 56.28H73.36Z" fill="#9C4FFF" mask="url(#path-1-outside-1_816_648)"/>
</g>
<defs>
<filter id="filter0_d_816_648" x="0.880859" y="0.800049" width="118.158" height="141.2" filterUnits="userSpaceOnUse" color-interpolation-filters="sRGB">
<feFlood flood-opacity="0" result="BackgroundImageFix"/>
<feColorMatrix in="SourceAlpha" type="matrix" values="0 0 0 0 0 0 0 0 0 0 0 0 0 0 0 0 0 0 127 0" result="hardAlpha"/>
<feOffset/>
<feGaussianBlur stdDeviation="14"/>
<feComposite in2="hardAlpha" operator="out"/>
<feColorMatrix type="matrix" values="0 0 0 0 0.359417 0 0 0 0 0.0197917 0 0 0 0 0.791667 0 0 0 1 0"/>
<feBlend mode="normal" in2="BackgroundImageFix" result="effect1_dropShadow_816_648"/>
<feBlend mode="normal" in="SourceGraphic" in2="effect1_dropShadow_816_648" result="shape"/>
</filter>
</defs>
</svg>
