<svg width="120" height="142" viewBox="0 0 120 142" fill="none" xmlns="http://www.w3.org/2000/svg">
<g filter="url(#filter0_d_816_651)">
<mask id="path-1-outside-1_816_651" maskUnits="userSpaceOnUse" x="25" y="26" width="69" height="90" fill="black">
<rect fill="white" x="25" y="26" width="69" height="90"/>
<path d="M66.48 43.84H33.48V28H90.24V41.92L69 62.2C80.52 64.12 91.56 70.12 91.56 85.84C91.56 101.8 80.04 113.44 61.32 113.44C46.2 113.44 35.76 107.44 28.56 98.92L41.28 86.8C47.04 93.28 53.04 96.88 61.56 96.88C68.52 96.88 73.44 92.92 73.44 86.56C73.44 79.6 67.56 75.76 57 75.76H49.32L46.44 64L66.48 43.84Z"/>
</mask>
<path d="M66.48 43.84H33.48V28H90.24V41.92L69 62.2C80.52 64.12 91.56 70.12 91.56 85.84C91.56 101.8 80.04 113.44 61.32 113.44C46.2 113.44 35.76 107.44 28.56 98.92L41.28 86.8C47.04 93.28 53.04 96.88 61.56 96.88C68.52 96.88 73.44 92.92 73.44 86.56C73.44 79.6 67.56 75.76 57 75.76H49.32L46.44 64L66.48 43.84Z" fill="#22003D"/>
<path d="M66.48 43.84L67.8984 45.25L71.2881 41.84H66.48V43.84ZM33.48 43.84H31.48V45.84H33.48V43.84ZM33.48 28V26H31.48V28H33.48ZM90.24 28H92.24V26H90.24V28ZM90.24 41.92L91.6212 43.3665L92.24 42.7756V41.92H90.24ZM69 62.2L67.6189 60.7535L64.7263 63.5153L68.6712 64.1728L69 62.2ZM28.56 98.92L27.1803 97.472L25.8163 98.7718L27.0324 100.211L28.56 98.92ZM41.28 86.8L42.7748 85.4713L41.3993 83.9238L39.9003 85.3521L41.28 86.8ZM49.32 75.76L47.3774 76.2357L47.7507 77.76H49.32V75.76ZM46.44 64L45.0216 62.59L44.2305 63.3858L44.4974 64.4757L46.44 64ZM66.48 41.84H33.48V45.84H66.48V41.84ZM35.48 43.84V28H31.48V43.84H35.48ZM33.48 30H90.24V26H33.48V30ZM88.24 28V41.92H92.24V28H88.24ZM88.8589 40.4735L67.6189 60.7535L70.3811 63.6465L91.6212 43.3665L88.8589 40.4735ZM68.6712 64.1728C74.2376 65.1005 79.4664 66.9834 83.2769 70.3448C87.0143 73.6417 89.56 78.5094 89.56 85.84H93.56C93.56 77.4506 90.5857 71.4583 85.9231 67.3452C81.3336 63.2966 75.2824 61.2195 69.3288 60.2272L68.6712 64.1728ZM89.56 85.84C89.56 93.3211 86.8711 99.6754 82.0905 104.167C77.3028 108.666 70.2623 111.44 61.32 111.44V115.44C71.0977 115.44 79.1772 112.394 84.8296 107.083C90.489 101.765 93.56 94.3189 93.56 85.84H89.56ZM61.32 111.44C46.8146 111.44 36.9246 105.719 30.0876 97.6291L27.0324 100.211C34.5954 109.161 45.5855 115.44 61.32 115.44V111.44ZM29.9397 100.368L42.6597 88.2479L39.9003 85.3521L27.1803 97.472L29.9397 100.368ZM39.7852 88.1287C45.8051 94.9012 52.3105 98.88 61.56 98.88V94.88C53.7695 94.88 48.2749 91.6588 42.7748 85.4713L39.7852 88.1287ZM61.56 98.88C65.4062 98.88 68.8689 97.7848 71.4053 95.6289C73.9745 93.4451 75.44 90.2971 75.44 86.56H71.44C71.44 89.1829 70.4455 91.1949 68.8147 92.5811C67.1511 93.9952 64.6738 94.88 61.56 94.88V98.88ZM75.44 86.56C75.44 82.4178 73.6403 79.0837 70.2769 76.8776C67.0281 74.7467 62.4727 73.76 57 73.76V77.76C62.0873 77.76 65.7519 78.6933 68.0831 80.2224C70.2997 81.6763 71.44 83.7422 71.44 86.56H75.44ZM57 73.76H49.32V77.76H57V73.76ZM51.2626 75.2843L48.3826 63.5243L44.4974 64.4757L47.3774 76.2357L51.2626 75.2843ZM47.8584 65.41L67.8984 45.25L65.0616 42.43L45.0216 62.59L47.8584 65.41Z" fill="#9C4FFF" mask="url(#path-1-outside-1_816_651)"/>
</g>
<defs>
<filter id="filter0_d_816_651" x="0.560547" y="0" width="119" height="141.44" filterUnits="userSpaceOnUse" color-interpolation-filters="sRGB">
<feFlood flood-opacity="0" result="BackgroundImageFix"/>
<feColorMatrix in="SourceAlpha" type="matrix" values="0 0 0 0 0 0 0 0 0 0 0 0 0 0 0 0 0 0 127 0" result="hardAlpha"/>
<feOffset/>
<feGaussianBlur stdDeviation="14"/>
<feComposite in2="hardAlpha" operator="out"/>
<feColorMatrix type="matrix" values="0 0 0 0 0.359417 0 0 0 0 0.0197917 0 0 0 0 0.791667 0 0 0 1 0"/>
<feBlend mode="normal" in2="BackgroundImageFix" result="effect1_dropShadow_816_651"/>
<feBlend mode="normal" in="SourceGraphic" in2="effect1_dropShadow_816_651" result="shape"/>
</filter>
</defs>
</svg>
