<svg width="220" height="44" viewBox="0 0 220 44" fill="none" xmlns="http://www.w3.org/2000/svg">
<mask id="path-1-outside-1_702_227" maskUnits="userSpaceOnUse" x="-2" y="-2" width="224" height="48" fill="black">
<rect fill="white" x="-2" y="-2" width="224" height="48"/>
<path d="M40.6414 37.06C36.3214 40.72 30.3814 43.72 22.7014 43.72C9.62141 43.72 0.621406 34.54 0.621406 22.12V22C0.621406 10.06 9.92141 0.279999 22.6414 0.279999C30.2014 0.279999 34.7614 2.32 39.1414 6.04L33.3214 13.06C30.0814 10.36 27.2014 8.8 22.3414 8.8C15.6214 8.8 10.2814 14.74 10.2814 21.88V22C10.2814 29.68 15.5614 35.32 23.0014 35.32C26.3614 35.32 29.3614 34.48 31.7014 32.8V26.8H22.4014V18.82H40.6414V37.06ZM90.4522 43H80.7922L76.9522 33.58H59.1922L55.3522 43H45.9322L63.9322 0.699997H72.4522L90.4522 43ZM73.6522 25.42L68.0722 11.8L62.4922 25.42H73.6522ZM138.935 43H129.755V15.58L117.935 33.52H117.695L105.995 15.76V43H96.9345V0.999997H106.895L117.935 18.76L128.975 0.999997H138.935V43ZM181.004 43H149.024V0.999997H180.704V9.22H158.204V17.74H178.004V25.96H158.204V34.78H181.004V43ZM219.58 30.58C219.58 38.92 213.22 43.6 204.16 43.6C197.8 43.6 191.38 41.38 186.34 36.88L191.8 30.34C195.58 33.46 199.54 35.44 204.34 35.44C208.12 35.44 210.4 33.94 210.4 31.48V31.36C210.4 29.02 208.96 27.82 201.94 26.02C193.48 23.86 188.02 21.52 188.02 13.18V13.06C188.02 5.44 194.14 0.399998 202.72 0.399998C208.84 0.399998 214.06 2.32 218.32 5.74L213.52 12.7C209.8 10.12 206.14 8.56 202.6 8.56C199.06 8.56 197.2 10.18 197.2 12.22V12.34C197.2 15.1 199 16 206.26 17.86C214.78 20.08 219.58 23.14 219.58 30.46V30.58Z"/>
</mask>
<path d="M40.6414 37.06C36.3214 40.72 30.3814 43.72 22.7014 43.72C9.62141 43.72 0.621406 34.54 0.621406 22.12V22C0.621406 10.06 9.92141 0.279999 22.6414 0.279999C30.2014 0.279999 34.7614 2.32 39.1414 6.04L33.3214 13.06C30.0814 10.36 27.2014 8.8 22.3414 8.8C15.6214 8.8 10.2814 14.74 10.2814 21.88V22C10.2814 29.68 15.5614 35.32 23.0014 35.32C26.3614 35.32 29.3614 34.48 31.7014 32.8V26.8H22.4014V18.82H40.6414V37.06ZM90.4522 43H80.7922L76.9522 33.58H59.1922L55.3522 43H45.9322L63.9322 0.699997H72.4522L90.4522 43ZM73.6522 25.42L68.0722 11.8L62.4922 25.42H73.6522ZM138.935 43H129.755V15.58L117.935 33.52H117.695L105.995 15.76V43H96.9345V0.999997H106.895L117.935 18.76L128.975 0.999997H138.935V43ZM181.004 43H149.024V0.999997H180.704V9.22H158.204V17.74H178.004V25.96H158.204V34.78H181.004V43ZM219.58 30.58C219.58 38.92 213.22 43.6 204.16 43.6C197.8 43.6 191.38 41.38 186.34 36.88L191.8 30.34C195.58 33.46 199.54 35.44 204.34 35.44C208.12 35.44 210.4 33.94 210.4 31.48V31.36C210.4 29.02 208.96 27.82 201.94 26.02C193.48 23.86 188.02 21.52 188.02 13.18V13.06C188.02 5.44 194.14 0.399998 202.72 0.399998C208.84 0.399998 214.06 2.32 218.32 5.74L213.52 12.7C209.8 10.12 206.14 8.56 202.6 8.56C199.06 8.56 197.2 10.18 197.2 12.22V12.34C197.2 15.1 199 16 206.26 17.86C214.78 20.08 219.58 23.14 219.58 30.46V30.58Z" fill="#053431"/>
<path d="M40.6414 37.06L41.9342 38.586L42.6414 37.9868V37.06H40.6414ZM39.1414 6.04L40.6811 7.31648L41.9425 5.795L40.4361 4.5156L39.1414 6.04ZM33.3214 13.06L32.041 14.5964L33.5814 15.8801L34.8611 14.3365L33.3214 13.06ZM31.7014 32.8L32.8678 34.4246L33.7014 33.8262V32.8H31.7014ZM31.7014 26.8H33.7014V24.8H31.7014V26.8ZM22.4014 26.8H20.4014V28.8H22.4014V26.8ZM22.4014 18.82V16.82H20.4014V18.82H22.4014ZM40.6414 18.82H42.6414V16.82H40.6414V18.82ZM39.3486 35.534C35.3152 38.9512 29.8186 41.72 22.7014 41.72V45.72C30.9443 45.72 37.3276 42.4888 41.9342 38.586L39.3486 35.534ZM22.7014 41.72C10.7076 41.72 2.62141 33.4172 2.62141 22.12H-1.37859C-1.37859 35.6628 8.53517 45.72 22.7014 45.72V41.72ZM2.62141 22.12V22H-1.37859V22.12H2.62141ZM2.62141 22C2.62141 11.1537 11.0368 2.28 22.6414 2.28V-1.72C8.80605 -1.72 -1.37859 8.96625 -1.37859 22H2.62141ZM22.6414 2.28C29.7196 2.28 33.8225 4.14653 37.8467 7.56439L40.4361 4.5156C35.7004 0.493469 30.6832 -1.72 22.6414 -1.72V2.28ZM37.6017 4.76352L31.7817 11.7835L34.8611 14.3365L40.6811 7.31648L37.6017 4.76352ZM34.6018 11.5236C32.9091 10.113 31.2047 8.90971 29.2132 8.07348C27.2034 7.22952 25.0001 6.8 22.3414 6.8V10.8C24.5428 10.8 26.2094 11.1505 27.6646 11.7615C29.1381 12.3803 30.4938 13.307 32.041 14.5964L34.6018 11.5236ZM22.3414 6.8C14.353 6.8 8.28141 13.8067 8.28141 21.88H12.2814C12.2814 15.6733 16.8898 10.8 22.3414 10.8V6.8ZM8.28141 21.88V22H12.2814V21.88H8.28141ZM8.28141 22C8.28141 30.6854 14.3602 37.32 23.0014 37.32V33.32C16.7626 33.32 12.2814 28.6746 12.2814 22H8.28141ZM23.0014 37.32C26.6868 37.32 30.1193 36.3979 32.8678 34.4246L30.535 31.1754C28.6035 32.5621 26.036 33.32 23.0014 33.32V37.32ZM33.7014 32.8V26.8H29.7014V32.8H33.7014ZM31.7014 24.8H22.4014V28.8H31.7014V24.8ZM24.4014 26.8V18.82H20.4014V26.8H24.4014ZM22.4014 20.82H40.6414V16.82H22.4014V20.82ZM38.6414 18.82V37.06H42.6414V18.82H38.6414ZM90.4522 43V45H93.4768L92.2925 42.2169L90.4522 43ZM80.7922 43L78.9402 43.755L79.4477 45H80.7922V43ZM76.9522 33.58L78.8042 32.825L78.2967 31.58H76.9522V33.58ZM59.1922 33.58V31.58H57.8477L57.3402 32.825L59.1922 33.58ZM55.3522 43V45H56.6967L57.2042 43.755L55.3522 43ZM45.9322 43L44.0919 42.2169L42.9076 45H45.9322V43ZM63.9322 0.699997V-1.3H62.6097L62.0919 -0.0831127L63.9322 0.699997ZM72.4522 0.699997L74.2925 -0.0831127L73.7747 -1.3H72.4522V0.699997ZM73.6522 25.42V27.42H76.6329L75.5029 24.6618L73.6522 25.42ZM68.0722 11.8L69.9229 11.0418L68.0722 6.52447L66.2215 11.0418L68.0722 11.8ZM62.4922 25.42L60.6415 24.6618L59.5115 27.42H62.4922V25.42ZM90.4522 41H80.7922V45H90.4522V41ZM82.6442 42.245L78.8042 32.825L75.1002 34.335L78.9402 43.755L82.6442 42.245ZM76.9522 31.58H59.1922V35.58H76.9522V31.58ZM57.3402 32.825L53.5002 42.245L57.2042 43.755L61.0442 34.335L57.3402 32.825ZM55.3522 41H45.9322V45H55.3522V41ZM47.7725 43.7831L65.7725 1.48311L62.0919 -0.0831127L44.0919 42.2169L47.7725 43.7831ZM63.9322 2.7H72.4522V-1.3H63.9322V2.7ZM70.6119 1.48311L88.6119 43.7831L92.2925 42.2169L74.2925 -0.0831127L70.6119 1.48311ZM75.5029 24.6618L69.9229 11.0418L66.2215 12.5582L71.8015 26.1782L75.5029 24.6618ZM66.2215 11.0418L60.6415 24.6618L64.3429 26.1782L69.9229 12.5582L66.2215 11.0418ZM62.4922 27.42H73.6522V23.42H62.4922V27.42ZM138.935 43V45H140.935V43H138.935ZM129.755 43H127.755V45H129.755V43ZM129.755 15.58H131.755V8.9093L128.084 14.4796L129.755 15.58ZM117.935 33.52V35.52H119.012L119.605 34.6204L117.935 33.52ZM117.695 33.52L116.024 34.6203L116.617 35.52H117.695V33.52ZM105.995 15.76L107.665 14.6597L103.995 9.08863V15.76H105.995ZM105.995 43V45H107.995V43H105.995ZM96.9345 43H94.9345V45H96.9345V43ZM96.9345 0.999996V-1H94.9345V0.999996H96.9345ZM106.895 0.999996L108.593 -0.055872L108.006 -1H106.895V0.999996ZM117.935 18.76L116.236 19.8159L117.935 22.5484L119.633 19.8159L117.935 18.76ZM128.975 0.999996V-1H127.863L127.276 -0.055872L128.975 0.999996ZM138.935 0.999996H140.935V-1H138.935V0.999996ZM138.935 41H129.755V45H138.935V41ZM131.755 43V15.58H127.755V43H131.755ZM128.084 14.4796L116.264 32.4196L119.605 34.6204L131.425 16.6804L128.084 14.4796ZM117.935 31.52H117.695V35.52H117.935V31.52ZM119.365 32.4197L107.665 14.6597L104.324 16.8603L116.024 34.6203L119.365 32.4197ZM103.995 15.76V43H107.995V15.76H103.995ZM105.995 41H96.9345V45H105.995V41ZM98.9345 43V0.999996H94.9345V43H98.9345ZM96.9345 3H106.895V-1H96.9345V3ZM105.196 2.05587L116.236 19.8159L119.633 17.7041L108.593 -0.055872L105.196 2.05587ZM119.633 19.8159L130.673 2.05587L127.276 -0.055872L116.236 17.7041L119.633 19.8159ZM128.975 3H138.935V-1H128.975V3ZM136.935 0.999996V43H140.935V0.999996H136.935ZM181.004 43V45H183.004V43H181.004ZM149.024 43H147.024V45H149.024V43ZM149.024 0.999996V-1H147.024V0.999996H149.024ZM180.704 0.999996H182.704V-1H180.704V0.999996ZM180.704 9.22V11.22H182.704V9.22H180.704ZM158.204 9.22V7.22H156.204V9.22H158.204ZM158.204 17.74H156.204V19.74H158.204V17.74ZM178.004 17.74H180.004V15.74H178.004V17.74ZM178.004 25.96V27.96H180.004V25.96H178.004ZM158.204 25.96V23.96H156.204V25.96H158.204ZM158.204 34.78H156.204V36.78H158.204V34.78ZM181.004 34.78H183.004V32.78H181.004V34.78ZM181.004 41H149.024V45H181.004V41ZM151.024 43V0.999996H147.024V43H151.024ZM149.024 3H180.704V-1H149.024V3ZM178.704 0.999996V9.22H182.704V0.999996H178.704ZM180.704 7.22H158.204V11.22H180.704V7.22ZM156.204 9.22V17.74H160.204V9.22H156.204ZM158.204 19.74H178.004V15.74H158.204V19.74ZM176.004 17.74V25.96H180.004V17.74H176.004ZM178.004 23.96H158.204V27.96H178.004V23.96ZM156.204 25.96V34.78H160.204V25.96H156.204ZM158.204 36.78H181.004V32.78H158.204V36.78ZM179.004 34.78V43H183.004V34.78H179.004ZM186.34 36.88L184.804 35.5982L183.565 37.0834L185.008 38.3719L186.34 36.88ZM191.8 30.34L193.073 28.7976L191.539 27.5315L190.264 29.0582L191.8 30.34ZM201.94 26.02L202.436 24.0827L202.434 24.0822L201.94 26.02ZM218.32 5.74L219.966 6.87546L221.022 5.34459L219.572 4.1804L218.32 5.74ZM213.52 12.7L212.38 14.3434L214.028 15.4862L215.166 13.8355L213.52 12.7ZM206.26 17.86L206.764 15.9246L206.756 15.9226L206.26 17.86ZM217.58 30.58C217.58 34.1923 216.228 36.8599 214.006 38.6654C211.734 40.5116 208.368 41.6 204.16 41.6V45.6C209.011 45.6 213.355 44.3484 216.529 41.7696C219.752 39.1501 221.58 35.3077 221.58 30.58H217.58ZM204.16 41.6C198.259 41.6 192.322 39.5401 187.672 35.3881L185.008 38.3719C190.437 43.2199 197.34 45.6 204.16 45.6V41.6ZM187.875 38.1618L193.335 31.6218L190.264 29.0582L184.804 35.5982L187.875 38.1618ZM190.527 31.8824C194.522 35.1804 198.919 37.44 204.34 37.44V33.44C200.161 33.44 196.637 31.7396 193.073 28.7976L190.527 31.8824ZM204.34 37.44C206.455 37.44 208.4 37.0263 209.883 36.0558C211.45 35.0298 212.4 33.4308 212.4 31.48H208.4C208.4 31.9892 208.21 32.3702 207.692 32.7092C207.089 33.1037 206.004 33.44 204.34 33.44V37.44ZM212.4 31.48V31.36H208.4V31.48H212.4ZM212.4 31.36C212.4 30.5686 212.278 29.7098 211.839 28.8675C211.399 28.0236 210.729 27.3634 209.905 26.8187C208.352 25.7934 205.928 24.978 202.436 24.0827L201.443 27.9573C204.971 28.862 206.777 29.5466 207.7 30.1563C208.113 30.4291 208.242 30.6202 208.291 30.7156C208.342 30.8127 208.4 30.9814 208.4 31.36H212.4ZM202.434 24.0822C198.183 22.9967 195.092 21.9503 193.04 20.343C191.167 18.8759 190.02 16.8235 190.02 13.18H186.02C186.02 17.8765 187.602 21.1641 190.574 23.492C193.367 25.6797 197.236 26.8833 201.445 27.9578L202.434 24.0822ZM190.02 13.18V13.06H186.02V13.18H190.02ZM190.02 13.06C190.02 9.82699 191.299 7.22254 193.448 5.39627C195.623 3.54665 198.811 2.4 202.72 2.4V-1.6C198.048 -1.6 193.886 -0.226654 190.857 2.34873C187.8 4.94745 186.02 8.673 186.02 13.06H190.02ZM202.72 2.4C208.392 2.4 213.169 4.16941 217.068 7.29959L219.572 4.1804C214.951 0.470585 209.287 -1.6 202.72 -1.6V2.4ZM216.673 4.60453L211.873 11.5645L215.166 13.8355L219.966 6.87546L216.673 4.60453ZM214.659 11.0566C210.782 8.36724 206.72 6.56 202.6 6.56V10.56C205.56 10.56 208.818 11.8728 212.38 14.3434L214.659 11.0566ZM202.6 6.56C200.55 6.56 198.745 7.02625 197.396 8.00753C195.998 9.02382 195.2 10.5268 195.2 12.22H199.2C199.2 11.8732 199.331 11.5462 199.749 11.2425C200.214 10.9038 201.109 10.56 202.6 10.56V6.56ZM195.2 12.22V12.34H199.2V12.22H195.2ZM195.2 12.34C195.2 13.2462 195.348 14.1908 195.851 15.086C196.355 15.9813 197.108 16.638 197.989 17.1592C199.639 18.1344 202.202 18.8851 205.763 19.7974L206.756 15.9226C203.057 14.9749 201.09 14.3456 200.025 13.7158C199.549 13.4345 199.398 13.2324 199.337 13.1246C199.277 13.0167 199.2 12.8138 199.2 12.34H195.2ZM205.755 19.7954C209.95 20.8884 212.904 22.1165 214.807 23.7607C216.586 25.2979 217.58 27.3163 217.58 30.46H221.58C221.58 26.2837 220.174 23.1121 217.422 20.7343C214.795 18.4635 211.089 17.0516 206.764 15.9246L205.755 19.7954ZM217.58 30.46V30.58H221.58V30.46H217.58Z" fill="#06EEE0" mask="url(#path-1-outside-1_702_227)"/>
</svg>
