<svg width="275" height="26" viewBox="0 0 275 26" fill="none" xmlns="http://www.w3.org/2000/svg">
<path d="M18.4279 2.775L15.5929 6.94C13.9829 5.715 12.6879 4.98 10.5879 4.98C7.54293 4.98 6.00293 7.43 5.65293 10.65C6.87793 9.845 8.31293 9.075 10.7279 9.075C15.5929 9.075 19.3379 11.77 19.3379 16.915C19.3379 21.955 15.3129 25.42 9.99293 25.42C6.80793 25.42 4.63793 24.51 2.92293 22.795C1.13793 21.01 0.0179297 18.385 0.0179297 13.485C0.0179297 5.89 3.44793 0.0799996 10.7629 0.0799996C14.0879 0.0799996 16.2579 1.06 18.4279 2.775ZM13.9829 17.16C13.9829 15.06 12.3729 13.555 9.71293 13.555C7.05293 13.555 5.51293 15.025 5.51293 17.125C5.51293 19.26 7.12293 20.8 9.78293 20.8C12.4429 20.8 13.9829 19.295 13.9829 17.16ZM56.2599 21.045C53.7399 23.74 50.9399 25.42 46.2149 25.42C39.0049 25.42 33.6499 19.855 33.6499 12.82V12.75C33.6499 5.785 38.8999 0.0799996 46.4249 0.0799996C51.0449 0.0799996 53.8099 1.62 56.0849 3.86L52.6549 7.815C50.7649 6.1 48.8399 5.05 46.3899 5.05C42.2599 5.05 39.2849 8.48 39.2849 12.68V12.75C39.2849 16.95 42.1899 20.45 46.3899 20.45C49.1899 20.45 50.9049 19.33 52.8299 17.58L56.2599 21.045ZM84.4448 25H78.8098L76.5698 19.505H66.2098L63.9698 25H58.4748L68.9748 0.324998H73.9448L84.4448 25ZM74.6448 14.745L71.3898 6.8L68.1348 14.745H74.6448ZM109.401 25H103.101L97.8511 17.16H93.6161V25H88.2261V0.499998H99.4261C105.201 0.499998 108.666 3.545 108.666 8.585V8.655C108.666 12.61 106.531 15.095 103.416 16.25L109.401 25ZM103.206 8.935V8.865C103.206 6.555 101.596 5.365 98.9711 5.365H93.6161V12.4H99.0761C101.701 12.4 103.206 11 103.206 8.935ZM136.094 12.75C136.094 19.645 130.774 25 123.074 25H113.519V0.499998H123.074C130.774 0.499998 136.094 5.785 136.094 12.68V12.75ZM130.459 12.82V12.75C130.459 8.41 127.484 5.365 123.074 5.365H118.909V20.135H123.074C127.484 20.135 130.459 17.16 130.459 12.82ZM170.78 9.04C170.78 14.71 166.37 17.65 160.875 17.65H156.78V25H151.39V0.499998H161.4C167.245 0.499998 170.78 3.965 170.78 8.97V9.04ZM165.32 9.145V9.075C165.32 6.66 163.64 5.365 160.945 5.365H156.78V12.855H161.05C163.745 12.855 165.32 11.245 165.32 9.145ZM199.724 12.75C199.724 19.715 194.229 25.42 186.669 25.42C179.109 25.42 173.684 19.785 173.684 12.82V12.75C173.684 5.785 179.179 0.0799996 186.739 0.0799996C194.299 0.0799996 199.724 5.715 199.724 12.68V12.75ZM194.089 12.82V12.75C194.089 8.55 191.009 5.05 186.669 5.05C182.329 5.05 179.319 8.48 179.319 12.68V12.75C179.319 16.95 182.399 20.45 186.739 20.45C191.079 20.45 194.089 17.02 194.089 12.82ZM226.8 25H220.325L212.73 14.57L209.895 17.51V25H204.505V0.499998H209.895V11.21L219.835 0.499998H226.345L216.37 10.895L226.8 25ZM248.727 25H230.072V0.499998H248.552V5.295H235.427V10.265H246.977V15.06H235.427V20.205H248.727V25ZM274.694 25H268.394L263.144 17.16H258.909V25H253.519V0.499998H264.719C270.494 0.499998 273.959 3.545 273.959 8.585V8.655C273.959 12.61 271.824 15.095 268.709 16.25L274.694 25ZM268.499 8.935V8.865C268.499 6.555 266.889 5.365 264.264 5.365H258.909V12.4H264.369C266.994 12.4 268.499 11 268.499 8.935Z" fill="url(#paint0_linear_23_708)"/>
<defs>
<linearGradient id="paint0_linear_23_708" x1="137" y1="-13" x2="136.75" y2="36.0005" gradientUnits="userSpaceOnUse">
<stop stop-color="#BEA54B"/>
<stop offset="0.65625" stop-color="#FBEBB3"/>
<stop offset="1" stop-color="#BEA54B"/>
</linearGradient>
</defs>
</svg>
