<svg width="190" height="31" viewBox="0 0 190 31" fill="none" xmlns="http://www.w3.org/2000/svg">
<path d="M0.0390626 30V0.679998H8.71906C14.6791 0.679998 18.7991 2.72 18.7991 7.88C18.7991 10.76 17.2791 13.32 14.5191 14.24V14.4C18.0391 15.08 20.4791 17.44 20.4791 21.44C20.4791 27.16 15.9191 30 9.39906 30H0.0390626ZM3.75906 13.16H8.07906C13.1191 13.16 15.1591 11.32 15.1591 8.32C15.1591 4.88 12.8391 3.6 8.27906 3.6H3.75906V13.16ZM3.75906 27.08H8.87906C13.8791 27.08 16.8791 25.28 16.8791 21.32C16.8791 17.68 13.9991 16 8.87906 16H3.75906V27.08ZM22.4481 30L32.3681 0.679998H36.5281L46.4481 30H42.5681L37.4081 13.6C36.3681 10.32 35.4481 7.12 34.4881 3.72H34.3281C33.3681 7.12 32.4481 10.32 31.3681 13.6L26.2081 30H22.4481ZM27.6481 21.04V18.12H41.1681V21.04H27.6481ZM61.1972 30.56C53.8772 30.56 48.4372 24.88 48.4372 15.36C48.4372 5.92 53.9972 0.159998 61.4372 0.159998C64.9972 0.159998 67.7572 1.88 69.4772 3.76L67.4372 6.16C65.9172 4.52 63.9572 3.4 61.4772 3.4C55.9172 3.4 52.2372 7.96 52.2372 15.28C52.2372 22.68 55.7572 27.28 61.3572 27.28C64.1172 27.28 66.2772 26.08 68.1572 24L70.1572 26.32C67.8372 29.04 64.9972 30.56 61.1972 30.56ZM85.3378 30.56C78.0178 30.56 72.5778 24.88 72.5778 15.36C72.5778 5.92 78.1378 0.159998 85.5778 0.159998C89.1378 0.159998 91.8978 1.88 93.6178 3.76L91.5778 6.16C90.0578 4.52 88.0978 3.4 85.6178 3.4C80.0578 3.4 76.3778 7.96 76.3778 15.28C76.3778 22.68 79.8978 27.28 85.4978 27.28C88.2578 27.28 90.4178 26.08 92.2978 24L94.2978 26.32C91.9778 29.04 89.1378 30.56 85.3378 30.56ZM95.8856 30L105.806 0.679998H109.966L119.886 30H116.006L110.846 13.6C109.806 10.32 108.886 7.12 107.926 3.72H107.766C106.806 7.12 105.886 10.32 104.806 13.6L99.6456 30H95.8856ZM101.086 21.04V18.12H114.606V21.04H101.086ZM124.102 30V0.679998H133.262C139.222 0.679998 143.502 2.84 143.502 8.92C143.502 14.8 139.222 17.6 133.262 17.6H127.822V30H124.102ZM127.822 14.6H132.742C137.302 14.6 139.822 12.72 139.822 8.92C139.822 5.08 137.302 3.72 132.742 3.72H127.822V14.6ZM140.222 30L132.542 16.6L135.422 14.68L144.382 30H140.222ZM145.339 30L155.259 0.679998H159.419L169.339 30H165.459L160.299 13.6C159.259 10.32 158.339 7.12 157.379 3.72H157.219C156.259 7.12 155.339 10.32 154.259 13.6L149.099 30H145.339ZM150.539 21.04V18.12H164.059V21.04H150.539ZM177.096 30V3.8H168.256V0.679998H189.696V3.8H180.856V30H177.096Z" fill="url(#paint0_linear_23_676)"/>
<defs>
<linearGradient id="paint0_linear_23_676" x1="93.5" y1="-15" x2="93.0339" y2="40.9981" gradientUnits="userSpaceOnUse">
<stop stop-color="#BEA54B"/>
<stop offset="0.65625" stop-color="#FBEBB3"/>
<stop offset="1" stop-color="#BEA54B"/>
</linearGradient>
</defs>
</svg>
