<svg width="221" height="39" viewBox="0 0 221 39" fill="none" xmlns="http://www.w3.org/2000/svg">
<path d="M0.566094 31V29.4C1.47276 29.3733 2.19276 29.2933 2.72609 29.16C3.28609 29.0267 3.71276 28.8 4.00609 28.48C4.32609 28.16 4.53943 27.7067 4.64609 27.12C4.75276 26.5333 4.80609 25.7733 4.80609 24.84V6.36C4.80609 5.42667 4.76609 4.68 4.68609 4.12C4.60609 3.53333 4.43276 3.08 4.16609 2.76C3.92609 2.41333 3.57943 2.18666 3.12609 2.08C2.69943 1.94666 2.12609 1.85333 1.40609 1.8V0.199998H14.2461C18.2728 0.199998 21.3661 0.853332 23.5261 2.16C25.7128 3.44 26.8061 5.28 26.8061 7.68C26.8061 10.8533 24.5261 13.0933 19.9661 14.4V14.56C21.4328 14.56 22.7528 14.7733 23.9261 15.2C25.1261 15.6 26.1394 16.1733 26.9661 16.92C27.7928 17.6667 28.4328 18.5467 28.8861 19.56C29.3394 20.5733 29.5661 21.68 29.5661 22.88C29.5661 24.24 29.2328 25.4267 28.5661 26.44C27.9261 27.4533 26.9928 28.3067 25.7661 29C23.3928 30.3333 20.1261 31 15.9661 31H0.566094ZM16.2461 28.56C20.5394 28.56 22.6861 26.6267 22.6861 22.76C22.6861 20.3867 21.9128 18.6533 20.3661 17.56C19.5661 17 18.5261 16.6 17.2461 16.36C15.9928 16.12 14.4461 16 12.6061 16H10.6861V24C10.6861 25.6533 11.1128 26.8267 11.9661 27.52C12.8194 28.2133 14.2461 28.56 16.2461 28.56ZM13.0461 13.6C14.2461 13.6 15.2861 13.4933 16.1661 13.28C17.0461 13.04 17.7928 12.7067 18.4061 12.28C19.6861 11.4 20.3261 10.0267 20.3261 8.16C20.3261 6.21333 19.8461 4.81333 18.8861 3.96C17.9261 3.08 16.3794 2.64 14.2461 2.64H11.4061C10.9261 2.64 10.6861 2.86666 10.6861 3.32V13.6H13.0461ZM52.8411 31H32.1711V29.8C32.8311 29.78 33.3711 29.72 33.7911 29.62C34.2111 29.52 34.5311 29.35 34.7511 29.11C34.9711 28.87 35.1211 28.53 35.2011 28.09C35.2811 27.65 35.3211 27.08 35.3211 26.38V12.52C35.3211 11.82 35.2811 11.26 35.2011 10.84C35.1411 10.4 35.0111 10.06 34.8111 9.82C34.6111 9.56 34.3211 9.39 33.9411 9.31C33.5811 9.21 33.1011 9.14 32.5011 9.1V7.9H42.8511V9.1C42.1711 9.12 41.6211 9.18 41.2011 9.28C40.8011 9.38 40.4911 9.56 40.2711 9.82C40.0511 10.08 39.9011 10.44 39.8211 10.9C39.7611 11.36 39.7311 11.97 39.7311 12.73V25.3C39.7311 26.14 39.8111 26.83 39.9711 27.37C40.1511 27.89 40.4511 28.3 40.8711 28.6C41.2911 28.88 41.8511 29.08 42.5511 29.2C43.2511 29.3 44.1211 29.35 45.1611 29.35C46.3211 29.35 47.2911 29.28 48.0711 29.14C48.8511 29 49.5011 28.74 50.0211 28.36C50.5611 27.96 50.9911 27.43 51.3111 26.77C51.6311 26.11 51.9011 25.25 52.1211 24.19H53.3211L52.8411 31ZM68.7976 24.01H60.3076C59.3676 26.13 58.8976 27.6 58.8976 28.42C58.8976 29.02 59.1176 29.4 59.5576 29.56C60.0176 29.72 60.6976 29.8 61.5976 29.8V31H53.3776V29.8C53.8576 29.74 54.2676 29.66 54.6076 29.56C54.9676 29.46 55.2776 29.32 55.5376 29.14C55.8176 28.96 56.0576 28.73 56.2576 28.45C56.4576 28.15 56.6476 27.79 56.8276 27.37L64.7176 7.6H66.9376L74.1076 25.12C74.5276 26.14 74.8776 26.94 75.1576 27.52C75.4576 28.1 75.7676 28.55 76.0876 28.87C76.4276 29.17 76.8076 29.38 77.2276 29.5C77.6676 29.62 78.2276 29.71 78.9076 29.77V31H67.5676V29.77C68.5276 29.73 69.2176 29.63 69.6376 29.47C70.0576 29.31 70.2676 28.99 70.2676 28.51C70.2676 28.23 70.1976 27.87 70.0576 27.43C69.9176 26.99 69.7276 26.45 69.4876 25.81L68.7976 24.01ZM60.9976 22.21H68.1376L64.6876 13.12H64.5676L60.9976 22.21ZM98.5323 7.9H100.002L99.4023 15.49H98.2023C97.7823 13.65 96.9623 12.2 95.7423 11.14C94.5423 10.08 93.0823 9.55 91.3623 9.55C90.1823 9.55 89.1323 9.79 88.2123 10.27C87.2923 10.73 86.5123 11.4 85.8723 12.28C85.2523 13.14 84.7723 14.2 84.4323 15.46C84.1123 16.7 83.9523 18.1 83.9523 19.66C83.9523 22.76 84.5823 25.15 85.8423 26.83C87.1223 28.49 89.0023 29.32 91.4823 29.32C93.4823 29.32 95.1323 28.78 96.4323 27.7C97.7523 26.62 98.6923 25.01 99.2523 22.87H100.572V31H99.1623L98.7423 28.63C96.5423 30.41 93.8723 31.3 90.7323 31.3C88.9123 31.3 87.2623 31.03 85.7823 30.49C84.3023 29.95 83.0423 29.19 82.0023 28.21C80.9623 27.21 80.1523 26 79.5723 24.58C79.0123 23.16 78.7323 21.58 78.7323 19.84C78.7323 18.02 79.0323 16.36 79.6323 14.86C80.2323 13.36 81.0723 12.07 82.1523 10.99C83.2523 9.91 84.5523 9.08 86.0523 8.5C87.5723 7.9 89.2523 7.6 91.0923 7.6C92.3123 7.6 93.4523 7.77 94.5123 8.11C95.5723 8.45 96.7223 9 97.9623 9.76L98.5323 7.9ZM110.63 26.17C110.63 26.93 110.66 27.54 110.72 28C110.8 28.46 110.94 28.82 111.14 29.08C111.34 29.34 111.62 29.52 111.98 29.62C112.36 29.72 112.86 29.78 113.48 29.8V31H103.07V29.8C103.73 29.78 104.27 29.72 104.69 29.62C105.11 29.52 105.43 29.35 105.65 29.11C105.87 28.87 106.02 28.53 106.1 28.09C106.18 27.65 106.22 27.08 106.22 26.38V12.52C106.22 11.84 106.18 11.28 106.1 10.84C106.04 10.4 105.91 10.06 105.71 9.82C105.51 9.58 105.22 9.41 104.84 9.31C104.48 9.21 104 9.14 103.4 9.1V7.9H113.75V9.1C113.07 9.12 112.52 9.18 112.1 9.28C111.7 9.38 111.39 9.56 111.17 9.82C110.95 10.08 110.8 10.44 110.72 10.9C110.66 11.36 110.63 11.97 110.63 12.73V19.39L118.4 11.05C118.86 10.55 119.09 10.13 119.09 9.79C119.09 9.57 118.94 9.4 118.64 9.28C118.36 9.16 117.83 9.1 117.05 9.1V7.9H125.24V9.07C124.8 9.09 124.41 9.13 124.07 9.19C123.75 9.25 123.42 9.38 123.08 9.58C122.76 9.78 122.39 10.07 121.97 10.45C121.57 10.81 121.07 11.3 120.47 11.92L115.13 17.5L123.95 28.24C124.37 28.76 124.83 29.14 125.33 29.38C125.85 29.62 126.51 29.76 127.31 29.8V31H116.21V29.8C117.03 29.78 117.62 29.71 117.98 29.59C118.34 29.47 118.52 29.27 118.52 28.99C118.52 28.89 118.5 28.8 118.46 28.72C118.44 28.62 118.39 28.51 118.31 28.39C118.25 28.25 118.15 28.09 118.01 27.91C117.87 27.71 117.68 27.47 117.44 27.19L112.13 20.65L110.63 22.21V26.17ZM130.588 12.52C130.588 11.82 130.548 11.26 130.468 10.84C130.408 10.4 130.278 10.06 130.078 9.82C129.878 9.56 129.588 9.39 129.208 9.31C128.848 9.21 128.357 9.14 127.738 9.1V7.9H137.848V9.1C137.228 9.12 136.728 9.18 136.348 9.28C135.968 9.38 135.678 9.56 135.478 9.82C135.278 10.08 135.148 10.44 135.088 10.9C135.028 11.36 134.998 11.97 134.998 12.73V31.06C134.998 33.58 134.358 35.5 133.078 36.82C131.798 38.14 129.888 38.8 127.348 38.8C125.527 38.8 124.127 38.49 123.147 37.87C122.147 37.25 121.647 36.46 121.647 35.5C121.647 34.92 121.837 34.47 122.217 34.15C122.577 33.85 123.027 33.7 123.567 33.7C124.027 33.7 124.397 33.82 124.677 34.06C124.937 34.3 125.267 34.75 125.667 35.41C126.067 36.07 126.427 36.51 126.748 36.73C127.068 36.95 127.458 37.06 127.918 37.06C128.778 37.06 129.438 36.59 129.898 35.65C130.358 34.71 130.588 33.39 130.588 31.69V12.52ZM153.641 24.01H145.151C144.211 26.13 143.741 27.6 143.741 28.42C143.741 29.02 143.961 29.4 144.401 29.56C144.861 29.72 145.541 29.8 146.441 29.8V31H138.221V29.8C138.701 29.74 139.111 29.66 139.451 29.56C139.811 29.46 140.121 29.32 140.381 29.14C140.661 28.96 140.901 28.73 141.101 28.45C141.301 28.15 141.491 27.79 141.671 27.37L149.561 7.6H151.781L158.951 25.12C159.371 26.14 159.721 26.94 160.001 27.52C160.301 28.1 160.611 28.55 160.931 28.87C161.271 29.17 161.651 29.38 162.071 29.5C162.511 29.62 163.071 29.71 163.751 29.77V31H152.411V29.77C153.371 29.73 154.061 29.63 154.481 29.47C154.901 29.31 155.111 28.99 155.111 28.51C155.111 28.23 155.041 27.87 154.901 27.43C154.761 26.99 154.571 26.45 154.331 25.81L153.641 24.01ZM145.841 22.21H152.981L149.531 13.12H149.411L145.841 22.21ZM183.376 7.9H184.846L184.246 15.49H183.046C182.626 13.65 181.806 12.2 180.586 11.14C179.386 10.08 177.926 9.55 176.206 9.55C175.026 9.55 173.976 9.79 173.056 10.27C172.136 10.73 171.356 11.4 170.716 12.28C170.096 13.14 169.616 14.2 169.276 15.46C168.956 16.7 168.796 18.1 168.796 19.66C168.796 22.76 169.426 25.15 170.686 26.83C171.966 28.49 173.846 29.32 176.326 29.32C178.326 29.32 179.976 28.78 181.276 27.7C182.596 26.62 183.536 25.01 184.096 22.87H185.416V31H184.006L183.586 28.63C181.386 30.41 178.716 31.3 175.576 31.3C173.756 31.3 172.106 31.03 170.626 30.49C169.146 29.95 167.886 29.19 166.846 28.21C165.806 27.21 164.996 26 164.416 24.58C163.856 23.16 163.576 21.58 163.576 19.84C163.576 18.02 163.876 16.36 164.476 14.86C165.076 13.36 165.916 12.07 166.996 10.99C168.096 9.91 169.396 9.08 170.896 8.5C172.416 7.9 174.096 7.6 175.936 7.6C177.156 7.6 178.296 7.77 179.356 8.11C180.416 8.45 181.566 9 182.806 9.76L183.376 7.9ZM198.343 24.56C198.343 25.5733 198.383 26.3867 198.463 27C198.57 27.6133 198.757 28.0933 199.023 28.44C199.29 28.7867 199.663 29.0267 200.143 29.16C200.65 29.2933 201.317 29.3733 202.143 29.4V31H188.263V29.4C189.143 29.3733 189.863 29.2933 190.423 29.16C190.983 29.0267 191.41 28.8 191.703 28.48C191.997 28.16 192.197 27.7067 192.303 27.12C192.41 26.5333 192.463 25.7733 192.463 24.84V6.36C192.463 5.45333 192.41 4.70667 192.303 4.12C192.223 3.53333 192.05 3.08 191.783 2.76C191.517 2.44 191.13 2.21333 190.623 2.08C190.143 1.94666 189.503 1.85333 188.703 1.8V0.199998H202.503V1.8C201.597 1.82667 200.863 1.90667 200.303 2.04C199.77 2.17333 199.357 2.41333 199.063 2.76C198.77 3.10667 198.57 3.58667 198.463 4.2C198.383 4.81333 198.343 5.62667 198.343 6.64V15.52L208.703 4.4C209.317 3.73333 209.623 3.17333 209.623 2.72C209.623 2.42666 209.423 2.2 209.023 2.04C208.65 1.88 207.943 1.8 206.903 1.8V0.199998H217.823V1.76C217.237 1.78667 216.717 1.84 216.263 1.92C215.837 2 215.397 2.17333 214.943 2.44C214.517 2.70666 214.023 3.09333 213.463 3.6C212.93 4.08 212.263 4.73333 211.463 5.56L204.343 13L216.103 27.32C216.663 28.0133 217.277 28.52 217.943 28.84C218.637 29.16 219.517 29.3467 220.583 29.4V31H205.783V29.4C206.877 29.3733 207.663 29.28 208.143 29.12C208.623 28.96 208.863 28.6933 208.863 28.32C208.863 28.1867 208.837 28.0667 208.783 27.96C208.757 27.8267 208.69 27.68 208.583 27.52C208.503 27.3333 208.37 27.12 208.183 26.88C207.997 26.6133 207.743 26.2933 207.423 25.92L200.343 17.2L198.343 19.28V24.56Z" fill="url(#paint0_linear_23_701)"/>
<defs>
<linearGradient id="paint0_linear_23_701" x1="109.5" y1="-11" x2="109.089" y2="44.999" gradientUnits="userSpaceOnUse">
<stop stop-color="#BEA54B"/>
<stop offset="0.65625" stop-color="#FBEBB3"/>
<stop offset="1" stop-color="#BEA54B"/>
</linearGradient>
</defs>
</svg>
