<svg width="177" height="79" viewBox="0 0 177 79" fill="none" xmlns="http://www.w3.org/2000/svg">
<path d="M126.847 24.7743C126.131 24.7664 125.422 24.912 124.768 25.2011C124.606 25.0408 124.49 24.84 124.433 24.6198C124.376 24.3997 124.38 24.1684 124.444 23.9502C124.508 23.732 124.63 23.535 124.798 23.3799C124.965 23.2247 125.171 23.1173 125.395 23.0688C125.618 23.0203 125.851 23.0325 126.068 23.1042C126.285 23.1759 126.479 23.3044 126.629 23.4761C126.779 23.6479 126.879 23.8566 126.92 24.0804C126.96 24.3041 126.939 24.5345 126.859 24.7474C126.856 24.7567 126.85 24.765 126.847 24.7743ZM142.58 30.5938C142.67 30.3588 142.687 30.1029 142.63 29.8582C142.573 29.6135 142.444 29.3912 142.26 29.2192C142.075 29.0473 141.844 28.9335 141.595 28.8923C141.345 28.8511 141.089 28.8842 140.859 28.9876C140.628 29.0909 140.434 29.2598 140.3 29.4729C140.166 29.686 140.099 29.9337 140.107 30.1848C140.115 30.4358 140.198 30.6788 140.345 30.8831C140.492 31.0875 140.696 31.2439 140.933 31.3327C141.077 31.387 141.229 31.4147 141.383 31.4142C141.643 31.4145 141.897 31.3362 142.111 31.1896C142.325 31.043 142.488 30.8352 142.58 30.5938ZM120.424 23.6168C120.743 23.6169 121.051 23.4984 121.286 23.2847C121.522 23.0709 121.669 22.7773 121.697 22.4616C121.726 22.1459 121.635 21.8309 121.442 21.5785C121.249 21.3262 120.968 21.1547 120.654 21.0979C120.34 21.041 120.016 21.1029 119.745 21.2713C119.475 21.4397 119.278 21.7025 119.192 22.0079C119.107 22.3134 119.14 22.6395 119.285 22.9222C119.429 23.2048 119.675 23.4235 119.974 23.5353C120.117 23.5896 120.27 23.6172 120.424 23.6168ZM136.594 27.0174C136.437 26.9588 136.271 26.9313 136.104 26.9367C135.936 26.942 135.772 26.98 135.62 27.0484C135.467 27.1169 135.33 27.2145 135.216 27.3356C135.101 27.4568 135.012 27.5992 134.953 27.7546C134.894 27.91 134.866 28.0755 134.872 28.2415C134.877 28.4075 134.915 28.5709 134.984 28.7222C135.053 28.8736 135.151 29.01 135.273 29.1236C135.395 29.2373 135.539 29.3259 135.695 29.3845C135.838 29.4379 135.99 29.4657 136.143 29.4666C136.442 29.4681 136.732 29.365 136.962 29.1754C137.192 28.9858 137.348 28.7218 137.402 28.4296C137.455 28.1375 137.404 27.8359 137.256 27.5777C137.108 27.3194 136.874 27.1211 136.594 27.0174ZM51.5596 21.8948C51.3243 21.9834 51.1206 22.1392 50.9744 22.3427C50.8281 22.5461 50.7458 22.788 50.7378 23.0378C50.7298 23.2877 50.7964 23.5343 50.9294 23.7465C51.0623 23.9588 51.2555 24.1272 51.4847 24.2304C51.7139 24.3337 51.9687 24.3672 52.2171 24.3268C52.4654 24.2864 52.6961 24.1738 52.8801 24.0032C53.0641 23.8327 53.1932 23.6119 53.2509 23.3686C53.3087 23.1253 53.2926 22.8704 53.2047 22.6362C53.1468 22.4794 53.058 22.3357 52.9436 22.2134C52.8292 22.091 52.6914 21.9925 52.5384 21.9235C52.3853 21.8545 52.2199 21.8165 52.0519 21.8115C51.8839 21.8066 51.7165 21.8349 51.5596 21.8948ZM58.4479 20.7003C58.3603 20.4656 58.2046 20.262 58.0005 20.1152C57.7964 19.9685 57.553 19.8851 57.3012 19.8757C57.0495 19.8663 56.8005 19.9313 56.5859 20.0624C56.3713 20.1936 56.2007 20.385 56.0956 20.6125C55.9905 20.84 55.9557 21.0933 55.9956 21.3404C56.0354 21.5875 56.1482 21.8174 56.3195 22.0008C56.4909 22.1843 56.7132 22.3132 56.9583 22.3712C57.2034 22.4291 57.4604 22.4136 57.6966 22.3265C58.0126 22.2089 58.2689 21.9718 58.4096 21.6672C58.5503 21.3625 58.5641 21.0149 58.4479 20.7003ZM95.2358 69.0386C95.4425 69.039 95.6463 68.9895 95.8294 68.8942C96.0125 68.7989 96.1695 68.6607 96.2868 68.4917C96.4041 68.3226 96.4783 68.1278 96.5028 67.9239C96.5273 67.72 96.5015 67.5133 96.4276 67.3215C96.3796 67.2025 96.3132 67.0916 96.231 66.9928C95.4945 67.1903 94.7483 67.3503 93.9954 67.4719C93.9326 67.7232 93.9497 67.9877 94.0445 68.2289C94.1378 68.4676 94.3016 68.6727 94.5144 68.8173C94.7272 68.9619 94.979 69.0392 95.2368 69.0391M145.961 57.3591L146.545 57.1252C147.021 56.2539 147.566 55.4211 148.173 54.6345L148.178 54.6286L148.181 54.6228C148.955 53.5109 149.873 52.5057 150.913 51.6334L144.433 54.2282L145.961 57.3591ZM83.5007 69.3761C83.7451 69.3777 83.9848 69.3092 84.1909 69.1788C84.397 69.0484 84.5608 68.8616 84.6626 68.6409C84.7644 68.4202 84.7998 68.175 84.7647 67.9348C84.7295 67.6946 84.6252 67.4696 84.4644 67.2868C83.9693 67.1891 83.4811 67.0768 83.0002 66.9484C82.769 67.0453 82.5718 67.2081 82.4336 67.4162C82.2953 67.6243 82.2223 67.8684 82.2236 68.1177C82.2249 68.367 82.3005 68.6104 82.4409 68.817C82.5814 69.0237 82.7802 69.1844 83.0125 69.2789C83.1673 69.3426 83.3332 69.3758 83.5007 69.3766M100.459 67.049C100.666 67.0493 100.87 66.9996 101.053 66.9041C101.236 66.8085 101.394 66.6701 101.511 66.5008C101.628 66.3314 101.702 66.1362 101.727 65.9321C101.751 65.7279 101.725 65.5209 101.651 65.3289C101.574 65.1345 101.449 64.9623 101.288 64.8283C100.616 65.2445 99.9168 65.6165 99.1957 65.9418C99.2303 66.2492 99.3788 66.5328 99.6123 66.7374C99.8457 66.942 100.147 67.0531 100.459 67.049ZM78.3304 67.2521C78.5198 67.2529 78.7069 67.2116 78.8782 67.1313C79.0495 67.051 79.2005 66.9337 79.3204 66.788C79.4402 66.6423 79.5257 66.4719 79.5708 66.2892C79.6158 66.1064 79.6192 65.916 79.5807 65.7318C78.9754 65.4588 78.3844 65.1619 77.8107 64.8357C77.5444 64.9533 77.3268 65.1581 77.1945 65.416C77.0621 65.6739 77.0229 65.9691 77.0835 66.2523C77.1441 66.5354 77.3008 66.7893 77.5273 66.9714C77.7539 67.1535 78.0365 67.2528 78.3279 67.2526M141.792 48.6793C141.773 48.6861 141.757 48.6978 141.738 48.7061L142.843 50.9717C143.12 50.8298 143.334 50.5914 143.444 50.3023C143.555 50.0132 143.554 49.6938 143.441 49.4055C143.319 49.0922 143.077 48.8399 142.767 48.7037C142.458 48.5676 142.107 48.5588 141.791 48.6793M46.315 23.8303C46.0072 23.944 45.7556 24.1717 45.613 24.4655C45.4704 24.7594 45.4478 25.0967 45.55 25.4067H47.9709C48.0623 25.1366 48.0576 24.8436 47.9577 24.5765C47.8392 24.2613 47.5997 24.0058 47.2917 23.8658C46.9838 23.7259 46.6325 23.7131 46.315 23.8303ZM20.0944 33.5157C19.8135 33.6186 19.5781 33.8165 19.4295 34.0747C19.2809 34.3328 19.2287 34.6347 19.2819 34.9274C19.3351 35.22 19.4904 35.4846 19.7206 35.6748C19.9507 35.865 20.241 35.9686 20.5404 35.9673C20.6931 35.9663 20.8446 35.9394 20.9883 35.8877C21.2074 35.8054 21.3994 35.6645 21.5429 35.4804L21.7985 34.8895C21.8332 34.6778 21.812 34.4607 21.7371 34.2595C21.6181 33.9448 21.3784 33.6898 21.0705 33.5504C20.7626 33.4109 20.4116 33.3985 20.0944 33.5157ZM147.072 30.9141C146.836 30.827 146.58 30.8111 146.335 30.8685C146.09 30.9259 145.868 31.054 145.697 31.2367C145.525 31.4194 145.412 31.6484 145.372 31.8949C145.331 32.1414 145.365 32.3943 145.469 32.6216C145.573 32.849 145.743 33.0406 145.956 33.1724C146.17 33.3041 146.418 33.37 146.669 33.3618C146.921 33.3536 147.164 33.2716 147.368 33.1262C147.573 32.9808 147.729 32.7785 147.818 32.5448C147.936 32.2302 147.924 31.8821 147.784 31.5765C147.644 31.2709 147.388 31.0327 147.072 30.9141ZM130.994 26.6868L131.004 26.7063L131.357 27.4301C131.539 27.3615 131.703 27.2521 131.836 27.1105C131.969 26.969 132.067 26.7989 132.123 26.6135C132.18 26.4282 132.192 26.2324 132.16 26.0414C132.128 25.8504 132.052 25.6693 131.939 25.5121C131.825 25.3549 131.676 25.2257 131.504 25.1346C131.332 25.0435 131.141 24.993 130.947 24.9868C130.752 24.9806 130.558 25.019 130.381 25.099C130.203 25.179 130.047 25.2985 129.923 25.4482C130.376 25.7588 130.741 26.1791 130.984 26.6692L130.994 26.6868ZM89.2262 70.7738C89.383 70.7737 89.5385 70.745 89.6849 70.6893C89.9825 70.5758 90.2266 70.3559 90.3693 70.0728C90.5121 69.7897 90.5433 69.4638 90.4567 69.1591C90.3701 68.8544 90.172 68.5928 89.9013 68.4257C89.6306 68.2585 89.3068 68.1978 88.9933 68.2555C88.6799 68.3133 88.3995 68.4852 88.2071 68.7377C88.0148 68.9901 87.9243 69.3049 87.9534 69.6202C87.9826 69.9355 88.1293 70.2286 88.3647 70.442C88.6002 70.6554 88.9074 70.7738 89.2262 70.7738ZM73.16 65.1306C73.4774 65.1315 73.7837 65.015 74.0194 64.8039C74.2551 64.5929 74.4034 64.3022 74.4353 63.9886C74.4672 63.6749 74.3805 63.3607 74.1921 63.107C74.0037 62.8533 73.727 62.6783 73.4158 62.6161C73.1047 62.5539 72.7814 62.6088 72.5088 62.7702C72.2362 62.9317 72.0338 63.1881 71.941 63.4895C71.8482 63.791 71.8716 64.116 72.0067 64.4013C72.1417 64.6866 72.3788 64.9117 72.6718 65.033C72.8266 65.0967 72.9924 65.1298 73.16 65.1306ZM125.118 61.963L121.221 63.5258L120.557 65.1072L120.546 65.1326L120.535 65.158C119.483 67.5154 116.299 67.5154 112.612 67.5154C112.169 67.5154 111.719 67.5154 111.277 67.5085L93.4983 74.6237C91.9682 75.2412 90.329 75.5477 88.6776 75.5251C87.0262 75.5026 85.3961 75.1514 83.8837 74.4923L66.67 67.068C66.3041 67.2008 65.9179 67.27 65.5284 67.2727H58.3746L82.4825 77.675C84.4222 78.5201 86.5128 78.9704 88.6307 78.9991C90.7486 79.0279 92.8507 78.6346 94.813 77.8426L132.72 62.6624L132.431 61.9635L125.118 61.963ZM147.015 46.6886C146.738 46.795 146.507 46.9944 146.362 47.2521C146.218 47.5099 146.168 47.8098 146.223 48.0998C146.278 48.3898 146.433 48.6517 146.662 48.8399C146.891 49.0282 147.178 49.131 147.475 49.1305C147.632 49.1301 147.787 49.1015 147.934 49.046C148.09 48.9867 148.234 48.8971 148.356 48.7826C148.477 48.668 148.575 48.5307 148.644 48.3784C148.712 48.2262 148.749 48.062 148.753 47.8954C148.757 47.7289 148.728 47.5631 148.668 47.4077C148.607 47.2523 148.516 47.1102 148.4 46.9898C148.284 46.8694 148.146 46.7729 147.992 46.7059C147.839 46.6389 147.673 46.6027 147.505 46.5994C147.338 46.5961 147.171 46.6258 147.015 46.6867M153.273 50.685C153.308 50.685 153.342 50.6796 153.378 50.6796C154.045 50.6806 154.693 50.8989 155.224 51.3008L155.298 51.3551L155.368 51.4151C156.011 51.9369 156.711 52.3855 157.455 52.7528L159.218 52.0471C157.769 51.4536 156.36 50.7672 155.001 49.9925L153.273 50.685ZM105.224 62.6101C104.95 62.7128 104.721 62.9059 104.574 63.1569C104.427 63.408 104.372 63.7015 104.418 63.9883C104.463 64.275 104.607 64.5373 104.825 64.7311C105.042 64.9248 105.321 65.0382 105.612 65.052C105.493 64.7207 105.43 64.3716 105.428 64.0196C105.431 63.5039 105.554 62.996 105.788 62.5359C105.597 62.5184 105.404 62.5443 105.224 62.6116M28.376 54.3288L37.4719 58.2538V54.4684L29.8756 51.191L28.376 54.3288ZM17.6577 37.706C17.5432 37.7191 17.4311 37.7477 17.3244 37.7909L18.3279 40.1049C18.6018 39.9797 18.8219 39.7617 18.9488 39.4901C19.0757 39.2184 19.1011 38.9107 19.0205 38.6221C18.9399 38.3335 18.7585 38.0829 18.5088 37.915C18.2591 37.7471 17.9574 37.673 17.6577 37.706ZM32.9766 47.3675C33.0927 47.0881 33.1039 46.7765 33.0081 46.4896C32.9122 46.2027 32.7157 45.9596 32.4544 45.8047L31.3728 48.0693C31.5084 48.1196 31.6518 48.1464 31.7966 48.1484C32.0489 48.148 32.2954 48.0737 32.5053 47.9346C32.7153 47.7956 32.8792 47.5987 32.9766 47.3675ZM35.7855 48.5196C35.7215 48.6732 35.6887 48.8378 35.6888 49.0041C35.689 49.1703 35.7221 49.3349 35.7863 49.4884C35.8505 49.6419 35.9445 49.7814 36.063 49.8988C36.1814 50.0162 36.322 50.1093 36.4767 50.1727C36.6327 50.2368 36.7997 50.27 36.9684 50.2704C37.1426 50.2698 37.3148 50.2338 37.4743 50.1644V47.8456C37.4679 47.8427 37.463 47.8388 37.4566 47.8363C37.1436 47.708 36.7921 47.7079 36.4789 47.836C36.1658 47.964 35.9163 48.21 35.785 48.52M18.9675 65.408C19.5388 65.408 20.2734 65.3817 20.5733 64.8479L37.7452 28.9577C37.8064 28.8322 37.8433 28.6963 37.8539 28.5572C37.8539 27.5434 35.459 27.5434 33.0646 27.5434C30.3702 27.5434 27.73 27.5434 27.2954 28.4771L18.94 47.7963L10.5585 28.4776C10.1505 27.5443 7.45612 27.5443 4.78932 27.5443C2.39491 27.5443 0 27.5443 0 28.5572C0.0149208 28.7075 0.0613101 28.8531 0.136192 28.9846L17.3352 64.8474C17.6071 65.3812 18.3146 65.4076 18.968 65.4076M40.71 64.7946H65.5288C66.699 64.7946 66.7265 62.553 66.7265 60.3646C66.7265 58.1234 66.699 55.9087 65.5018 55.9087L49.3097 55.9355V49.6379H62.7258C63.8424 49.6379 63.8695 47.6903 63.8695 45.7427C63.8695 43.8214 63.8424 41.8733 62.7258 41.8733H49.3117V36.7229H65.5308C66.701 36.7229 66.7285 34.5086 66.7285 32.2664C66.7285 30.0517 66.701 27.8637 65.5308 27.8637L40.71 27.8906C40.612 27.8904 40.5149 27.9097 40.4245 27.9474C40.3341 27.9851 40.2523 28.0404 40.1838 28.11C40.1153 28.1797 40.0616 28.2623 40.0258 28.353C39.99 28.4436 39.9729 28.5405 39.9754 28.6378V64.0211C39.9739 64.2192 40.0494 64.4103 40.1863 64.5546C40.3231 64.6988 40.5107 64.785 40.71 64.7951M89.7783 65.3284C101.753 65.3284 107.631 57.4568 107.631 46.6237C107.631 45.6894 107.604 44.1686 106.76 44.1686H89.8875C88.7719 44.1686 88.7449 46.1163 88.7449 48.0375C88.7449 49.9857 88.7719 51.9333 89.8875 51.9333H97.0166C96.3362 54.7615 93.9958 56.336 89.7233 56.3629C84.607 56.3096 80.0895 52.0935 80.0895 46.3023C80.0656 45.0242 80.2984 43.7542 80.7745 42.5666C81.2506 41.3789 81.9604 40.2976 82.8623 39.3857C83.7642 38.4738 84.8401 37.7497 86.0272 37.2559C87.2142 36.762 88.4884 36.5082 89.7754 36.5094C92.7624 36.4981 95.6835 37.3816 98.1573 39.0446C98.2931 39.1373 98.4553 39.184 98.62 39.1779C99.5999 39.1779 100.636 37.3631 101.45 35.3886C101.913 34.2678 102.457 32.6938 102.457 31.6799C102.476 31.514 102.457 31.3458 102.4 31.1885C102.344 31.0312 102.252 30.8889 102.131 30.7725C98.6205 28.3174 94.756 27.305 89.6672 27.305C78.265 27.305 69.9647 35.4433 69.9647 46.3028C69.9647 57.1623 77.7477 65.3284 89.7759 65.3284M112.609 65.0354C115.249 65.0354 117.861 65.0086 118.242 64.1563L120.202 59.4865H134.108L136.041 64.1563C136.394 65.0095 139.006 65.0354 141.646 65.0354C143.986 65.0354 146.353 64.9822 146.353 64.0216C146.352 63.8895 146.315 63.7602 146.245 63.6479L128.75 27.7836C128.477 27.2513 127.824 27.2513 127.145 27.2513C126.466 27.2513 125.785 27.2513 125.512 27.7846L108.041 63.6211C107.974 63.7441 107.936 63.8814 107.933 64.0216C107.933 65.0354 110.273 65.0354 112.613 65.0354M127.2 43.7423L130.846 52.0676H123.552L127.2 43.7423ZM162.034 65.3563C170.441 65.3563 177.001 60.6063 177.001 54.0958C177.001 46.357 169.599 43.4219 164.755 41.5006C162.25 40.4863 160.21 39.7112 160.21 38.3775C160.21 37.1233 161.407 36.2164 164.318 36.2164C166.835 36.259 169.284 37.0284 171.367 38.4307C171.529 38.5357 171.718 38.5914 171.911 38.5909C172.944 38.5909 174.197 36.9368 175.259 35.309C176.046 34.1369 176.783 32.7206 176.783 31.867C176.796 31.7509 176.782 31.6335 176.745 31.5229C176.707 31.4123 176.646 31.3111 176.565 31.2262C173.953 29.0114 169.408 27.3036 164.319 27.3036C155.747 27.3036 150.087 32.1067 150.087 38.6178C150.087 45.6626 157.053 48.5176 161.843 50.4389C164.564 51.5597 166.85 52.5203 166.85 54.0948C166.85 55.4555 165.435 56.5494 162.032 56.5494C159.011 56.5494 155.419 54.7351 153.732 53.2944C153.632 53.2117 153.508 53.1645 153.378 53.1606C152.562 53.1606 151.31 54.6018 150.194 56.0957C149.269 57.3499 148.398 58.604 148.398 59.4582C148.39 59.6537 148.459 59.8447 148.589 59.9915C151.501 63.2738 156.862 65.3553 162.032 65.3553M155.283 26.7693C154.257 27.2713 153.29 27.8856 152.401 28.6007C152.189 28.7726 151.984 28.9509 151.785 29.1321L116.929 15.5064V18.339C116.927 19.2604 116.556 20.1432 115.899 20.7934C115.242 21.4436 114.351 21.808 113.424 21.8064H65.1006C64.173 21.8079 63.2828 21.4434 62.6256 20.7933C61.9683 20.1431 61.5979 19.2603 61.5955 18.339V13.9079L32.8532 25.0649C31.5852 25.0432 30.3169 25.0874 29.0536 25.1972C28.1917 25.2949 25.903 25.5474 25.0219 27.4398L25.0071 27.4711L24.9939 27.5023L24.6748 28.2403L18.0702 30.8038C16.9471 31.2354 15.9549 31.947 15.1891 32.8701L13.6954 29.4265C14.6131 28.6381 15.6599 28.0116 16.7904 27.5741L61.5955 10.1812V3.46747C61.5977 2.54606 61.9682 1.66323 62.6254 1.01302C63.2827 0.362819 64.173 -0.00155039 65.1006 5.82488e-06H113.424C114.352 -0.00168001 115.242 0.362632 115.9 1.01285C116.557 1.66307 116.927 2.54598 116.93 3.46747V11.7757L155.283 26.7693ZM79.6529 15.4913C79.6529 14.7016 79.6529 13.9285 79.2306 13.9285L73.5155 13.9192V4.34117C73.5155 3.95584 72.7008 3.95584 71.8758 3.95584C71.0399 3.95584 70.2262 3.95584 70.2262 4.34117V16.7791C70.2256 16.849 70.2523 16.9165 70.3005 16.9673C70.3488 17.0182 70.415 17.0486 70.4853 17.0521H79.2213C79.6529 17.0521 79.6529 16.2707 79.6529 15.4893M84.4865 4.32994C84.4865 3.95389 83.6713 3.94461 82.8463 3.94461C82.0105 3.94461 81.1968 3.95389 81.1968 4.32994V16.7415C81.1968 17.1273 82.012 17.1366 82.8463 17.1366C83.6709 17.1366 84.4865 17.1273 84.4865 16.7415V4.32994ZM98.9858 4.2811C98.9858 3.92361 98.1426 3.92361 97.2979 3.92361C96.349 3.92361 95.4187 3.92361 95.2653 4.25277L92.3212 11.0593L89.3678 4.25668C89.2237 3.92752 88.2748 3.92752 87.3347 3.92752C86.4911 3.92752 85.6473 3.92752 85.6473 4.28501C85.6528 4.33819 85.6696 4.38961 85.6965 4.43591L91.7573 17.0711C91.8527 17.2587 92.1015 17.2665 92.3325 17.2665C92.5336 17.2665 92.7927 17.2567 92.898 17.0711L98.9469 4.42615C98.9688 4.38202 98.9818 4.33408 98.9853 4.28501M103.023 8.97633V7.16153H108.738C109.15 7.16153 109.16 6.38013 109.16 5.5919C109.16 4.8105 109.15 4.04082 108.738 4.04082L99.9922 4.0501C99.9577 4.05002 99.9235 4.05682 99.8917 4.07011C99.8598 4.08339 99.831 4.10288 99.8069 4.12742C99.7828 4.15197 99.7639 4.18107 99.7513 4.213C99.7387 4.24493 99.7327 4.27905 99.7336 4.31333V16.7791C99.733 16.8489 99.7595 16.9163 99.8077 16.9672C99.8559 17.018 99.922 17.0485 99.9922 17.0521H108.738C109.15 17.0521 109.16 16.2619 109.16 15.4893C109.16 14.6996 109.15 13.9197 108.728 13.9197L103.025 13.9289V11.7122H107.752C108.146 11.7122 108.155 11.0285 108.155 10.3394C108.155 9.66299 108.146 8.97633 107.752 8.97633H103.023Z" fill="white"/>
</svg>
