<svg width="248" height="26" viewBox="0 0 248 26" fill="none" xmlns="http://www.w3.org/2000/svg">
<path d="M26.9341 12.75C26.9341 19.715 21.4391 25.42 13.8791 25.42C6.31906 25.42 0.894063 19.785 0.894063 12.82V12.75C0.894063 5.785 6.38906 0.0799996 13.9491 0.0799996C21.5091 0.0799996 26.9341 5.715 26.9341 12.68V12.75ZM21.2991 12.82V12.75C21.2991 8.55 18.2191 5.05 13.8791 5.05C9.53906 5.05 6.52906 8.48 6.52906 12.68V12.75C6.52906 16.95 9.60906 20.45 13.9491 20.45C18.2891 20.45 21.2991 17.02 21.2991 12.82ZM54.0131 25H48.3781L46.1381 19.505H35.7781L33.5381 25H28.0431L38.5431 0.324998H43.5131L54.0131 25ZM44.2131 14.745L40.9581 6.8L37.7031 14.745H44.2131ZM75.1627 17.755C75.1627 22.62 71.4527 25.35 66.1677 25.35C62.4577 25.35 58.7127 24.055 55.7727 21.43L58.9577 17.615C61.1627 19.435 63.4727 20.59 66.2727 20.59C68.4777 20.59 69.8077 19.715 69.8077 18.28V18.21C69.8077 16.845 68.9677 16.145 64.8727 15.095C59.9377 13.835 56.7527 12.47 56.7527 7.605V7.535C56.7527 3.09 60.3227 0.149999 65.3277 0.149999C68.8977 0.149999 71.9427 1.27 74.4277 3.265L71.6277 7.325C69.4577 5.82 67.3227 4.91 65.2577 4.91C63.1927 4.91 62.1077 5.855 62.1077 7.045V7.115C62.1077 8.725 63.1577 9.25 67.3927 10.335C72.3627 11.63 75.1627 13.415 75.1627 17.685V17.755ZM85.4754 25H80.0854V0.499998H85.4754V25ZM109.308 17.755C109.308 22.62 105.598 25.35 100.313 25.35C96.6032 25.35 92.8582 24.055 89.9182 21.43L93.1032 17.615C95.3082 19.435 97.6182 20.59 100.418 20.59C102.623 20.59 103.953 19.715 103.953 18.28V18.21C103.953 16.845 103.113 16.145 99.0182 15.095C94.0832 13.835 90.8982 12.47 90.8982 7.605V7.535C90.8982 3.09 94.4682 0.149999 99.4732 0.149999C103.043 0.149999 106.088 1.27 108.573 3.265L105.773 7.325C103.603 5.82 101.468 4.91 99.4032 4.91C97.3382 4.91 96.2532 5.855 96.2532 7.045V7.115C96.2532 8.725 97.3032 9.25 101.538 10.335C106.508 11.63 109.308 13.415 109.308 17.685V17.755ZM143.869 9.04C143.869 14.71 139.459 17.65 133.964 17.65H129.869V25H124.479V0.499998H134.489C140.334 0.499998 143.869 3.965 143.869 8.97V9.04ZM138.409 9.145V9.075C138.409 6.66 136.729 5.365 134.034 5.365H129.869V12.855H134.139C136.834 12.855 138.409 11.245 138.409 9.145ZM172.813 12.75C172.813 19.715 167.318 25.42 159.758 25.42C152.198 25.42 146.773 19.785 146.773 12.82V12.75C146.773 5.785 152.268 0.0799996 159.828 0.0799996C167.388 0.0799996 172.813 5.715 172.813 12.68V12.75ZM167.178 12.82V12.75C167.178 8.55 164.098 5.05 159.758 5.05C155.418 5.05 152.408 8.48 152.408 12.68V12.75C152.408 16.95 155.488 20.45 159.828 20.45C164.168 20.45 167.178 17.02 167.178 12.82ZM199.889 25H193.414L185.819 14.57L182.984 17.51V25H177.594V0.499998H182.984V11.21L192.924 0.499998H199.434L189.459 10.895L199.889 25ZM221.816 25H203.161V0.499998H221.641V5.295H208.516V10.265H220.066V15.06H208.516V20.205H221.816V25ZM247.783 25H241.483L236.233 17.16H231.998V25H226.608V0.499998H237.808C243.583 0.499998 247.048 3.545 247.048 8.585V8.655C247.048 12.61 244.913 15.095 241.798 16.25L247.783 25ZM241.588 8.935V8.865C241.588 6.555 239.978 5.365 237.353 5.365H231.998V12.4H237.458C240.083 12.4 241.588 11 241.588 8.935Z" fill="url(#paint0_linear_23_719)"/>
<defs>
<linearGradient id="paint0_linear_23_719" x1="124" y1="-9" x2="123.805" y2="32.0005" gradientUnits="userSpaceOnUse">
<stop stop-color="#BEA54B"/>
<stop offset="0.65625" stop-color="#FBEBB3"/>
<stop offset="1" stop-color="#BEA54B"/>
</linearGradient>
</defs>
</svg>
