<svg width="188" height="52" viewBox="0 0 188 52" fill="none" xmlns="http://www.w3.org/2000/svg">
<path d="M7.7875 51.96C6.8275 51.96 5.81417 51.8 4.7475 51.48C3.68083 51.16 2.77417 50.5733 2.0275 49.72C1.2275 48.92 0.8275 47.8267 0.8275 46.44C0.8275 45.6933 1.09417 44.8933 1.6275 44.04C2.1075 43.1333 2.7475 42.6533 3.5475 42.6C3.33417 42.8133 3.17417 43.16 3.0675 43.64C3.01417 44.12 2.9875 44.5467 2.9875 44.92C3.04083 45.8267 3.44083 46.6 4.1875 47.24C4.93417 47.88 6.1075 48.2 7.7075 48.2C9.73417 48.2 11.8408 47.6133 14.0275 46.44C16.2675 45.2133 18.5075 43.6133 20.7475 41.64C23.0408 39.6133 25.2542 37.3733 27.3875 34.92C29.5742 32.4667 31.5742 29.9867 33.3875 27.48C35.0942 25.08 37.0942 22.4133 39.3875 19.48C41.6808 16.5467 44.1608 13.6933 46.8275 10.92C49.4942 8.14667 52.2142 5.85333 54.9875 4.04C53.7075 3.29333 52.1342 2.70666 50.2675 2.28C48.4008 1.8 46.1875 1.56 43.6275 1.56C39.8942 1.56 36.4008 2.09333 33.1475 3.16C29.8942 4.22666 26.9342 5.64 24.2675 7.4C21.6008 9.16 19.2808 11.1067 17.3075 13.24C15.3875 15.32 13.8942 17.4533 12.8275 19.64C11.8142 21.7733 11.3075 23.7467 11.3075 25.56C11.3075 27.32 11.8408 28.8133 12.9075 30.04C14.0275 31.2133 15.8142 31.9067 18.2675 32.12C18.5875 32.12 18.7475 32.2 18.7475 32.36C18.7475 32.5733 18.5075 32.6533 18.0275 32.6C14.8275 32.3333 12.4542 31.4267 10.9075 29.88C9.41417 28.28 8.6675 26.3333 8.6675 24.04C8.6675 21.64 9.44083 19.1067 10.9875 16.44C12.5875 13.72 14.8808 11.16 17.8675 8.76C20.8542 6.30666 24.4808 4.33333 28.7475 2.84C33.0675 1.29333 37.9208 0.52 43.3075 0.52C46.2408 0.52 48.8008 0.76 50.9875 1.24C53.1742 1.72 55.0408 2.33333 56.5875 3.08C59.5208 1.32 62.3742 0.439996 65.1475 0.439996C66.5342 0.439996 67.8675 0.813329 69.1475 1.56C70.4808 2.25333 71.1475 3.58666 71.1475 5.56C70.8275 4.70666 70.0275 3.90667 68.7475 3.16C67.5208 2.36 66.0808 1.96 64.4275 1.96C63.3075 1.96 62.1875 2.12 61.0675 2.44C59.9475 2.76 58.8542 3.21333 57.7875 3.8C59.6542 4.97333 61.0142 6.33333 61.8675 7.88C62.7208 9.42667 63.1475 11.0267 63.1475 12.68C63.1475 14.8667 62.4008 17 60.9075 19.08C59.4142 21.16 57.4408 22.8667 54.9875 24.2C52.5342 25.48 49.8408 26.12 46.9075 26.12C46.9608 26.3333 46.9875 26.5467 46.9875 26.76C46.9875 26.9733 46.9875 27.2133 46.9875 27.48C46.9875 29.0267 46.7475 31 46.2675 33.4C46.1608 34.0933 45.9742 35.1867 45.7075 36.68C45.4942 38.1733 45.3875 39.6933 45.3875 41.24C45.3875 43.0533 45.6275 44.6533 46.1075 46.04C46.6408 47.4267 47.6275 48.12 49.0675 48.12C50.4008 48.12 51.7608 47.64 53.1475 46.68C54.5342 45.6667 55.8142 44.52 56.9875 43.24C58.2142 41.96 59.1742 40.92 59.8675 40.12C60.0808 40.12 60.1875 40.28 60.1875 40.6C60.1875 41.08 60.0808 41.4533 59.8675 41.72C57.4142 44.6 55.1475 46.7333 53.0675 48.12C50.9875 49.4533 48.6942 50.12 46.1875 50.12C44.9608 50.12 43.8408 49.72 42.8275 48.92C41.8142 48.0667 41.3075 46.44 41.3075 44.04C41.3075 42.7067 41.5475 41.24 42.0275 39.64C42.5075 37.9867 43.0408 36.3333 43.6275 34.68C44.2675 33.0267 44.8275 31.5333 45.3075 30.2C45.7875 28.8133 46.0275 27.7467 46.0275 27C46.0275 26.5733 45.9742 26.3067 45.8675 26.2C45.1742 26.0933 44.6408 25.88 44.2675 25.56C43.9475 25.1867 43.7875 24.84 43.7875 24.52C43.7875 24.0933 44.0542 23.88 44.5875 23.88C45.7608 23.88 46.5075 24.4667 46.8275 25.64C48.4275 25.48 50.0008 24.9467 51.5475 24.04C53.0942 23.08 54.4542 21.9333 55.6275 20.6C56.8542 19.2133 57.8142 17.7467 58.5075 16.2C59.2542 14.6533 59.6275 13.16 59.6275 11.72C59.6275 10.44 59.3342 9.21333 58.7475 8.04C58.1608 6.81333 57.2542 5.72 56.0275 4.76C53.9475 6.09333 51.8942 7.8 49.8675 9.88C47.8942 11.9067 45.9742 14.0933 44.1075 16.44C42.2942 18.7333 40.5875 21 38.9875 23.24C37.3875 25.48 35.9475 27.5067 34.6675 29.32C32.8008 31.88 30.8808 34.4933 28.9075 37.16C26.9342 39.8267 24.8542 42.28 22.6675 44.52C20.4808 46.76 18.1608 48.5467 15.7075 49.88C13.2542 51.2667 10.6142 51.96 7.7875 51.96ZM62.9638 49.4C61.4171 49.4 60.3238 49.0267 59.6837 48.28C58.9904 47.48 58.6437 46.4933 58.6437 45.32C58.6437 43.8267 59.0704 42.0667 59.9238 40.04C60.8304 38.0133 62.0304 35.96 63.5238 33.88C65.0171 31.8 66.6971 29.88 68.5638 28.12C70.4304 26.3067 72.3238 24.8667 74.2438 23.8C76.2171 22.68 78.1104 22.12 79.9238 22.12C81.2571 22.12 82.2171 22.4667 82.8038 23.16C83.3904 23.8533 83.6838 24.76 83.6838 25.88C83.6838 27.3733 83.2571 29.16 82.4038 31.24C81.5504 33.2667 80.3771 35.3467 78.8838 37.48C77.4438 39.56 75.8171 41.5067 74.0038 43.32C72.2438 45.1333 70.4038 46.6 68.4838 47.72C66.5638 48.84 64.7238 49.4 62.9638 49.4ZM63.9238 47.88C65.0438 47.88 66.3771 47.32 67.9238 46.2C69.5238 45.0267 71.1504 43.5333 72.8038 41.72C74.4571 39.9067 75.9771 37.9867 77.3638 35.96C78.8038 33.88 79.9504 31.9333 80.8038 30.12C81.7104 28.2533 82.1638 26.7333 82.1638 25.56C82.1638 24.28 81.5504 23.64 80.3238 23.64C79.3104 23.64 78.0304 24.2533 76.4838 25.48C74.9904 26.6533 73.4171 28.1733 71.7638 30.04C70.1638 31.9067 68.6438 33.88 67.2038 35.96C65.7638 38.04 64.5904 40.0133 63.6838 41.88C62.8304 43.7467 62.4038 45.2133 62.4038 46.28C62.4038 47.3467 62.9104 47.88 63.9238 47.88ZM82.2288 49C80.9488 49 80.0421 48.7067 79.5087 48.12C78.9754 47.5333 78.7087 46.7867 78.7087 45.88C78.7087 44.9733 78.9221 43.9867 79.3487 42.92C79.7221 41.8 80.2021 40.7067 80.7888 39.64C81.8021 37.9333 82.9488 36.2267 84.2288 34.52C85.5621 32.76 86.8954 31.1333 88.2288 29.64C89.6154 28.1467 90.8421 26.8667 91.9088 25.8C92.9221 24.7867 93.9621 24.04 95.0288 23.56C96.0954 23.08 97.0021 22.76 97.7488 22.6C98.5488 22.3867 98.9488 22.28 98.9488 22.28C97.7754 23.6133 96.1754 25.5067 94.1488 27.96C92.1754 30.4133 90.1754 33.0267 88.1488 35.8C87.9354 36.0667 87.5354 36.6267 86.9488 37.48C86.4154 38.3333 85.8288 39.2933 85.1888 40.36C84.5488 41.3733 83.9888 42.3867 83.5088 43.4C83.0821 44.36 82.8688 45.1333 82.8688 45.72C82.8688 46.3067 83.1888 46.5733 83.8288 46.52C84.5221 46.4667 85.4288 45.96 86.5488 45C87.6688 44.04 88.8688 42.8667 90.1488 41.48C91.4288 40.0933 92.6288 38.7333 93.7488 37.4C94.9221 36.0133 95.8821 34.8667 96.6288 33.96C97.2154 33.2667 97.9354 32.4133 98.7888 31.4C99.6421 30.3333 100.522 29.24 101.429 28.12C102.335 27 103.162 26.0133 103.909 25.16C104.762 24.2 105.669 23.5333 106.629 23.16C107.589 22.7333 108.415 22.4933 109.109 22.44C109.855 22.3333 110.229 22.28 110.229 22.28C109.802 22.8133 108.949 23.8533 107.669 25.4C106.442 26.9467 105.055 28.7867 103.509 30.92C101.962 33 100.495 35.1867 99.1088 37.48C97.7221 39.72 96.6554 41.8533 95.9088 43.88C95.5354 44.7867 95.3488 45.5333 95.3488 46.12C95.3488 46.6533 95.4821 47.0267 95.7488 47.24C96.0154 47.4 96.3088 47.48 96.6288 47.48C97.3754 47.48 98.2021 47.16 99.1088 46.52C100.069 45.88 100.975 45.1333 101.829 44.28C102.735 43.3733 103.535 42.52 104.229 41.72C104.922 40.92 105.375 40.3867 105.589 40.12C105.802 40.12 105.909 40.28 105.909 40.6C105.909 41.08 105.802 41.4533 105.589 41.72C104.789 42.68 103.802 43.72 102.629 44.84C101.509 45.96 100.309 46.9467 99.0288 47.8C97.8021 48.6 96.5754 49 95.3488 49C94.0154 49 93.0821 48.68 92.5488 48.04C92.0154 47.4 91.7488 46.6 91.7488 45.64C91.7488 44.7333 91.9354 43.7467 92.3088 42.68C92.6821 41.56 93.1354 40.52 93.6688 39.56C93.0288 40.2 92.2554 41.0533 91.3488 42.12C90.4954 43.1333 89.5354 44.1733 88.4688 45.24C87.4021 46.3067 86.3354 47.2133 85.2688 47.96C84.2021 48.6533 83.1888 49 82.2288 49ZM107.865 49.24C105.198 49.24 103.865 48.0133 103.865 45.56C103.865 44.76 104.052 43.8267 104.425 42.76C104.798 41.6933 105.492 40.28 106.505 38.52C107.892 36.12 109.838 33.2933 112.345 30.04C114.905 26.7867 117.625 23.6133 120.505 20.52C123.012 17.6933 125.732 15.1067 128.665 12.76C131.652 10.36 134.745 8.70666 137.945 7.8C138.425 7.64 138.985 7.50667 139.625 7.4C140.265 7.29333 140.932 7.24 141.625 7.24C142.905 7.24 143.998 7.42666 144.905 7.8C145.332 8.01333 145.758 8.30666 146.185 8.68C146.612 9 146.905 9.48 147.065 10.12C146.478 9.64 145.812 9.29333 145.065 9.08C144.318 8.81333 143.412 8.68 142.345 8.68C139.572 8.68 136.905 9.58667 134.345 11.4C131.785 13.2133 129.225 15.56 126.665 18.44C124.158 21.2667 121.518 24.28 118.745 27.48C117.678 28.7067 116.505 30.2267 115.225 32.04C113.945 33.8533 112.718 35.6667 111.545 37.48C110.425 39.2933 109.518 40.84 108.825 42.12C108.452 42.7067 108.158 43.3467 107.945 44.04C107.785 44.68 107.705 45.2133 107.705 45.64C107.705 46.92 108.185 47.56 109.145 47.56C110.158 47.56 111.278 47.08 112.505 46.12C113.785 45.16 114.985 44.0933 116.105 42.92C117.278 41.7467 118.158 40.8133 118.745 40.12C118.958 40.12 119.065 40.28 119.065 40.6C119.065 41.08 118.958 41.4533 118.745 41.72C116.612 44.1733 114.638 46.04 112.825 47.32C111.065 48.6 109.412 49.24 107.865 49.24ZM124.83 49.56C122.377 49.56 120.643 49.0267 119.63 47.96C118.617 46.8933 118.11 45.4533 118.11 43.64C118.11 41.88 118.59 40.04 119.55 38.12C120.563 36.1467 121.817 34.28 123.31 32.52C124.217 31.4533 125.337 30.3333 126.67 29.16C128.003 27.9867 129.443 26.8933 130.99 25.88C132.537 24.8133 134.057 23.96 135.55 23.32C137.097 22.6267 138.457 22.28 139.63 22.28C140.27 22.28 140.857 22.44 141.39 22.76C141.923 23.0267 142.19 23.64 142.19 24.6C142.19 25.9333 141.55 27.2133 140.27 28.44C138.99 29.6133 137.55 30.7067 135.95 31.72C134.137 32.8933 132.243 33.88 130.27 34.68C128.297 35.48 126.59 36.0933 125.15 36.52C124.35 37.8 123.71 39.1067 123.23 40.44C122.75 41.7733 122.51 43.08 122.51 44.36C122.51 45.7467 122.83 46.7067 123.47 47.24C124.163 47.72 124.963 47.96 125.87 47.96C127.523 47.96 129.017 47.5867 130.35 46.84C131.737 46.04 133.017 45.0267 134.19 43.8C135.363 42.5733 136.483 41.3467 137.55 40.12C137.763 40.12 137.87 40.28 137.87 40.6C137.87 41.08 137.763 41.4533 137.55 41.72C136.483 42.9467 135.31 44.1733 134.03 45.4C132.803 46.6267 131.443 47.64 129.95 48.44C128.457 49.1867 126.75 49.56 124.83 49.56ZM126.11 35.4C127.497 34.92 129.123 34.2533 130.99 33.4C132.91 32.5467 134.59 31.6133 136.03 30.6C136.35 30.3867 136.91 29.96 137.71 29.32C138.51 28.6267 139.257 27.88 139.95 27.08C140.643 26.2267 140.99 25.48 140.99 24.84C140.99 23.9867 140.563 23.56 139.71 23.56C138.803 23.56 137.763 23.96 136.59 24.76C135.47 25.56 134.563 26.2533 133.87 26.84C132.59 28.0133 131.257 29.32 129.87 30.76C128.483 32.2 127.23 33.7467 126.11 35.4ZM139.418 49.32C138.085 49.32 137.151 49 136.618 48.36C136.085 47.72 135.818 46.8933 135.818 45.88C135.818 44.12 136.458 42.12 137.738 39.88C138.485 38.6 139.498 37.1333 140.778 35.48C142.111 33.7733 143.605 31.9867 145.258 30.12C146.911 28.2 148.565 26.3333 150.218 24.52H144.858L145.738 23.4H151.258C152.751 21.8533 154.138 20.4133 155.418 19.08C156.751 17.6933 157.845 16.5733 158.698 15.72C161.045 13.3733 163.205 11.5867 165.178 10.36C167.205 9.13333 168.805 8.52 169.978 8.52C169.125 9.26666 167.871 10.44 166.218 12.04C164.618 13.64 162.831 15.4267 160.858 17.4C158.938 19.3733 157.045 21.3733 155.178 23.4H160.698L159.818 24.52H154.218C153.205 25.6933 152.245 26.7867 151.338 27.8C150.485 28.8133 149.738 29.7733 149.098 30.68C146.591 34.0933 144.565 36.8933 143.018 39.08C141.471 41.2667 140.458 42.92 139.978 44.04C139.605 44.9467 139.418 45.6933 139.418 46.28C139.418 47.2933 139.898 47.8 140.858 47.8C141.658 47.8 142.511 47.5333 143.418 47C144.751 46.2533 146.085 45.1867 147.418 43.8C148.805 42.36 149.925 41.1333 150.778 40.12C150.991 40.12 151.098 40.28 151.098 40.6C151.098 41.08 150.991 41.4533 150.778 41.72C148.751 44.0667 146.858 45.9333 145.098 47.32C143.338 48.6533 141.445 49.32 139.418 49.32ZM152.621 49.32C151.288 49.32 150.355 49 149.821 48.36C149.288 47.72 149.021 46.8933 149.021 45.88C149.021 44.12 149.661 42.12 150.941 39.88C151.688 38.6 152.701 37.1333 153.981 35.48C155.315 33.7733 156.808 31.9867 158.461 30.12C160.115 28.2 161.768 26.3333 163.421 24.52H158.061L158.941 23.4H164.461C165.955 21.8533 167.341 20.4133 168.621 19.08C169.955 17.6933 171.048 16.5733 171.901 15.72C174.248 13.3733 176.408 11.5867 178.381 10.36C180.408 9.13333 182.008 8.52 183.181 8.52C182.328 9.26666 181.075 10.44 179.421 12.04C177.821 13.64 176.035 15.4267 174.061 17.4C172.141 19.3733 170.248 21.3733 168.381 23.4H173.901L173.021 24.52H167.421C166.408 25.6933 165.448 26.7867 164.541 27.8C163.688 28.8133 162.941 29.7733 162.301 30.68C159.795 34.0933 157.768 36.8933 156.221 39.08C154.675 41.2667 153.661 42.92 153.181 44.04C152.808 44.9467 152.621 45.6933 152.621 46.28C152.621 47.2933 153.101 47.8 154.061 47.8C154.861 47.8 155.715 47.5333 156.621 47C157.955 46.2533 159.288 45.1867 160.621 43.8C162.008 42.36 163.128 41.1333 163.981 40.12C164.195 40.12 164.301 40.28 164.301 40.6C164.301 41.08 164.195 41.4533 163.981 41.72C161.955 44.0667 160.061 45.9333 158.301 47.32C156.541 48.6533 154.648 49.32 152.621 49.32ZM170.064 49.56C167.611 49.56 165.878 49.0267 164.864 47.96C163.851 46.8933 163.344 45.4533 163.344 43.64C163.344 41.88 163.824 40.04 164.784 38.12C165.798 36.1467 167.051 34.28 168.544 32.52C169.451 31.4533 170.571 30.3333 171.904 29.16C173.238 27.9867 174.678 26.8933 176.224 25.88C177.771 24.8133 179.291 23.96 180.784 23.32C182.331 22.6267 183.691 22.28 184.864 22.28C185.504 22.28 186.091 22.44 186.624 22.76C187.158 23.0267 187.424 23.64 187.424 24.6C187.424 25.9333 186.784 27.2133 185.504 28.44C184.224 29.6133 182.784 30.7067 181.184 31.72C179.371 32.8933 177.478 33.88 175.504 34.68C173.531 35.48 171.824 36.0933 170.384 36.52C169.584 37.8 168.944 39.1067 168.464 40.44C167.984 41.7733 167.744 43.08 167.744 44.36C167.744 45.7467 168.064 46.7067 168.704 47.24C169.398 47.72 170.198 47.96 171.104 47.96C172.758 47.96 174.251 47.5867 175.584 46.84C176.971 46.04 178.251 45.0267 179.424 43.8C180.598 42.5733 181.718 41.3467 182.784 40.12C182.998 40.12 183.104 40.28 183.104 40.6C183.104 41.08 182.998 41.4533 182.784 41.72C181.718 42.9467 180.544 44.1733 179.264 45.4C178.038 46.6267 176.678 47.64 175.184 48.44C173.691 49.1867 171.984 49.56 170.064 49.56ZM171.344 35.4C172.731 34.92 174.358 34.2533 176.224 33.4C178.144 32.5467 179.824 31.6133 181.264 30.6C181.584 30.3867 182.144 29.96 182.944 29.32C183.744 28.6267 184.491 27.88 185.184 27.08C185.878 26.2267 186.224 25.48 186.224 24.84C186.224 23.9867 185.798 23.56 184.944 23.56C184.038 23.56 182.998 23.96 181.824 24.76C180.704 25.56 179.798 26.2533 179.104 26.84C177.824 28.0133 176.491 29.32 175.104 30.76C173.718 32.2 172.464 33.7467 171.344 35.4Z" fill="url(#paint0_linear_23_654)"/>
<defs>
<linearGradient id="paint0_linear_23_654" x1="92.5" y1="-27" x2="90.492" y2="84.968" gradientUnits="userSpaceOnUse">
<stop stop-color="#BEA54B"/>
<stop offset="0.65625" stop-color="#FBEBB3"/>
<stop offset="1" stop-color="#BEA54B"/>
</linearGradient>
</defs>
</svg>
