<?xml version="1.0" standalone="no"?>
<!DOCTYPE svg PUBLIC "-//W3C//DTD SVG 20010904//EN"
 "http://www.w3.org/TR/2001/REC-SVG-20010904/DTD/svg10.dtd">
<svg version="1.0" xmlns="http://www.w3.org/2000/svg"
 width="1920.000000pt" height="1080.000000pt" viewBox="0 0 1920.000000 1080.000000"
 preserveAspectRatio="xMidYMid meet">

<g transform="translate(0.000000,1080.000000) scale(0.100000,-0.100000)"
fill="#ffffff" stroke="none">
<path d="M190 6575 l195 -195 395 0 395 0 195 195 195 195 -785 0 -785 0 195
-195z"/>
<path d="M2150 6575 l195 -195 395 0 395 0 195 195 195 195 -785 0 -785 0 195
-195z"/>
<path d="M1960 5125 l0 -1100 195 195 195 195 0 710 0 710 -195 195 -195 195
0 -1100z"/>
<path d="M1367 6022 l-187 -187 0 -710 0 -710 195 -195 195 -195 0 1093 c0
600 -3 1092 -8 1092 -4 0 -92 -84 -195 -188z"/>
<path d="M7615 5829 c-296 -33 -540 -180 -647 -392 -91 -181 -94 -476 -7 -649
83 -165 222 -283 416 -352 110 -39 230 -56 396 -56 228 0 392 40 562 138 55
32 225 190 225 209 0 4 -77 47 -172 95 l-171 87 -61 -63 c-104 -107 -239 -153
-412 -142 -270 18 -421 149 -432 378 -6 126 20 207 92 286 96 103 229 148 411
139 161 -8 278 -62 357 -165 l31 -40 174 86 c95 48 173 92 173 98 0 6 -27 41
-60 77 -192 209 -510 306 -875 266z"/>
<path d="M3525 5758 c-3 -18 -5 -89 -3 -158 l3 -125 288 -3 287 -2 0 -525 0
-525 205 0 205 0 0 525 0 525 290 0 290 0 0 160 0 160 -780 0 -779 0 -6 -32z"/>
<path d="M5260 5105 l0 -685 745 0 745 0 0 155 0 155 -544 0 -544 0 1 118 2
117 438 3 437 2 0 145 0 145 -437 2 -438 3 0 110 0 110 533 3 532 2 0 150 0
150 -735 0 -735 0 0 -685z"/>
<path d="M8760 5105 l0 -685 200 0 200 0 0 265 0 265 420 0 420 0 0 -265 0
-265 205 0 205 0 0 685 0 685 -205 0 -205 0 0 -255 0 -255 -417 2 c-326 2
-418 6 -419 16 -1 6 -2 120 -3 252 l-1 240 -200 0 -200 0 0 -685z"/>
<path d="M10730 5105 l0 -685 195 0 195 0 0 447 0 448 448 -448 447 -447 183
0 182 0 0 685 0 685 -200 0 -200 0 -2 -412 -3 -413 -405 412 -405 412 -217 1
-218 0 0 -685z"/>
<path d="M13134 5563 c-65 -125 -146 -279 -180 -343 -33 -63 -93 -178 -134
-255 -40 -77 -120 -228 -176 -336 -57 -109 -104 -200 -104 -203 0 -3 96 -6
213 -6 l213 0 64 130 64 130 381 0 381 0 64 -130 64 -130 219 0 218 0 -85 163
c-47 89 -208 396 -358 682 l-273 520 -226 3 -226 2 -119 -227z m345 -591
c-128 -1 -234 -1 -236 2 -2 2 49 110 114 240 l118 237 118 -238 117 -238 -231
-3z"/>
<path d="M14580 5105 l0 -685 195 0 195 0 0 430 c0 237 3 430 8 429 4 0 126
-145 272 -322 146 -177 273 -323 282 -325 15 -3 184 194 482 560 39 48 74 87
79 87 4 1 7 -193 7 -429 l0 -430 203 2 c111 2 201 6 200 11 -2 4 -3 311 -3
682 l0 675 -217 0 -218 -1 -255 -320 c-140 -177 -258 -323 -262 -325 -3 -2
-122 142 -264 321 l-258 325 -223 0 -223 0 0 -685z"/>
<path d="M16830 5121 c0 -368 -3 -676 -6 -685 -5 -14 16 -16 199 -16 164 0
206 3 210 14 7 17 6 1268 0 1319 l-5 37 -199 0 -199 0 0 -669z"/>
<path d="M17550 5105 l0 -685 195 0 195 0 0 445 c0 245 3 445 8 445 4 0 207
-200 452 -445 l445 -445 177 0 178 0 0 685 0 685 -195 0 -195 0 0 -417 -1
-418 -412 418 -412 418 -217 -1 -218 0 0 -685z"/>
</g>
</svg>
