<svg width="203" height="86" viewBox="0 0 203 86" fill="none" xmlns="http://www.w3.org/2000/svg">
<path d="M36.6769 29V26.56H37.9569C38.4635 26.56 38.9035 26.5067 39.2769 26.4C39.6502 26.2667 39.9302 26.0267 40.1169 25.68C40.3302 25.3067 40.4369 24.7467 40.4369 24V3.2H37.7169C36.9169 3.2 36.2902 3.29333 35.8369 3.48C35.3835 3.64 35.0502 3.90667 34.8369 4.28C34.6235 4.65333 34.4769 5.13333 34.3969 5.72L34.0369 8.76H30.9169L31.1169 0.439998H57.7969L57.9969 8.76H54.8769L54.5569 5.72C54.5035 5.13333 54.3569 4.65333 54.1169 4.28C53.9035 3.90667 53.5702 3.64 53.1169 3.48C52.6635 3.29333 52.0369 3.2 51.2369 3.2H48.5169V24.16C48.5169 24.8533 48.6235 25.3733 48.8369 25.72C49.0502 26.0667 49.3435 26.2933 49.7169 26.4C50.0902 26.5067 50.5169 26.56 50.9969 26.56H52.2769V29H36.6769ZM58.9025 29V26.56H60.9425C61.3158 26.56 61.6225 26.48 61.8625 26.32C62.1025 26.1333 62.2758 25.8933 62.3825 25.6C62.5158 25.3067 62.5825 24.9733 62.5825 24.6V5.04C62.5825 4.4 62.5025 3.93333 62.3425 3.64C62.1825 3.32 61.9692 3.12 61.7025 3.04C61.4358 2.93333 61.1558 2.88 60.8625 2.88H58.9025V0.439998H82.6225L82.7425 8.08H79.4225L79.2225 6.08C79.1692 5.36 79.0492 4.8 78.8625 4.4C78.6758 3.97333 78.3958 3.66667 78.0225 3.48C77.6758 3.29333 77.1825 3.2 76.5425 3.2H70.5425V12.72H79.9825V15.44H70.5425V26.24H77.7025C78.2892 26.24 78.7692 26.12 79.1425 25.88C79.5158 25.64 79.8092 25.3067 80.0225 24.88C80.2625 24.4533 80.4225 23.9467 80.5025 23.36L80.8225 21.36H84.1025L83.8225 29H58.9025ZM85.4947 29V26.56H85.7347C86.3747 26.56 86.9347 26.4267 87.4147 26.16C87.8947 25.8933 88.3214 25.5467 88.6947 25.12C89.0947 24.6933 89.4947 24.24 89.8947 23.76L97.1347 14.96L90.5347 5C90.2414 4.54667 89.9614 4.17333 89.6947 3.88C89.4547 3.56 89.1347 3.32 88.7347 3.16C88.3347 2.97333 87.788 2.88 87.0947 2.88H86.5747V0.439998H101.575V2.88H101.335C100.428 2.88 99.8147 3.01333 99.4947 3.28C99.2014 3.54667 99.0547 3.84 99.0547 4.16C99.0547 4.42667 99.1614 4.77333 99.3747 5.2C99.6147 5.62666 99.868 6.02667 100.135 6.4L103.255 10.72L106.495 6.48C106.708 6.18667 106.948 5.8 107.215 5.32C107.508 4.81333 107.655 4.38667 107.655 4.04C107.655 3.56 107.428 3.25333 106.975 3.12C106.548 2.96 106.028 2.88 105.415 2.88H105.215V0.439998H115.015V2.88H114.655C114.148 2.88 113.695 2.97333 113.295 3.16C112.895 3.34666 112.495 3.65333 112.095 4.08C111.695 4.48 111.228 5.04 110.695 5.76L104.895 13.36L112.255 24.44C112.628 24.9733 112.988 25.4 113.335 25.72C113.708 26.0133 114.068 26.2267 114.415 26.36C114.788 26.4933 115.135 26.56 115.455 26.56H115.975V29H101.015V26.56H101.215C102.015 26.56 102.615 26.4533 103.015 26.24C103.415 26 103.615 25.6667 103.615 25.24C103.615 24.9467 103.548 24.6267 103.415 24.28C103.281 23.9067 102.908 23.3067 102.295 22.48L98.8147 17.52L94.5747 22.8C94.4147 23.0133 94.2547 23.2533 94.0947 23.52C93.9347 23.76 93.8014 24.0133 93.6947 24.28C93.588 24.5467 93.5347 24.8267 93.5347 25.12C93.5347 25.5467 93.6947 25.8933 94.0147 26.16C94.3347 26.4267 94.9347 26.56 95.8147 26.56H95.9747V29H85.4947ZM116.741 29V26.56H117.021C117.474 26.56 117.901 26.4933 118.301 26.36C118.701 26.2 119.074 25.92 119.421 25.52C119.768 25.12 120.074 24.5467 120.341 23.8L128.861 0.439998H136.101L144.261 23.88C144.501 24.4933 144.781 25 145.101 25.4C145.421 25.8 145.781 26.0933 146.181 26.28C146.608 26.4667 147.061 26.56 147.541 26.56H147.981V29H133.181V26.56H134.781C135.208 26.56 135.594 26.48 135.941 26.32C136.288 26.16 136.461 25.8267 136.461 25.32C136.461 25.0533 136.434 24.8 136.381 24.56C136.328 24.2933 136.261 24.0533 136.181 23.84C136.128 23.6267 136.074 23.4667 136.021 23.36L134.781 19.72H125.661L124.741 22.6C124.688 22.8133 124.608 23.08 124.501 23.4C124.421 23.72 124.341 24.0533 124.261 24.4C124.208 24.72 124.181 25.0133 124.181 25.28C124.181 25.68 124.288 26 124.501 26.24C124.714 26.4533 125.101 26.56 125.661 26.56H127.621V29H116.741ZM126.541 16.96H133.901L131.621 9.32C131.488 8.84 131.341 8.36 131.181 7.88C131.048 7.37333 130.914 6.85333 130.781 6.32C130.648 5.76 130.528 5.18667 130.421 4.6C130.314 5.02667 130.194 5.45333 130.061 5.88C129.954 6.28 129.848 6.68 129.741 7.08C129.634 7.48 129.514 7.86666 129.381 8.24C129.274 8.58666 129.168 8.93333 129.061 9.28L126.541 16.96ZM159.344 29.4C157.184 29.4 155.424 29.2133 154.064 28.84C152.704 28.4667 151.651 27.9867 150.904 27.4C150.158 26.8133 149.638 26.2 149.344 25.56C149.078 24.92 148.944 24.3467 148.944 23.84C148.944 22.64 149.198 21.72 149.704 21.08C150.238 20.44 150.904 20 151.704 19.76C152.504 19.4933 153.358 19.36 154.264 19.36C154.264 21.1733 154.558 22.6133 155.144 23.68C155.758 24.7467 156.518 25.52 157.424 26C158.358 26.4533 159.291 26.68 160.224 26.68C161.638 26.68 162.718 26.28 163.464 25.48C164.238 24.6533 164.624 23.7867 164.624 22.88C164.624 22.0267 164.331 21.2933 163.744 20.68C163.184 20.0667 162.371 19.4933 161.304 18.96C160.264 18.4267 159.024 17.8667 157.584 17.28C156.064 16.6667 154.798 16.0267 153.784 15.36C152.798 14.6667 152.011 13.9467 151.424 13.2C150.838 12.4533 150.424 11.6667 150.184 10.84C149.944 10.0133 149.824 9.16 149.824 8.28C149.824 6.57333 150.291 5.10667 151.224 3.88C152.184 2.65333 153.478 1.70667 155.104 1.04C156.731 0.373332 158.558 0.0399985 160.584 0.0399985C162.744 0.0399985 164.504 0.293332 165.864 0.799998C167.251 1.30666 168.264 1.94667 168.904 2.72C169.544 3.46667 169.864 4.25333 169.864 5.08C169.864 6.06666 169.424 6.90667 168.544 7.6C167.691 8.29333 166.198 8.64 164.064 8.64C164.064 7.73333 163.891 6.84 163.544 5.96C163.198 5.05333 162.691 4.30667 162.024 3.72C161.384 3.10667 160.584 2.8 159.624 2.8C158.984 2.8 158.398 2.90667 157.864 3.12C157.331 3.33333 156.904 3.66666 156.584 4.12C156.264 4.54667 156.104 5.12 156.104 5.84C156.104 6.37333 156.278 6.92 156.624 7.48C156.971 8.04 157.651 8.65333 158.664 9.32C159.704 9.96 161.211 10.68 163.184 11.48C165.211 12.28 166.784 13.1467 167.904 14.08C169.051 14.9867 169.851 15.9733 170.304 17.04C170.758 18.08 170.984 19.24 170.984 20.52C170.984 22.2533 170.504 23.7867 169.544 25.12C168.611 26.4533 167.264 27.5067 165.504 28.28C163.771 29.0267 161.718 29.4 159.344 29.4ZM0.172031 85V82.56H2.29203C2.61203 82.56 2.8787 82.4667 3.09203 82.28C3.33203 82.0933 3.5187 81.8533 3.65203 81.56C3.78536 81.24 3.85203 80.9067 3.85203 80.56V61C3.85203 60.52 3.7587 60.12 3.57203 59.8C3.41203 59.48 3.18536 59.2533 2.89203 59.12C2.62536 58.96 2.30536 58.88 1.93203 58.88H0.172031V56.44H14.772V58.88H13.292C12.972 58.88 12.7054 58.96 12.492 59.12C12.2787 59.2533 12.1187 59.4667 12.012 59.76C11.9054 60.0267 11.852 60.3733 11.852 60.8V68.72H20.372V60.92C20.372 60.4667 20.3054 60.0933 20.172 59.8C20.0654 59.48 19.892 59.2533 19.652 59.12C19.412 58.96 19.092 58.88 18.692 58.88H17.452V56.44H32.052V58.88H29.932C29.612 58.88 29.332 58.96 29.092 59.12C28.852 59.2533 28.6654 59.48 28.532 59.8C28.4254 60.0933 28.372 60.4667 28.372 60.92V80.48C28.372 80.88 28.4387 81.24 28.572 81.56C28.7054 81.88 28.892 82.1333 29.132 82.32C29.372 82.48 29.6387 82.56 29.932 82.56H32.052V85H17.452V82.56H18.732C19.1054 82.56 19.412 82.4667 19.652 82.28C19.892 82.0933 20.0654 81.8267 20.172 81.48C20.3054 81.1333 20.372 80.7467 20.372 80.32V71.48H11.852V80.56C11.852 80.9067 11.9054 81.24 12.012 81.56C12.1187 81.8533 12.2787 82.0933 12.492 82.28C12.7054 82.4667 12.972 82.56 13.292 82.56H14.772V85H0.172031ZM49.2877 85.4C46.0877 85.4 43.4343 84.7867 41.3277 83.56C39.221 82.3333 37.6343 80.6133 36.5677 78.4C35.5277 76.1867 35.0077 73.6 35.0077 70.64C35.0077 67.68 35.5277 65.1067 36.5677 62.92C37.6343 60.7333 39.221 59.04 41.3277 57.84C43.461 56.6133 46.1277 56 49.3277 56C52.3677 56 54.941 56.6133 57.0477 57.84C59.1543 59.04 60.7543 60.7467 61.8477 62.96C62.941 65.1467 63.4877 67.72 63.4877 70.68C63.4877 73.64 62.941 76.2267 61.8477 78.44C60.7543 80.6267 59.141 82.3333 57.0077 83.56C54.901 84.7867 52.3277 85.4 49.2877 85.4ZM49.2877 82.48C50.3543 82.48 51.261 82.2133 52.0077 81.68C52.7543 81.1467 53.3543 80.3733 53.8077 79.36C54.261 78.3467 54.581 77.12 54.7677 75.68C54.981 74.2133 55.0877 72.5467 55.0877 70.68C55.0877 68.8133 54.981 67.16 54.7677 65.72C54.581 64.2533 54.261 63.0133 53.8077 62C53.3543 60.9867 52.7543 60.2267 52.0077 59.72C51.2877 59.1867 50.3943 58.92 49.3277 58.92C48.261 58.92 47.341 59.1867 46.5677 59.72C45.821 60.2267 45.2077 60.9867 44.7277 62C44.2743 63.0133 43.941 64.2533 43.7277 65.72C43.5143 67.16 43.4077 68.8133 43.4077 70.68C43.4077 72.5467 43.5143 74.2133 43.7277 75.68C43.941 77.12 44.2743 78.3467 44.7277 79.36C45.2077 80.3733 45.821 81.1467 46.5677 81.68C47.3143 82.2133 48.221 82.48 49.2877 82.48ZM66.5002 85V82.56H68.6202C68.8602 82.56 69.1002 82.4933 69.3402 82.36C69.5802 82.2 69.7802 81.9733 69.9402 81.68C70.1002 81.3867 70.1802 81.04 70.1802 80.64V60.92C70.1802 60.4667 70.0868 60.0933 69.9002 59.8C69.7402 59.48 69.5135 59.2533 69.2202 59.12C68.9535 58.96 68.6468 58.88 68.3002 58.88H66.5002V56.44H81.9002V58.88H79.9402C79.4602 58.88 79.1002 58.96 78.8602 59.12C78.6202 59.2533 78.4468 59.4667 78.3402 59.76C78.2602 60.0533 78.2202 60.4133 78.2202 60.84V82.24H85.3402C85.8202 82.24 86.2468 82.1467 86.6202 81.96C87.0202 81.7467 87.3668 81.3867 87.6602 80.88C87.9802 80.3733 88.2602 79.6933 88.5002 78.84L89.3402 75.84H91.7002L91.4202 85H66.5002ZM93.5705 85V82.56H95.6905C96.0105 82.56 96.2771 82.4667 96.4905 82.28C96.7305 82.0667 96.9171 81.8 97.0505 81.48C97.1838 81.16 97.2505 80.8 97.2505 80.4V61.04C97.2505 60.5333 97.1705 60.1333 97.0105 59.84C96.8505 59.52 96.6238 59.28 96.3305 59.12C96.0638 58.96 95.7438 58.88 95.3705 58.88H93.5705V56.44H107.49C110.584 56.44 113.25 56.9333 115.49 57.92C117.73 58.88 119.45 60.3467 120.65 62.32C121.85 64.2933 122.45 66.8 122.45 69.84C122.45 72.7467 121.877 75.3467 120.73 77.64C119.61 79.9333 117.93 81.7333 115.69 83.04C113.477 84.3467 110.744 85 107.49 85H93.5705ZM106.53 82.2C108.157 82.2 109.517 81.6933 110.61 80.68C111.704 79.64 112.53 78.2 113.09 76.36C113.677 74.4933 113.97 72.32 113.97 69.84C113.97 67.36 113.69 65.3467 113.13 63.8C112.57 62.2267 111.73 61.0667 110.61 60.32C109.517 59.5733 108.17 59.2 106.57 59.2H105.21V82.2H106.53ZM129.766 68.6L127.526 56.44H135.246L133.006 68.6H129.766ZM139.039 85V82.56H141.079C141.453 82.56 141.759 82.48 141.999 82.32C142.239 82.1333 142.413 81.8933 142.519 81.6C142.653 81.3067 142.719 80.9733 142.719 80.6V61.04C142.719 60.4 142.639 59.9333 142.479 59.64C142.319 59.32 142.106 59.12 141.839 59.04C141.573 58.9333 141.293 58.88 140.999 58.88H139.039V56.44H162.759L162.879 64.08H159.559L159.359 62.08C159.306 61.36 159.186 60.8 158.999 60.4C158.813 59.9733 158.533 59.6667 158.159 59.48C157.813 59.2933 157.319 59.2 156.679 59.2H150.679V68.72H160.119V71.44H150.679V82.24H157.839C158.426 82.24 158.906 82.12 159.279 81.88C159.653 81.64 159.946 81.3067 160.159 80.88C160.399 80.4533 160.559 79.9467 160.639 79.36L160.959 77.36H164.239L163.959 85H139.039ZM166.031 85V82.56H167.351C167.858 82.56 168.285 82.4933 168.631 82.36C168.978 82.2 169.245 81.96 169.431 81.64C169.618 81.2933 169.711 80.8667 169.711 80.36V61.08C169.711 60.5733 169.618 60.16 169.431 59.84C169.271 59.52 169.058 59.28 168.791 59.12C168.551 58.96 168.285 58.88 167.991 58.88H166.031V56.44H179.311L184.751 73.12L189.751 56.44H202.871V58.88H200.751C200.511 58.88 200.271 58.96 200.031 59.12C199.818 59.2533 199.631 59.4667 199.471 59.76C199.311 60.0267 199.231 60.3733 199.231 60.8V80.68C199.231 81.08 199.298 81.4267 199.431 81.72C199.565 81.9867 199.778 82.2 200.071 82.36C200.365 82.4933 200.725 82.56 201.151 82.56H202.871V85H188.471V82.56H189.071C189.631 82.56 190.071 82.48 190.391 82.32C190.738 82.16 190.978 81.9067 191.111 81.56C191.271 81.1867 191.351 80.7067 191.351 80.12V61.12L184.071 85H180.911L173.111 61.04V80.16C173.111 80.8533 173.231 81.3733 173.471 81.72C173.711 82.0667 174.045 82.2933 174.471 82.4C174.925 82.5067 175.471 82.56 176.111 82.56H176.471V85H166.031Z" fill="#111111"/>
<path d="M36.6769 29H34.6769V31H36.6769V29ZM36.6769 26.56V24.56H34.6769V26.56H36.6769ZM39.2769 26.4L39.8263 28.323L39.8886 28.3053L39.9495 28.2835L39.2769 26.4ZM40.1169 25.68L38.3804 24.6877L38.3679 24.7096L38.3559 24.7318L40.1169 25.68ZM40.4369 3.2H42.4369V1.2H40.4369V3.2ZM35.8369 3.48L36.5025 5.36598L36.5509 5.3489L36.5984 5.32936L35.8369 3.48ZM34.3969 5.72L32.4152 5.44977L32.4128 5.46727L32.4108 5.4848L34.3969 5.72ZM34.0369 8.76V10.76H35.814L36.023 8.9952L34.0369 8.76ZM30.9169 8.76L28.9175 8.71194L28.8682 10.76H30.9169V8.76ZM31.1169 0.439999V-1.56H29.1644L29.1175 0.391935L31.1169 0.439999ZM57.7969 0.439999L59.7963 0.391935L59.7494 -1.56H57.7969V0.439999ZM57.9969 8.76V10.76H60.0455L59.9963 8.71194L57.9969 8.76ZM54.8769 8.76L52.8879 8.96937L53.0764 10.76H54.8769V8.76ZM54.5569 5.72L52.5651 5.90107L52.5664 5.91523L52.5679 5.92937L54.5569 5.72ZM54.1169 4.28L52.3804 5.27227L52.4063 5.3176L52.4345 5.36152L54.1169 4.28ZM53.1169 3.48L52.3554 5.32936L52.4028 5.3489L52.4512 5.36598L53.1169 3.48ZM48.5169 3.2V1.2H46.5169V3.2H48.5169ZM48.8369 25.72L50.5402 24.6718L50.5402 24.6718L48.8369 25.72ZM52.2769 26.56H54.2769V24.56H52.2769V26.56ZM52.2769 29V31H54.2769V29H52.2769ZM38.6769 29V26.56H34.6769V29H38.6769ZM36.6769 28.56H37.9569V24.56H36.6769V28.56ZM37.9569 28.56C38.5962 28.56 39.2295 28.4936 39.8263 28.323L38.7274 24.477C38.5776 24.5198 38.3309 24.56 37.9569 24.56V28.56ZM39.9495 28.2835C40.7853 27.985 41.4548 27.4138 41.8778 26.6282L38.3559 24.7318C38.3713 24.7032 38.406 24.6523 38.4653 24.6015C38.5244 24.5508 38.5781 24.5259 38.6042 24.5165L39.9495 28.2835ZM41.8534 26.6723C42.3239 25.8489 42.4369 24.8716 42.4369 24H38.4369C38.4369 24.2839 38.4161 24.4802 38.3922 24.6058C38.3676 24.735 38.3482 24.7441 38.3804 24.6877L41.8534 26.6723ZM42.4369 24V3.2H38.4369V24H42.4369ZM40.4369 1.2H37.7169V5.2H40.4369V1.2ZM37.7169 1.2C36.8001 1.2 35.8752 1.3013 35.0754 1.63064L36.5984 5.32936C36.7052 5.28536 37.0337 5.2 37.7169 5.2V1.2ZM35.1712 1.59402C34.3224 1.89359 33.5803 2.44786 33.1004 3.28772L36.5734 5.27228C36.5659 5.28534 36.5549 5.30167 36.5401 5.31897C36.5253 5.33629 36.5101 5.3507 36.4963 5.36174C36.4673 5.38491 36.4608 5.38069 36.5025 5.36598L35.1712 1.59402ZM33.1004 3.28772C32.7216 3.95064 32.5177 4.69836 32.4152 5.44977L36.3785 5.99022C36.4361 5.56831 36.5255 5.35602 36.5734 5.27228L33.1004 3.28772ZM32.4108 5.4848L32.0508 8.5248L36.023 8.9952L36.383 5.9552L32.4108 5.4848ZM34.0369 6.76H30.9169V10.76H34.0369V6.76ZM32.9163 8.80806L33.1163 0.488061L29.1175 0.391935L28.9175 8.71194L32.9163 8.80806ZM31.1169 2.44H57.7969V-1.56H31.1169V2.44ZM55.7975 0.488061L55.9975 8.80806L59.9963 8.71194L59.7963 0.391935L55.7975 0.488061ZM57.9969 6.76H54.8769V10.76H57.9969V6.76ZM56.8659 8.55063L56.5459 5.51063L52.5679 5.92937L52.8879 8.96937L56.8659 8.55063ZM56.5487 5.53893C56.4753 4.73239 56.2609 3.91664 55.7992 3.19848L52.4345 5.36152C52.4528 5.39002 52.5317 5.53428 52.5651 5.90107L56.5487 5.53893ZM55.8534 3.28773C55.3734 2.44786 54.6313 1.89359 53.7825 1.59402L52.4512 5.36598C52.4929 5.38069 52.4865 5.38491 52.4575 5.36174C52.4437 5.3507 52.4284 5.33629 52.4136 5.31897C52.3988 5.30167 52.3879 5.28534 52.3804 5.27227L55.8534 3.28773ZM53.8784 1.63064C53.0786 1.3013 52.1537 1.2 51.2369 1.2V5.2C51.9201 5.2 52.2485 5.28536 52.3554 5.32936L53.8784 1.63064ZM51.2369 1.2H48.5169V5.2H51.2369V1.2ZM46.5169 3.2V24.16H50.5169V3.2H46.5169ZM46.5169 24.16C46.5169 24.9935 46.6334 25.9555 47.1336 26.7682L50.5402 24.6718C50.5868 24.7475 50.576 24.7652 50.5561 24.6681C50.5367 24.5734 50.5169 24.4102 50.5169 24.16H46.5169ZM47.1336 26.7682C47.5948 27.5178 48.2888 28.072 49.1674 28.323L50.2663 24.477C50.312 24.49 50.3761 24.5183 50.4398 24.5674C50.5021 24.6156 50.5327 24.6596 50.5402 24.6718L47.1336 26.7682ZM49.1674 28.323C49.7557 28.4911 50.373 28.56 50.9969 28.56V24.56C50.6608 24.56 50.4247 24.5222 50.2663 24.477L49.1674 28.323ZM50.9969 28.56H52.2769V24.56H50.9969V28.56ZM50.2769 26.56V29H54.2769V26.56H50.2769ZM52.2769 27H36.6769V31H52.2769V27ZM58.9025 29H56.9025V31H58.9025V29ZM58.9025 26.56V24.56H56.9025V26.56H58.9025ZM61.8625 26.32L62.9719 27.9841L63.0327 27.9436L63.0904 27.8987L61.8625 26.32ZM62.3825 25.6L60.5618 24.7724L60.5295 24.8433L60.5029 24.9165L62.3825 25.6ZM62.3425 3.64L60.5536 4.53443L60.5696 4.56636L60.5867 4.59771L62.3425 3.64ZM61.7025 3.04L60.9597 4.89695L61.0424 4.93004L61.1278 4.95565L61.7025 3.04ZM58.9025 2.88H56.9025V4.88H58.9025V2.88ZM58.9025 0.439999V-1.56H56.9025V0.439999H58.9025ZM82.6225 0.439999L84.6223 0.408588L84.5913 -1.56H82.6225V0.439999ZM82.7425 8.08V10.08H84.7742L84.7423 8.04859L82.7425 8.08ZM79.4225 8.08L77.4324 8.27901L77.6125 10.08H79.4225V8.08ZM79.2225 6.08L77.228 6.22775L77.2299 6.2534L77.2324 6.27901L79.2225 6.08ZM78.8625 4.4L77.0302 5.20164L77.0399 5.22382L77.0501 5.24577L78.8625 4.4ZM78.0225 3.48L77.0743 5.24094L77.101 5.2553L77.1281 5.26886L78.0225 3.48ZM70.5425 3.2V1.2H68.5425V3.2H70.5425ZM70.5425 12.72H68.5425V14.72H70.5425V12.72ZM79.9825 12.72H81.9825V10.72H79.9825V12.72ZM79.9825 15.44V17.44H81.9825V15.44H79.9825ZM70.5425 15.44V13.44H68.5425V15.44H70.5425ZM70.5425 26.24H68.5425V28.24H70.5425V26.24ZM79.1425 25.88L80.224 27.5624V27.5624L79.1425 25.88ZM80.0225 24.88L78.2794 23.8995L78.2554 23.942L78.2337 23.9856L80.0225 24.88ZM80.5025 23.36L78.5276 23.044L78.524 23.0669L78.5208 23.0898L80.5025 23.36ZM80.8225 21.36V19.36H79.1171L78.8476 21.044L80.8225 21.36ZM84.1025 21.36L86.1012 21.4332L86.1771 19.36H84.1025V21.36ZM83.8225 29V31H85.7505L85.8212 29.0732L83.8225 29ZM60.9025 29V26.56H56.9025V29H60.9025ZM58.9025 28.56H60.9425V24.56H58.9025V28.56ZM60.9425 28.56C61.5956 28.56 62.3192 28.4193 62.9719 27.9841L60.7531 24.6559C60.9258 24.5407 61.036 24.56 60.9425 24.56V28.56ZM63.0904 27.8987C63.6358 27.4745 64.0304 26.9207 64.2621 26.2835L60.5029 24.9165C60.5093 24.899 60.5239 24.8667 60.5511 24.829C60.5786 24.791 60.6089 24.7613 60.6346 24.7413L63.0904 27.8987ZM64.2032 26.4276C64.472 25.8363 64.5825 25.2138 64.5825 24.6H60.5825C60.5825 24.6677 60.5765 24.7121 60.5713 24.7378C60.5688 24.7506 60.5663 24.7593 60.5647 24.7644C60.563 24.7695 60.562 24.772 60.5618 24.7724L64.2032 26.4276ZM64.5825 24.6V5.04H60.5825V24.6H64.5825ZM64.5825 5.04C64.5825 4.31943 64.5072 3.432 64.0983 2.68229L60.5867 4.59771C60.5273 4.48886 60.5342 4.44863 60.5513 4.54793C60.5668 4.63858 60.5825 4.79665 60.5825 5.04H64.5825ZM64.1314 2.74557C63.799 2.08089 63.2125 1.40494 62.2772 1.12435L61.1278 4.95565C60.95 4.90232 60.8018 4.80958 60.6946 4.70907C60.5949 4.61561 60.5566 4.54032 60.5536 4.53443L64.1314 2.74557ZM62.4453 1.18304C61.9373 0.979843 61.4047 0.879997 60.8625 0.879997V4.88C60.9069 4.88 60.9344 4.88682 60.9597 4.89695L62.4453 1.18304ZM60.8625 0.879997H58.9025V4.88H60.8625V0.879997ZM60.9025 2.88V0.439999H56.9025V2.88H60.9025ZM58.9025 2.44H82.6225V-1.56H58.9025V2.44ZM80.6227 0.471408L80.7428 8.11141L84.7423 8.04859L84.6223 0.408588L80.6227 0.471408ZM82.7425 6.08H79.4225V10.08H82.7425V6.08ZM81.4126 7.88099L81.2126 5.88099L77.2324 6.27901L77.4324 8.27901L81.4126 7.88099ZM81.217 5.93225C81.1557 5.10429 81.0086 4.26939 80.6749 3.55423L77.0501 5.24577C77.0897 5.33061 77.1826 5.61571 77.228 6.22775L81.217 5.93225ZM80.6948 3.59836C80.3437 2.79591 79.7576 2.11148 78.9169 1.69114L77.1281 5.26886C77.1143 5.26197 77.0975 5.25197 77.0798 5.23858C77.0621 5.22519 77.0471 5.21124 77.0355 5.19854C77.0112 5.17189 77.014 5.16471 77.0302 5.20164L80.6948 3.59836ZM78.9707 1.71906C78.2047 1.3066 77.329 1.2 76.5425 1.2V5.2C76.7699 5.2 76.9246 5.21696 77.0207 5.23514C77.1185 5.25364 77.1233 5.26731 77.0743 5.24094L78.9707 1.71906ZM76.5425 1.2H70.5425V5.2H76.5425V1.2ZM68.5425 3.2V12.72H72.5425V3.2H68.5425ZM70.5425 14.72H79.9825V10.72H70.5425V14.72ZM77.9825 12.72V15.44H81.9825V12.72H77.9825ZM79.9825 13.44H70.5425V17.44H79.9825V13.44ZM68.5425 15.44V26.24H72.5425V15.44H68.5425ZM70.5425 28.24H77.7025V24.24H70.5425V28.24ZM77.7025 28.24C78.5518 28.24 79.4396 28.0666 80.224 27.5624L78.061 24.1976C78.0988 24.1734 78.0266 24.24 77.7025 24.24V28.24ZM80.224 27.5624C80.9222 27.1135 81.4498 26.4976 81.8114 25.7744L78.2337 23.9856C78.1686 24.1157 78.1094 24.1665 78.061 24.1976L80.224 27.5624ZM81.7657 25.8605C82.1521 25.1735 82.3771 24.4156 82.4842 23.6302L78.5208 23.0898C78.4679 23.4777 78.3729 23.7332 78.2794 23.8995L81.7657 25.8605ZM82.4774 23.676L82.7974 21.676L78.8476 21.044L78.5276 23.044L82.4774 23.676ZM80.8225 23.36H84.1025V19.36H80.8225V23.36ZM82.1038 21.2868L81.8238 28.9268L85.8212 29.0732L86.1012 21.4332L82.1038 21.2868ZM83.8225 27H58.9025V31H83.8225V27ZM85.4947 29H83.4947V31H85.4947V29ZM85.4947 26.56V24.56H83.4947V26.56H85.4947ZM88.6947 25.12L87.2356 23.7521L87.2121 23.7772L87.1895 23.803L88.6947 25.12ZM89.8947 23.76L91.4312 25.0404L91.4392 25.0307L89.8947 23.76ZM97.1347 14.96L98.6792 16.2307L99.619 15.0883L98.8019 13.8552L97.1347 14.96ZM90.5347 5L88.8555 6.0865L88.8615 6.09566L88.8675 6.10476L90.5347 5ZM89.6947 3.88L88.0947 5.08L88.1513 5.15551L88.2148 5.22535L89.6947 3.88ZM88.7347 3.16L87.8889 4.97236L87.9398 4.9961L87.9919 5.01695L88.7347 3.16ZM86.5747 2.88H84.5747V4.88H86.5747V2.88ZM86.5747 0.439999V-1.56H84.5747V0.439999H86.5747ZM101.575 0.439999H103.575V-1.56H101.575V0.439999ZM101.575 2.88V4.88H103.575V2.88H101.575ZM99.4947 3.28L98.2143 1.74356L98.1812 1.77114L98.1493 1.80012L99.4947 3.28ZM99.3747 5.2L97.5858 6.09443L97.6076 6.13803L97.6315 6.18052L99.3747 5.2ZM100.135 6.4L98.5072 7.56249L98.5133 7.57098L100.135 6.4ZM103.255 10.72L101.633 11.891L103.209 14.0732L104.844 11.9343L103.255 10.72ZM106.495 6.48L108.084 7.69434L108.098 7.67551L108.112 7.65635L106.495 6.48ZM107.215 5.32L105.484 4.31793L105.475 4.33324L105.466 4.34871L107.215 5.32ZM106.975 3.12L106.272 4.99266L106.341 5.0182L106.41 5.03873L106.975 3.12ZM105.215 2.88H103.215V4.88H105.215V2.88ZM105.215 0.439999V-1.56H103.215V0.439999H105.215ZM115.015 0.439999H117.015V-1.56H115.015V0.439999ZM115.015 2.88V4.88H117.015V2.88H115.015ZM113.295 3.16L114.14 4.97237L114.14 4.97236L113.295 3.16ZM112.095 4.08L113.509 5.49422L113.532 5.47141L113.554 5.44788L112.095 4.08ZM110.695 5.76L112.285 6.97334L112.293 6.96196L112.302 6.95045L110.695 5.76ZM104.895 13.36L103.305 12.1467L102.44 13.2795L103.229 14.4666L104.895 13.36ZM112.255 24.44L110.589 25.5466L110.602 25.5669L110.616 25.5869L112.255 24.44ZM113.335 25.72L111.978 27.1896L112.037 27.2435L112.099 27.2926L113.335 25.72ZM114.415 26.36L113.697 28.2267L113.719 28.2354L113.742 28.2435L114.415 26.36ZM115.975 26.56H117.975V24.56H115.975V26.56ZM115.975 29V31H117.975V29H115.975ZM101.015 29H99.0147V31H101.015V29ZM101.015 26.56V24.56H99.0147V26.56H101.015ZM103.015 26.24L103.956 28.0047L104 27.981L104.044 27.955L103.015 26.24ZM103.415 24.28L101.531 24.9527L101.539 24.9754L101.548 24.998L103.415 24.28ZM102.295 22.48L100.657 23.6287L100.673 23.6504L100.688 23.6717L102.295 22.48ZM98.8147 17.52L100.452 16.3713L98.9225 14.1915L97.2553 16.2677L98.8147 17.52ZM94.5747 22.8L93.0153 21.5477L92.9945 21.5735L92.9747 21.6L94.5747 22.8ZM94.0947 23.52L95.7588 24.6294L95.7852 24.5898L95.8097 24.549L94.0947 23.52ZM93.6947 24.28L91.8377 23.5372L91.8377 23.5372L93.6947 24.28ZM94.0147 26.16L92.7343 27.6964L94.0147 26.16ZM95.9747 26.56H97.9747V24.56H95.9747V26.56ZM95.9747 29V31H97.9747V29H95.9747ZM87.4947 29V26.56H83.4947V29H87.4947ZM85.4947 28.56H85.7347V24.56H85.4947V28.56ZM85.7347 28.56C86.6579 28.56 87.563 28.3655 88.386 27.9083L86.4434 24.4117C86.3064 24.4878 86.0914 24.56 85.7347 24.56V28.56ZM88.386 27.9083C89.074 27.5261 89.6797 27.0314 90.1998 26.437L87.1895 23.803C86.963 24.0619 86.7154 24.2606 86.4434 24.4117L88.386 27.9083ZM90.1538 26.4879C90.5821 26.031 91.0079 25.5483 91.4311 25.0404L88.3582 22.4796C87.9815 22.9317 87.6072 23.3557 87.2356 23.7521L90.1538 26.4879ZM91.4392 25.0307L98.6792 16.2307L95.5902 13.6893L88.3502 22.4893L91.4392 25.0307ZM98.8019 13.8552L92.2019 3.89524L88.8675 6.10476L95.4675 16.0648L98.8019 13.8552ZM92.2138 3.9135C91.8809 3.39897 91.5355 2.93165 91.1746 2.53465L88.2148 5.22535C88.3872 5.41502 88.6018 5.69436 88.8555 6.0865L92.2138 3.9135ZM91.2947 2.68C90.8176 2.04393 90.1908 1.58838 89.4775 1.30305L87.9919 5.01695C88.0786 5.05162 88.0917 5.07606 88.0947 5.08L91.2947 2.68ZM89.5805 1.34763C88.8074 0.986859 87.931 0.879997 87.0947 0.879997V4.88C87.3552 4.88 87.5494 4.8978 87.6881 4.92147C87.7562 4.9331 87.8059 4.94531 87.8399 4.95537C87.8567 4.96033 87.869 4.96456 87.8771 4.96762C87.8853 4.97067 87.889 4.97242 87.8889 4.97236L89.5805 1.34763ZM87.0947 0.879997H86.5747V4.88H87.0947V0.879997ZM88.5747 2.88V0.439999H84.5747V2.88H88.5747ZM86.5747 2.44H101.575V-1.56H86.5747V2.44ZM99.5747 0.439999V2.88H103.575V0.439999H99.5747ZM101.575 0.879997H101.335V4.88H101.575V0.879997ZM101.335 0.879997C100.796 0.879997 100.263 0.918517 99.7698 1.02565C99.2947 1.12894 98.7155 1.32589 98.2143 1.74356L100.775 4.81644C100.678 4.8973 100.601 4.93307 100.578 4.94329C100.554 4.95354 100.563 4.9467 100.62 4.93435C100.74 4.90815 100.967 4.88 101.335 4.88V0.879997ZM98.1493 1.80012C97.5462 2.34844 97.0547 3.14638 97.0547 4.16H101.055C101.055 4.31838 101.015 4.47053 100.954 4.59443C100.925 4.65164 100.896 4.69347 100.875 4.72064C100.864 4.73413 100.856 4.74395 100.85 4.75032C100.844 4.75667 100.84 4.75978 100.84 4.75988L98.1493 1.80012ZM97.0547 4.16C97.0547 4.89392 97.3268 5.57639 97.5858 6.09443L101.164 4.30557C101.092 4.16197 101.059 4.07302 101.046 4.03183C101.04 4.01287 101.042 4.01378 101.045 4.03232C101.048 4.05058 101.055 4.09466 101.055 4.16H97.0547ZM97.6315 6.18052C97.9045 6.66574 98.1961 7.12687 98.5072 7.56247L101.762 5.23753C101.54 4.92646 101.325 4.58759 101.118 4.21947L97.6315 6.18052ZM98.5133 7.57098L101.633 11.891L104.876 9.54902L101.756 5.22902L98.5133 7.57098ZM104.844 11.9343L108.084 7.69434L104.906 5.26566L101.666 9.50566L104.844 11.9343ZM108.112 7.65635C108.391 7.27322 108.675 6.81017 108.963 6.29128L105.466 4.34871C105.221 4.78983 105.025 5.10011 104.877 5.30365L108.112 7.65635ZM108.946 6.32207C109.308 5.69589 109.655 4.90384 109.655 4.04H105.655C105.655 3.93682 105.675 3.90612 105.653 3.96984C105.632 4.03114 105.584 4.14537 105.484 4.31793L108.946 6.32207ZM109.655 4.04C109.655 3.48398 109.52 2.83897 109.093 2.26122C108.664 1.68049 108.082 1.36097 107.539 1.20127L106.41 5.03873C106.321 5.01236 106.079 4.91284 105.876 4.63878C105.676 4.36769 105.655 4.11602 105.655 4.04H109.655ZM107.677 1.24734C106.963 0.979569 106.19 0.879997 105.415 0.879997V4.88C105.866 4.88 106.133 4.94043 106.272 4.99266L107.677 1.24734ZM105.415 0.879997H105.215V4.88H105.415V0.879997ZM107.215 2.88V0.439999H103.215V2.88H107.215ZM105.215 2.44H115.015V-1.56H105.215V2.44ZM113.015 0.439999V2.88H117.015V0.439999H113.015ZM115.015 0.879997H114.655V4.88H115.015V0.879997ZM114.655 0.879997C113.899 0.879997 113.15 1.02035 112.449 1.34763L114.14 4.97236C114.239 4.92631 114.397 4.88 114.655 4.88V0.879997ZM112.449 1.34763C111.756 1.67082 111.156 2.15669 110.636 2.71212L113.554 5.44788C113.833 5.14997 114.033 5.0225 114.14 4.97237L112.449 1.34763ZM110.68 2.66578C110.183 3.16358 109.65 3.81032 109.088 4.56954L112.302 6.95045C112.806 6.26967 113.207 5.79642 113.509 5.49422L110.68 2.66578ZM109.105 4.54665L103.305 12.1467L106.485 14.5733L112.285 6.97334L109.105 4.54665ZM103.229 14.4666L110.589 25.5466L113.921 23.3334L106.561 12.2534L103.229 14.4666ZM110.616 25.5869C111.043 26.1968 111.495 26.7437 111.978 27.1896L114.691 24.2504C114.481 24.0563 114.213 23.7499 113.893 23.2931L110.616 25.5869ZM112.099 27.2926C112.588 27.6768 113.12 28.005 113.697 28.2267L115.133 24.4933C115.016 24.4483 114.828 24.3499 114.57 24.1474L112.099 27.2926ZM113.742 28.2435C114.282 28.4362 114.858 28.56 115.455 28.56V24.56C115.411 24.56 115.294 24.5505 115.087 24.4765L113.742 28.2435ZM115.455 28.56H115.975V24.56H115.455V28.56ZM113.975 26.56V29H117.975V26.56H113.975ZM115.975 27H101.015V31H115.975V27ZM103.015 29V26.56H99.0147V29H103.015ZM101.015 28.56H101.215V24.56H101.015V28.56ZM101.215 28.56C102.127 28.56 103.122 28.4494 103.956 28.0047L102.074 24.4753C102.11 24.4559 102.074 24.4825 101.915 24.5109C101.759 24.5385 101.531 24.56 101.215 24.56V28.56ZM104.044 27.955C104.978 27.3942 105.615 26.4448 105.615 25.24H101.615C101.615 25.1273 101.645 24.955 101.75 24.781C101.849 24.6151 101.96 24.5403 101.986 24.525L104.044 27.955ZM105.615 25.24C105.615 24.6455 105.48 24.0794 105.281 23.562L101.548 24.998C101.616 25.174 101.615 25.2478 101.615 25.24H105.615ZM105.298 23.6073C105.052 22.9181 104.502 22.0991 103.901 21.2883L100.688 23.6717C100.976 24.0591 101.188 24.3685 101.337 24.6066C101.497 24.8639 101.536 24.9656 101.531 24.9527L105.298 23.6073ZM103.932 21.3313L100.452 16.3713L97.1775 18.6687L100.657 23.6287L103.932 21.3313ZM97.2553 16.2677L93.0153 21.5477L96.1341 24.0523L100.374 18.7723L97.2553 16.2677ZM92.9747 21.6C92.7673 21.8765 92.5694 22.1748 92.3797 22.491L95.8097 24.549C95.94 24.3319 96.062 24.1502 96.1747 24L92.9747 21.6ZM92.4306 22.4106C92.1941 22.7653 91.996 23.1414 91.8377 23.5372L95.5516 25.0228C95.6067 24.8852 95.6753 24.7547 95.7588 24.6294L92.4306 22.4106ZM91.8377 23.5372C91.6345 24.0452 91.5347 24.5778 91.5347 25.12H95.5347C95.5347 25.0756 95.5415 25.0481 95.5516 25.0228L91.8377 23.5372ZM91.5347 25.12C91.5347 26.1236 91.9457 27.0393 92.7343 27.6964L95.2951 24.6236C95.3421 24.6628 95.4152 24.7417 95.4706 24.8619C95.5254 24.9807 95.5347 25.0781 95.5347 25.12H91.5347ZM92.7343 27.6964C93.228 28.1079 93.7962 28.3069 94.2708 28.4124C94.7598 28.521 95.2857 28.56 95.8147 28.56V24.56C95.4637 24.56 95.2496 24.5323 95.1385 24.5076C95.0865 24.4961 95.0798 24.4901 95.1046 24.5009C95.1296 24.5117 95.2029 24.5467 95.2951 24.6236L92.7343 27.6964ZM95.8147 28.56H95.9747V24.56H95.8147V28.56ZM93.9747 26.56V29H97.9747V26.56H93.9747ZM95.9747 27H85.4947V31H95.9747V27ZM116.741 29H114.741V31H116.741V29ZM116.741 26.56V24.56H114.741V26.56H116.741ZM118.301 26.36L118.933 28.2574L118.989 28.2388L119.044 28.217L118.301 26.36ZM119.421 25.52L117.91 24.2101L119.421 25.52ZM120.341 23.8L118.462 23.1147L118.457 23.1273L120.341 23.8ZM128.861 0.439999V-1.56H127.462L126.982 -0.245296L128.861 0.439999ZM136.101 0.439999L137.99 -0.217544L137.522 -1.56H136.101V0.439999ZM144.261 23.88L142.372 24.5375L142.385 24.5734L142.398 24.6088L144.261 23.88ZM145.101 25.4L143.539 26.6494V26.6494L145.101 25.4ZM146.181 26.28L145.335 28.0924L145.357 28.1026L145.379 28.1123L146.181 26.28ZM147.981 26.56H149.981V24.56H147.981V26.56ZM147.981 29V31H149.981V29H147.981ZM133.181 29H131.181V31H133.181V29ZM133.181 26.56V24.56H131.181V26.56H133.181ZM135.941 26.32L136.779 28.1359L135.941 26.32ZM136.381 24.56L134.42 24.9522L134.424 24.9731L134.429 24.9939L136.381 24.56ZM136.181 23.84L134.241 24.3251L134.268 24.4356L134.308 24.5422L136.181 23.84ZM136.021 23.36L134.128 24.0049L134.171 24.1332L134.232 24.2544L136.021 23.36ZM134.781 19.72L136.674 19.0751L136.212 17.72H134.781V19.72ZM125.661 19.72V17.72H124.2L123.756 19.1114L125.661 19.72ZM124.741 22.6L122.836 21.9914L122.816 22.0526L122.801 22.1149L124.741 22.6ZM124.501 23.4L122.604 22.7675L122.579 22.8404L122.561 22.9149L124.501 23.4ZM124.261 24.4L122.312 23.9503L122.298 24.0104L122.288 24.0712L124.261 24.4ZM124.501 26.24L123.006 27.5687L123.045 27.6127L123.087 27.6542L124.501 26.24ZM127.621 26.56H129.621V24.56H127.621V26.56ZM127.621 29V31H129.621V29H127.621ZM126.541 16.96L124.641 16.3365L123.78 18.96H126.541V16.96ZM133.901 16.96V18.96H136.585L135.817 16.3881L133.901 16.96ZM131.621 9.32L129.694 9.85529L129.699 9.87366L129.704 9.89193L131.621 9.32ZM131.181 7.88L129.247 8.38899L129.263 8.45131L129.284 8.51245L131.181 7.88ZM130.781 6.32L128.835 6.78324L128.838 6.79417L128.841 6.80507L130.781 6.32ZM130.421 4.6L132.389 4.24223L128.481 4.11493L130.421 4.6ZM130.061 5.88L128.152 5.28345L128.139 5.32381L128.128 5.36468L130.061 5.88ZM129.381 8.24L127.497 7.56733L127.482 7.60926L127.469 7.65182L129.381 8.24ZM129.061 9.28L130.961 9.90354L130.967 9.88591L130.973 9.86817L129.061 9.28ZM118.741 29V26.56H114.741V29H118.741ZM116.741 28.56H117.021V24.56H116.741V28.56ZM117.021 28.56C117.673 28.56 118.315 28.4636 118.933 28.2574L117.668 24.4626C117.487 24.5231 117.275 24.56 117.021 24.56V28.56ZM119.044 28.217C119.8 27.9144 120.424 27.4166 120.932 26.8299L117.91 24.2101C117.725 24.4234 117.602 24.4856 117.558 24.503L119.044 28.217ZM120.932 26.8299C121.501 26.1734 121.912 25.3479 122.224 24.4727L118.457 23.1273C118.237 23.7454 118.034 24.0666 117.91 24.2101L120.932 26.8299ZM122.22 24.4853L130.74 1.12529L126.982 -0.245296L118.462 23.1147L122.22 24.4853ZM128.861 2.44H136.101V-1.56H128.861V2.44ZM134.212 1.09754L142.372 24.5375L146.15 23.2225L137.99 -0.217544L134.212 1.09754ZM142.398 24.6088C142.692 25.3591 143.063 26.0545 143.539 26.6494L146.663 24.1506C146.499 23.9455 146.31 23.6276 146.123 23.1512L142.398 24.6088ZM143.539 26.6494C144.021 27.2511 144.615 27.7562 145.335 28.0924L147.027 24.4676C146.947 24.4304 146.821 24.3489 146.663 24.1506L143.539 26.6494ZM145.379 28.1123C146.067 28.413 146.794 28.56 147.541 28.56V24.56C147.328 24.56 147.149 24.5203 146.983 24.4477L145.379 28.1123ZM147.541 28.56H147.981V24.56H147.541V28.56ZM145.981 26.56V29H149.981V26.56H145.981ZM147.981 27H133.181V31H147.981V27ZM135.181 29V26.56H131.181V29H135.181ZM133.181 28.56H134.781V24.56H133.181V28.56ZM134.781 28.56C135.463 28.56 136.14 28.4307 136.779 28.1359L135.103 24.5041C135.048 24.5293 134.952 24.56 134.781 24.56V28.56ZM136.779 28.1359C138.073 27.5385 138.461 26.3034 138.461 25.32H134.461C134.461 25.359 134.452 25.2274 134.557 25.0273C134.678 24.7938 134.881 24.6066 135.103 24.5041L136.779 28.1359ZM138.461 25.32C138.461 24.9196 138.421 24.52 138.333 24.1261L134.429 24.9939C134.448 25.08 134.461 25.1871 134.461 25.32H138.461ZM138.342 24.1678C138.272 23.8151 138.178 23.469 138.054 23.1378L134.308 24.5422C134.344 24.6377 134.384 24.7716 134.42 24.9522L138.342 24.1678ZM138.121 23.3549C138.057 23.0973 137.962 22.7693 137.81 22.4656L134.232 24.2544C134.216 24.2227 134.207 24.2009 134.204 24.1928C134.201 24.1841 134.201 24.1834 134.204 24.1925C134.21 24.2119 134.223 24.2541 134.241 24.3251L138.121 23.3549ZM137.914 22.7151L136.674 19.0751L132.888 20.3649L134.128 24.0049L137.914 22.7151ZM134.781 17.72H125.661V21.72H134.781V17.72ZM123.756 19.1114L122.836 21.9914L126.646 23.2086L127.566 20.3286L123.756 19.1114ZM122.801 22.1149C122.764 22.2599 122.702 22.4735 122.604 22.7675L126.398 24.0325C126.514 23.6865 126.611 23.3668 126.681 23.0851L122.801 22.1149ZM122.561 22.9149C122.477 23.2476 122.395 23.5927 122.312 23.9503L126.21 24.8497C126.287 24.514 126.364 24.1924 126.441 23.8851L122.561 22.9149ZM122.288 24.0712C122.22 24.4775 122.181 24.8826 122.181 25.28H126.181C126.181 25.1441 126.195 24.9625 126.234 24.7288L122.288 24.0712ZM122.181 25.28C122.181 26.0448 122.393 26.8789 123.006 27.5687L125.996 24.9113C126.078 25.0039 126.13 25.1038 126.158 25.1875C126.184 25.2653 126.181 25.3039 126.181 25.28H122.181ZM123.087 27.6542C123.889 28.4566 124.979 28.56 125.661 28.56V24.56C125.495 24.56 125.45 24.5429 125.483 24.552C125.517 24.5614 125.709 24.6201 125.915 24.8258L123.087 27.6542ZM125.661 28.56H127.621V24.56H125.661V28.56ZM125.621 26.56V29H129.621V26.56H125.621ZM127.621 27H116.741V31H127.621V27ZM126.541 18.96H133.901V14.96H126.541V18.96ZM135.817 16.3881L133.537 8.74807L129.704 9.89193L131.984 17.5319L135.817 16.3881ZM133.548 8.78471C133.405 8.27157 133.249 7.75918 133.078 7.24755L129.284 8.51245C129.433 8.96082 129.57 9.40842 129.694 9.85529L133.548 8.78471ZM133.115 7.37101C132.984 6.87268 132.853 6.36066 132.721 5.83493L128.841 6.80507C128.976 7.346 129.111 7.87398 129.247 8.38899L133.115 7.37101ZM132.727 5.85676C132.602 5.33293 132.489 4.7948 132.389 4.24223L128.453 4.95777C128.566 5.57853 128.693 6.18707 128.835 6.78324L132.727 5.85676ZM128.481 4.11493C128.383 4.50353 128.274 4.89303 128.152 5.28345L131.97 6.47655C132.115 6.01364 132.245 5.5498 132.361 5.08507L128.481 4.11493ZM128.128 5.36468C128.022 5.76468 127.915 6.16467 127.808 6.56467L131.673 7.59533C131.78 7.19532 131.887 6.79532 131.993 6.39532L128.128 5.36468ZM127.808 6.56467C127.715 6.9139 127.612 7.24796 127.497 7.56733L131.264 8.91267C131.417 8.48536 131.553 8.0461 131.673 7.59533L127.808 6.56467ZM127.469 7.65182C127.363 7.99849 127.256 8.34516 127.149 8.69183L130.973 9.86817C131.079 9.5215 131.186 9.17484 131.292 8.82817L127.469 7.65182ZM127.161 8.65646L124.641 16.3365L128.441 17.5835L130.961 9.90354L127.161 8.65646ZM154.064 28.84L154.594 26.9113L154.064 28.84ZM150.904 27.4L152.14 25.8274L150.904 27.4ZM149.344 25.56L147.498 26.3292L147.512 26.3615L147.526 26.3933L149.344 25.56ZM149.704 21.08L148.168 19.7996L148.152 19.8189L148.136 19.8386L149.704 21.08ZM151.704 19.76L152.279 21.6757L152.308 21.6669L152.337 21.6574L151.704 19.76ZM154.264 19.36H156.264V17.36H154.264V19.36ZM155.144 23.68L153.392 24.6438L153.401 24.6605L153.411 24.6769L155.144 23.68ZM157.424 26L156.489 27.7676L156.519 27.7838L156.551 27.799L157.424 26ZM163.464 25.48L162.004 24.1137L162.002 24.1154L163.464 25.48ZM163.744 20.68L162.267 22.0285L162.283 22.0457L162.299 22.0624L163.744 20.68ZM161.304 18.96L160.392 20.7396L160.401 20.7443L160.41 20.7489L161.304 18.96ZM157.584 17.28L158.339 15.4278L158.333 15.4253L157.584 17.28ZM153.784 15.36L152.634 16.9964L152.66 17.014L152.685 17.0308L153.784 15.36ZM150.184 10.84L152.105 10.2824L150.184 10.84ZM151.224 3.88L149.649 2.64738L149.641 2.65811L149.633 2.66895L151.224 3.88ZM155.104 1.04L154.346 -0.810613L155.104 1.04ZM165.864 0.799998L165.166 2.6742L165.178 2.67853L165.864 0.799998ZM168.904 2.72L167.364 3.99513L167.375 4.00846L167.386 4.02158L168.904 2.72ZM168.544 7.6L167.307 6.02901L167.295 6.03831L167.283 6.04777L168.544 7.6ZM164.064 8.64H162.064V10.64H164.064V8.64ZM163.544 5.96L161.676 6.67427L161.68 6.68368L161.684 6.69305L163.544 5.96ZM162.024 3.72L160.641 5.16397L160.671 5.19337L160.703 5.22143L162.024 3.72ZM157.864 3.12L158.607 4.97695L158.607 4.97695L157.864 3.12ZM156.584 4.12L158.184 5.32L158.202 5.29692L158.218 5.27337L156.584 4.12ZM156.624 7.48L158.325 6.42729V6.42729L156.624 7.48ZM158.664 9.32L157.565 10.9908L157.59 11.0075L157.616 11.0233L158.664 9.32ZM163.184 11.48L162.433 13.3335L162.441 13.3369L162.45 13.3403L163.184 11.48ZM167.904 14.08L166.624 15.6164L166.644 15.6329L166.664 15.6488L167.904 14.08ZM170.304 17.04L168.464 17.8223L168.467 17.8307L168.471 17.8392L170.304 17.04ZM169.544 25.12L167.921 23.9514L167.914 23.9622L167.906 23.9731L169.544 25.12ZM165.504 28.28L166.296 30.1168L166.302 30.114L166.309 30.111L165.504 28.28ZM159.344 27.4C157.279 27.4 155.716 27.2193 154.594 26.9113L153.535 30.7687C155.133 31.2074 157.09 31.4 159.344 31.4V27.4ZM154.594 26.9113C153.377 26.5774 152.601 26.1899 152.14 25.8274L149.669 28.9726C150.701 29.7835 152.031 30.3559 153.535 30.7687L154.594 26.9113ZM152.14 25.8274C151.56 25.3719 151.285 24.9945 151.163 24.7267L147.526 26.3933C147.99 27.4055 148.755 28.2548 149.669 28.9726L152.14 25.8274ZM151.191 24.7908C150.99 24.3104 150.944 24.0046 150.944 23.84H146.944C146.944 24.6887 147.165 25.5296 147.498 26.3292L151.191 24.7908ZM150.944 23.84C150.944 22.8864 151.15 22.4757 151.272 22.3214L148.136 19.8386C147.245 20.9643 146.944 22.3936 146.944 23.84H150.944ZM151.241 22.3604C151.522 22.0227 151.854 21.8032 152.279 21.6757L151.13 17.8443C149.955 18.1968 148.953 18.8573 148.168 19.7996L151.241 22.3604ZM152.337 21.6574C152.918 21.4636 153.557 21.36 154.264 21.36V17.36C153.159 17.36 152.091 17.5231 151.072 17.8626L152.337 21.6574ZM152.264 19.36C152.264 21.3578 152.583 23.1721 153.392 24.6438L156.897 22.7162C156.533 22.0545 156.264 20.9889 156.264 19.36H152.264ZM153.411 24.6769C154.174 26.0048 155.187 27.0787 156.489 27.7676L158.36 24.2324C157.848 23.9613 157.341 23.4885 156.878 22.6831L153.411 24.6769ZM156.551 27.799C157.725 28.3697 158.956 28.68 160.224 28.68V24.68C159.626 24.68 158.99 24.537 158.298 24.201L156.551 27.799ZM160.224 28.68C162.021 28.68 163.699 28.1598 164.926 26.8446L162.002 24.1154C161.736 24.4002 161.254 24.68 160.224 24.68V28.68ZM164.925 26.8463C165.955 25.7454 166.624 24.4121 166.624 22.88H162.624C162.624 23.1612 162.521 23.5612 162.004 24.1137L164.925 26.8463ZM166.624 22.88C166.624 21.5147 166.134 20.2853 165.19 19.2976L162.299 22.0624C162.528 22.3013 162.624 22.5386 162.624 22.88H166.624ZM165.221 19.3315C164.441 18.4763 163.397 17.7704 162.199 17.1711L160.41 20.7489C161.345 21.2163 161.928 21.6571 162.267 22.0285L165.221 19.3315ZM162.217 17.1804C161.112 16.6136 159.816 16.0297 158.339 15.4278L156.83 19.1322C158.232 19.7036 159.417 20.2397 160.392 20.7396L162.217 17.1804ZM158.333 15.4253C156.896 14.8455 155.756 14.2628 154.884 13.6892L152.685 17.0308C153.84 17.7905 155.233 18.4879 156.836 19.1347L158.333 15.4253ZM154.934 13.7236C154.066 13.1138 153.436 12.5226 152.997 11.9644L149.852 14.4356C150.586 15.3707 151.529 16.2196 152.634 16.9964L154.934 13.7236ZM152.997 11.9644C152.552 11.3985 152.267 10.8386 152.105 10.2824L148.264 11.3976C148.582 12.4947 149.123 13.5082 149.852 14.4356L152.997 11.9644ZM152.105 10.2824C151.919 9.64095 151.824 8.97556 151.824 8.28H147.824C147.824 9.34443 147.97 10.3857 148.264 11.3976L152.105 10.2824ZM151.824 8.28C151.824 6.9613 152.176 5.93211 152.816 5.09104L149.633 2.66895C148.406 4.28123 147.824 6.18537 147.824 8.28H151.824ZM152.799 5.11262C153.519 4.19303 154.515 3.44287 155.863 2.89061L154.346 -0.810613C152.44 -0.0295439 150.85 1.11364 149.649 2.64738L152.799 5.11262ZM155.863 2.89061C157.215 2.33649 158.778 2.04 160.584 2.04V-1.96C158.337 -1.96 156.247 -1.58982 154.346 -0.810613L155.863 2.89061ZM160.584 2.04C162.611 2.04 164.11 2.28087 165.166 2.67416L166.563 -1.07417C164.898 -1.69421 162.878 -1.96 160.584 -1.96V2.04ZM165.178 2.67853C166.378 3.11695 167.032 3.59443 167.364 3.99513L170.445 1.44487C169.497 0.298895 168.124 -0.503616 166.551 -1.07853L165.178 2.67853ZM167.386 4.02158C167.777 4.47788 167.864 4.81785 167.864 5.08H171.864C171.864 3.68881 171.312 2.45545 170.423 1.41842L167.386 4.02158ZM167.864 5.08C167.864 5.36559 167.779 5.6567 167.307 6.02901L169.782 9.17098C171.07 8.15663 171.864 6.76774 171.864 5.08H167.864ZM167.283 6.04777C166.995 6.28222 166.108 6.64 164.064 6.64V10.64C166.287 10.64 168.387 10.3044 169.806 9.15223L167.283 6.04777ZM166.064 8.64C166.064 7.47164 165.84 6.33016 165.405 5.22695L161.684 6.69305C161.942 7.34983 162.064 7.99503 162.064 8.64H166.064ZM165.412 5.24572C164.961 4.065 164.278 3.03889 163.346 2.21857L160.703 5.22143C161.104 5.57444 161.434 6.04166 161.676 6.67427L165.412 5.24572ZM163.408 2.27602C162.363 1.27468 161.053 0.799999 159.624 0.799999V4.8C160.116 4.8 160.405 4.93865 160.641 5.16397L163.408 2.27602ZM159.624 0.799999C158.759 0.799999 157.917 0.945011 157.122 1.26305L158.607 4.97695C158.879 4.86832 159.21 4.8 159.624 4.8V0.799999ZM157.122 1.26304C156.243 1.61456 155.501 2.18608 154.95 2.96663L158.218 5.27337C158.307 5.14725 158.419 5.0521 158.607 4.97695L157.122 1.26304ZM154.984 2.92C154.327 3.79606 154.104 4.83701 154.104 5.84H158.104C158.104 5.40299 158.201 5.29727 158.184 5.32L154.984 2.92ZM154.104 5.84C154.104 6.82376 154.427 7.73063 154.924 8.53271L158.325 6.42729C158.128 6.10937 158.104 5.9229 158.104 5.84H154.104ZM154.924 8.53271C155.504 9.46912 156.48 10.2767 157.565 10.9908L159.764 7.64917C158.822 7.02993 158.439 6.61087 158.325 6.42729L154.924 8.53271ZM157.616 11.0233C158.795 11.7489 160.42 12.5176 162.433 13.3335L163.936 9.62652C162.002 8.84243 160.613 8.17106 159.713 7.61668L157.616 11.0233ZM162.45 13.3403C164.367 14.0968 165.727 14.8691 166.624 15.6164L169.185 12.5436C167.842 11.4243 166.056 10.4632 163.919 9.61969L162.45 13.3403ZM166.664 15.6488C167.615 16.4009 168.171 17.1343 168.464 17.8223L172.145 16.2577C171.531 14.8124 170.487 13.5724 169.145 12.5112L166.664 15.6488ZM168.471 17.8392C168.801 18.5966 168.984 19.4798 168.984 20.52H172.984C172.984 19.0002 172.714 17.5634 172.138 16.2408L168.471 17.8392ZM168.984 20.52C168.984 21.8584 168.622 22.9778 167.921 23.9514L171.167 26.2886C172.386 24.5955 172.984 22.6482 172.984 20.52H168.984ZM167.906 23.9731C167.218 24.9557 166.186 25.796 164.7 26.449L166.309 30.111C168.343 29.2173 170.004 27.9509 171.183 26.2669L167.906 23.9731ZM164.713 26.4432C163.285 27.0583 161.513 27.4 159.344 27.4V31.4C161.922 31.4 164.257 30.995 166.296 30.1168L164.713 26.4432ZM0.172031 85H-1.82797V87H0.172031V85ZM0.172031 82.56V80.56H-1.82797V82.56H0.172031ZM3.09203 82.28L1.86415 80.7013L1.81852 80.7368L1.77502 80.7748L3.09203 82.28ZM3.65203 81.56L5.47276 82.3876L5.48594 82.3586L5.49819 82.3292L3.65203 81.56ZM3.57203 59.8L1.78318 60.6944L1.812 60.7521L1.84447 60.8077L3.57203 59.8ZM2.89203 59.12L1.86303 60.835L1.96072 60.8936L2.06443 60.9407L2.89203 59.12ZM0.172031 58.88H-1.82797V60.88H0.172031V58.88ZM0.172031 56.44V54.44H-1.82797V56.44H0.172031ZM14.772 56.44H16.772V54.44H14.772V56.44ZM14.772 58.88V60.88H16.772V58.88H14.772ZM12.492 59.12L13.552 60.816L13.6241 60.771L13.692 60.72L12.492 59.12ZM12.012 59.76L13.869 60.5028L13.8808 60.4733L13.8916 60.4435L12.012 59.76ZM11.852 68.72H9.85203V70.72H11.852V68.72ZM20.372 68.72V70.72H22.372V68.72H20.372ZM20.172 59.8L18.2747 60.4325L18.3079 60.532L18.3513 60.6276L20.172 59.8ZM19.652 59.12L18.5426 60.7841L18.61 60.829L18.6807 60.8683L19.652 59.12ZM17.452 58.88H15.452V60.88H17.452V58.88ZM17.452 56.44V54.44H15.452V56.44H17.452ZM32.052 56.44H34.052V54.44H32.052V56.44ZM32.052 58.88V60.88H34.052V58.88H32.052ZM29.092 59.12L30.0633 60.8683L30.1341 60.829L30.2014 60.7841L29.092 59.12ZM28.532 59.8L26.6859 59.0308L26.6682 59.0733L26.6524 59.1165L28.532 59.8ZM28.572 81.56L26.7259 82.3292L26.7259 82.3292L28.572 81.56ZM29.132 82.32L27.9042 83.8987L27.9618 83.9436L28.0226 83.9841L29.132 82.32ZM32.052 82.56H34.052V80.56H32.052V82.56ZM32.052 85V87H34.052V85H32.052ZM17.452 85H15.452V87H17.452V85ZM17.452 82.56V80.56H15.452V82.56H17.452ZM20.172 81.48L18.3053 80.762L18.2807 80.8262L18.2605 80.8918L20.172 81.48ZM20.372 71.48H22.372V69.48H20.372V71.48ZM11.852 71.48V69.48H9.85203V71.48H11.852ZM12.012 81.56L10.1147 82.1925L10.1232 82.2181L10.1324 82.2435L12.012 81.56ZM12.492 82.28L13.809 80.7748L13.809 80.7748L12.492 82.28ZM14.772 82.56H16.772V80.56H14.772V82.56ZM14.772 85V87H16.772V85H14.772ZM2.17203 85V82.56H-1.82797V85H2.17203ZM0.172031 84.56H2.29203V80.56H0.172031V84.56ZM2.29203 84.56C3.02974 84.56 3.78385 84.3322 4.40904 83.7852L1.77502 80.7748C1.86002 80.7005 1.96264 80.6403 2.07133 80.6023C2.17649 80.5655 2.25653 80.56 2.29203 80.56V84.56ZM4.31991 83.8587C4.83066 83.4615 5.21374 82.9575 5.47276 82.3876L1.8313 80.7324C1.82552 80.7451 1.82506 80.7428 1.83333 80.7321C1.83718 80.7272 1.84206 80.7215 1.84782 80.7158C1.85358 80.71 1.8592 80.7051 1.86415 80.7013L4.31991 83.8587ZM5.49819 82.3292C5.73308 81.7655 5.85203 81.1707 5.85203 80.56H1.85203C1.85203 80.6426 1.83765 80.7145 1.80588 80.7908L5.49819 82.3292ZM5.85203 80.56V61H1.85203V80.56H5.85203ZM5.85203 61C5.85203 60.2682 5.71 59.4958 5.29959 58.7923L1.84447 60.8077C1.8074 60.7442 1.85203 60.7718 1.85203 61H5.85203ZM5.36088 58.9056C5.02004 58.2239 4.47644 57.6433 3.71964 57.2993L2.06443 60.9407C1.99392 60.9087 1.92496 60.8614 1.86782 60.8042C1.81261 60.749 1.78826 60.7046 1.78318 60.6944L5.36088 58.9056ZM3.92103 57.405C3.2864 57.0242 2.59487 56.88 1.93203 56.88V60.88C1.97626 60.88 1.98483 60.8848 1.96696 60.8803C1.94715 60.8753 1.90888 60.8625 1.86303 60.835L3.92103 57.405ZM1.93203 56.88H0.172031V60.88H1.93203V56.88ZM2.17203 58.88V56.44H-1.82797V58.88H2.17203ZM0.172031 58.44H14.772V54.44H0.172031V58.44ZM12.772 56.44V58.88H16.772V56.44H12.772ZM14.772 56.88H13.292V60.88H14.772V56.88ZM13.292 56.88C12.6283 56.88 11.9166 57.0516 11.292 57.52L13.692 60.72C13.6023 60.7873 13.5087 60.831 13.4267 60.8557C13.3482 60.8792 13.2982 60.88 13.292 60.88V56.88ZM11.432 57.424C10.7565 57.8462 10.3541 58.4669 10.1324 59.0765L13.8916 60.4435C13.8888 60.4511 13.8683 60.505 13.812 60.58C13.7531 60.6586 13.6667 60.7443 13.552 60.816L11.432 57.424ZM10.1551 59.0172C9.9197 59.6057 9.85203 60.231 9.85203 60.8H13.852C13.852 60.6675 13.8605 60.578 13.8688 60.5241C13.8772 60.4693 13.8829 60.4679 13.869 60.5028L10.1551 59.0172ZM9.85203 60.8V68.72H13.852V60.8H9.85203ZM11.852 70.72H20.372V66.72H11.852V70.72ZM22.372 68.72V60.92H18.372V68.72H22.372ZM22.372 60.92C22.372 60.2895 22.2821 59.6089 21.9928 58.9724L18.3513 60.6276C18.338 60.5984 18.3442 60.601 18.3532 60.6516C18.3622 60.7023 18.372 60.7892 18.372 60.92H22.372ZM22.0694 59.1675C21.8424 58.4866 21.3953 57.8006 20.6233 57.3717L18.6807 60.8683C18.551 60.7962 18.4469 60.7011 18.3733 60.6049C18.3037 60.5138 18.2789 60.4451 18.2747 60.4325L22.0694 59.1675ZM20.7614 57.4559C20.0885 57.0073 19.3393 56.88 18.692 56.88V60.88C18.7618 60.88 18.775 60.8873 18.747 60.8803C18.716 60.8726 18.6386 60.8481 18.5426 60.7841L20.7614 57.4559ZM18.692 56.88H17.452V60.88H18.692V56.88ZM19.452 58.88V56.44H15.452V58.88H19.452ZM17.452 58.44H32.052V54.44H17.452V58.44ZM30.052 56.44V58.88H34.052V56.44H30.052ZM32.052 56.88H29.932V60.88H32.052V56.88ZM29.932 56.88C29.2621 56.88 28.5866 57.0532 27.9826 57.4559L30.2014 60.7841C30.1476 60.82 30.0885 60.8468 30.0315 60.863C29.9761 60.8789 29.9397 60.88 29.932 60.88V56.88ZM28.1207 57.3717C27.3935 57.7757 26.946 58.4064 26.6859 59.0308L30.3782 60.5692C30.3825 60.5588 30.3676 60.5986 30.3159 60.6614C30.2611 60.7279 30.1772 60.805 30.0633 60.8683L28.1207 57.3717ZM26.6524 59.1165C26.4388 59.704 26.372 60.3296 26.372 60.92H30.372C30.372 60.7697 30.381 60.6594 30.3919 60.5828C30.403 60.5056 30.414 60.4769 30.4116 60.4835L26.6524 59.1165ZM26.372 60.92V80.48H30.372V60.92H26.372ZM26.372 80.48C26.372 81.1038 26.4766 81.7309 26.7259 82.3292L30.4182 80.7908C30.4008 80.7491 30.372 80.6562 30.372 80.48H26.372ZM26.7259 82.3292C26.9731 82.9226 27.3554 83.4719 27.9042 83.8987L30.3599 80.7413C30.3897 80.7645 30.4105 80.7878 30.4221 80.8036C30.433 80.8183 30.4294 80.8176 30.4182 80.7908L26.7259 82.3292ZM28.0226 83.9841C28.597 84.367 29.251 84.56 29.932 84.56V80.56C29.9696 80.56 30.0239 80.5655 30.0867 80.5844C30.1499 80.6033 30.2026 80.63 30.2414 80.6559L28.0226 83.9841ZM29.932 84.56H32.052V80.56H29.932V84.56ZM30.052 82.56V85H34.052V82.56H30.052ZM32.052 83H17.452V87H32.052V83ZM19.452 85V82.56H15.452V85H19.452ZM17.452 84.56H18.732V80.56H17.452V84.56ZM18.732 84.56C19.4462 84.56 20.2148 84.376 20.8799 83.8587L18.4242 80.7013C18.5074 80.6365 18.5921 80.5972 18.6597 80.5767C18.7232 80.5573 18.7531 80.56 18.732 80.56V84.56ZM20.8799 83.8587C21.5027 83.3744 21.88 82.73 22.0836 82.0682L18.2605 80.8918C18.2542 80.9122 18.2577 80.8923 18.2851 80.85C18.3142 80.8053 18.3603 80.7509 18.4242 80.7013L20.8799 83.8587ZM22.0387 82.198C22.2723 81.5908 22.372 80.9561 22.372 80.32H18.372C18.372 80.5373 18.3385 80.6759 18.3053 80.762L22.0387 82.198ZM22.372 80.32V71.48H18.372V80.32H22.372ZM20.372 69.48H11.852V73.48H20.372V69.48ZM9.85203 71.48V80.56H13.852V71.48H9.85203ZM9.85203 80.56C9.85203 81.1156 9.93814 81.6629 10.1147 82.1925L13.9094 80.9276C13.8726 80.8171 13.852 80.6977 13.852 80.56H9.85203ZM10.1324 82.2435C10.3424 82.821 10.6829 83.3545 11.175 83.7852L13.809 80.7748C13.8373 80.7996 13.8601 80.8266 13.8761 80.8506C13.8916 80.8738 13.8948 80.8853 13.8916 80.8765L10.1324 82.2435ZM11.175 83.7851C11.8002 84.3322 12.5543 84.56 13.292 84.56V80.56C13.3275 80.56 13.4076 80.5655 13.5127 80.6023C13.6214 80.6403 13.724 80.7005 13.809 80.7748L11.175 83.7851ZM13.292 84.56H14.772V80.56H13.292V84.56ZM12.772 82.56V85H16.772V82.56H12.772ZM14.772 83H0.172031V87H14.772V83ZM41.3277 83.56L42.334 81.8316L41.3277 83.56ZM36.5677 78.4L34.7575 79.2505L34.7617 79.2594L34.766 79.2683L36.5677 78.4ZM36.5677 62.92L34.7701 62.0432L34.7658 62.052L34.7615 62.061L36.5677 62.92ZM41.3277 57.84L42.3176 59.5779L42.3246 59.5738L41.3277 57.84ZM57.0477 57.84L56.0413 59.5684L56.0495 59.5731L56.0577 59.5778L57.0477 57.84ZM61.8477 62.96L60.0545 63.8458L60.0588 63.8544L61.8477 62.96ZM61.8477 78.44L63.6365 79.3344L63.6408 79.3258L61.8477 78.44ZM57.0077 83.56L56.0107 81.8262L56.0013 81.8316L57.0077 83.56ZM53.8077 79.36L55.6333 80.1767L55.6333 80.1767L53.8077 79.36ZM54.7677 75.68L52.7885 75.3921L52.7863 75.4075L52.7843 75.4229L54.7677 75.68ZM54.7677 65.72L52.7837 65.9725L52.7862 65.9928L52.7892 66.0131L54.7677 65.72ZM53.8077 62L55.6333 61.1833H55.6333L53.8077 62ZM52.0077 59.72L50.8172 61.3271L50.8504 61.3517L50.8847 61.375L52.0077 59.72ZM46.5677 59.72L47.6907 61.375L47.6969 61.3707L47.7031 61.3664L46.5677 59.72ZM44.7277 62L42.9202 61.1438L42.9109 61.1634L42.902 61.1833L44.7277 62ZM43.7277 65.72L45.7061 66.0131L45.7068 66.0079L43.7277 65.72ZM43.7277 75.68L41.7485 75.9679L41.7492 75.9731L43.7277 75.68ZM44.7277 79.36L42.902 80.1767L42.9109 80.1965L42.9202 80.2162L44.7277 79.36ZM49.2877 83.4C46.3337 83.4 44.054 82.8331 42.334 81.8316L40.3213 85.2884C42.8147 86.7402 45.8416 87.4 49.2877 87.4V83.4ZM42.334 81.8316C40.5753 80.8075 39.2641 79.3884 38.3693 77.5317L34.766 79.2683C36.0045 81.8382 37.8667 83.8591 40.3213 85.2884L42.334 81.8316ZM38.3778 77.5495C37.4863 75.6523 37.0077 73.3668 37.0077 70.64H33.0077C33.0077 73.8332 33.569 76.7211 34.7575 79.2505L38.3778 77.5495ZM37.0077 70.64C37.0077 67.9124 37.4866 65.6443 38.3738 63.779L34.7615 62.061C33.5687 64.569 33.0077 67.4476 33.0077 70.64H37.0077ZM38.3652 63.7968C39.2561 61.9705 40.5619 60.5779 42.3176 59.5778L40.3377 56.1022C37.8801 57.5021 36.0126 59.4961 34.7701 62.0432L38.3652 63.7968ZM42.3246 59.5738C44.0767 58.5664 46.3751 58 49.3277 58V54C45.8802 54 42.8453 54.6603 40.3307 56.1062L42.3246 59.5738ZM49.3277 58C52.1005 58 54.3071 58.5586 56.0413 59.5684L58.054 56.1116C55.5749 54.6681 52.6348 54 49.3277 54V58ZM56.0577 59.5778C57.811 60.5765 59.1345 61.9833 60.0545 63.8458L63.6408 62.0742C62.3742 59.51 60.4977 57.5035 58.0376 56.1022L56.0577 59.5778ZM60.0588 63.8544C60.987 65.7109 61.4877 67.9659 61.4877 70.68H65.4877C65.4877 67.4741 64.895 64.5825 63.6365 62.0656L60.0588 63.8544ZM61.4877 70.68C61.4877 73.3933 60.9873 75.6659 60.0545 77.5542L63.6408 79.3258C64.8947 76.7875 65.4877 73.8867 65.4877 70.68H61.4877ZM60.0588 77.5456C59.1425 79.3783 57.8057 80.7941 56.0107 81.8262L58.0046 85.2938C60.4763 83.8726 62.3662 81.8751 63.6365 79.3344L60.0588 77.5456ZM56.0013 81.8316C54.2671 82.8414 52.0605 83.4 49.2877 83.4V87.4C52.5948 87.4 55.5349 86.7319 58.014 85.2884L56.0013 81.8316ZM49.2877 84.48C50.7012 84.48 52.0315 84.1208 53.1701 83.3075L50.8452 80.0525C50.4905 80.3059 50.0074 80.48 49.2877 80.48V84.48ZM53.1701 83.3075C54.2611 82.5282 55.0653 81.4464 55.6333 80.1767L51.982 78.5433C51.6434 79.3003 51.2475 79.7651 50.8452 80.0525L53.1701 83.3075ZM55.6333 80.1767C56.1863 78.9405 56.5466 77.5144 56.7511 75.9371L52.7843 75.4229C52.6154 76.7256 52.3356 77.7528 51.982 78.5433L55.6333 80.1767ZM56.7468 75.9679C56.977 74.3852 57.0877 72.6195 57.0877 70.68H53.0877C53.0877 72.4738 52.9849 74.0415 52.7885 75.3921L56.7468 75.9679ZM57.0877 70.68C57.0877 68.7411 56.9771 66.9865 56.7461 65.4269L52.7892 66.0131C52.9849 67.3335 53.0877 68.8856 53.0877 70.68H57.0877ZM56.7517 65.4675C56.5479 63.8664 56.1884 62.424 55.6333 61.1833L51.982 62.8167C52.3336 63.6026 52.6141 64.6403 52.7837 65.9725L56.7517 65.4675ZM55.6333 61.1833C55.0631 59.9087 54.2487 58.8237 53.1307 58.065L50.8847 61.375C51.2599 61.6296 51.6455 62.0646 51.982 62.8167L55.6333 61.1833ZM53.1981 58.1129C52.0717 57.2785 50.7389 56.92 49.3277 56.92V60.92C50.0497 60.92 50.5036 61.0948 50.8172 61.3271L53.1981 58.1129ZM49.3277 56.92C47.9123 56.92 46.5834 57.2797 45.4322 58.0736L47.7031 61.3664C48.0986 61.0937 48.6097 60.92 49.3277 60.92V56.92ZM45.4447 58.065C44.3389 58.8154 43.5162 59.8855 42.9202 61.1438L46.5351 62.8562C46.8991 62.0878 47.3031 61.6379 47.6907 61.375L45.4447 58.065ZM42.902 61.1833C42.353 62.4105 41.9801 63.8399 41.7485 65.4321L45.7068 66.0079C45.9019 64.6668 46.1956 63.6162 46.5533 62.8167L42.902 61.1833ZM41.7492 65.4269C41.5182 66.9865 41.4077 68.7411 41.4077 70.68H45.4077C45.4077 68.8856 45.5105 67.3335 45.7061 66.0131L41.7492 65.4269ZM41.4077 70.68C41.4077 72.6195 41.5183 74.3852 41.7485 75.9679L45.7068 75.3921C45.5104 74.0415 45.4077 72.4738 45.4077 70.68H41.4077ZM41.7492 75.9731C41.9815 77.5411 42.3551 78.9542 42.902 80.1767L46.5533 78.5433C46.1936 77.7392 45.9004 76.6989 45.7061 75.3869L41.7492 75.9731ZM42.9202 80.2162C43.5139 81.4695 44.3261 82.5367 45.4052 83.3075L47.7301 80.0525C47.3159 79.7566 46.9014 79.2771 46.5351 78.5038L42.9202 80.2162ZM45.4052 83.3075C46.5438 84.1208 47.8741 84.48 49.2877 84.48V80.48C48.5679 80.48 48.0848 80.3059 47.7301 80.0525L45.4052 83.3075ZM66.5002 85H64.5002V87H66.5002V85ZM66.5002 82.56V80.56H64.5002V82.56H66.5002ZM69.3402 82.36L70.3114 84.1083L70.3822 84.069L70.4496 84.0241L69.3402 82.36ZM69.9402 81.68L71.6959 82.6377L69.9402 81.68ZM69.9002 59.8L68.1113 60.6944L68.1574 60.7867L68.2128 60.8737L69.9002 59.8ZM69.2202 59.12L68.1912 60.835L68.2888 60.8936L68.3925 60.9407L69.2202 59.12ZM66.5002 58.88H64.5002V60.88H66.5002V58.88ZM66.5002 56.44V54.44H64.5002V56.44H66.5002ZM81.9002 56.44H83.9002V54.44H81.9002V56.44ZM81.9002 58.88V60.88H83.9002V58.88H81.9002ZM78.8602 59.12L79.8314 60.8683L79.9022 60.829L79.9696 60.7841L78.8602 59.12ZM78.3402 59.76L76.4606 59.0765L76.4324 59.1541L76.4106 59.2338L78.3402 59.76ZM78.2202 82.24H76.2202V84.24H78.2202V82.24ZM86.6202 81.96L87.5146 83.7489L87.5381 83.7371L87.5613 83.7247L86.6202 81.96ZM87.6602 80.88L85.9692 79.812L85.9486 79.8446L85.9293 79.8779L87.6602 80.88ZM88.5002 78.84L90.4255 79.3815L90.4261 79.3793L88.5002 78.84ZM89.3402 75.84V73.84H87.8232L87.4142 75.3007L89.3402 75.84ZM91.7002 75.84L93.6992 75.9011L93.7622 73.84H91.7002V75.84ZM91.4202 85V87H93.36L93.4192 85.0611L91.4202 85ZM68.5002 85V82.56H64.5002V85H68.5002ZM66.5002 84.56H68.6202V80.56H66.5002V84.56ZM68.6202 84.56C69.2464 84.56 69.8176 84.3827 70.3114 84.1083L68.3689 80.6117C68.3728 80.6095 68.3984 80.5959 68.4449 80.583C68.4925 80.5697 68.5525 80.56 68.6202 80.56V84.56ZM70.4496 84.0241C70.9989 83.6579 71.4055 83.1702 71.6959 82.6377L68.1844 80.7223C68.1684 80.7515 68.162 80.7564 68.1705 80.7468C68.1797 80.7363 68.1997 80.7166 68.2308 80.6959L70.4496 84.0241ZM71.6959 82.6377C72.045 81.9978 72.1802 81.3089 72.1802 80.64H68.1802C68.1802 80.707 68.1734 80.7413 68.1714 80.7503C68.1696 80.7578 68.1718 80.7454 68.1844 80.7223L71.6959 82.6377ZM72.1802 80.64V60.92H68.1802V80.64H72.1802ZM72.1802 60.92C72.1802 60.1999 72.0318 59.4245 71.5875 58.7262L68.2128 60.8737C68.1966 60.8482 68.1856 60.826 68.1787 60.8095C68.1718 60.7931 68.1697 60.7842 68.1699 60.7851C68.1706 60.7879 68.1802 60.8287 68.1802 60.92H72.1802ZM71.689 58.9056C71.3482 58.2239 70.8046 57.6433 70.0478 57.2993L68.3925 60.9407C68.322 60.9087 68.2531 60.8614 68.1959 60.8042C68.1407 60.749 68.1164 60.7046 68.1113 60.6944L71.689 58.9056ZM70.2492 57.405C69.637 57.0377 68.9666 56.88 68.3002 56.88V60.88C68.3189 60.88 68.3114 60.882 68.2853 60.8752C68.2579 60.8681 68.2243 60.8549 68.1912 60.835L70.2492 57.405ZM68.3002 56.88H66.5002V60.88H68.3002V56.88ZM68.5002 58.88V56.44H64.5002V58.88H68.5002ZM66.5002 58.44H81.9002V54.44H66.5002V58.44ZM79.9002 56.44V58.88H83.9002V56.44H79.9002ZM81.9002 56.88H79.9402V60.88H81.9002V56.88ZM79.9402 56.88C79.3011 56.88 78.472 56.975 77.7507 57.4559L79.9696 60.7841C79.9016 60.8294 79.8439 60.8566 79.8054 60.8719C79.7674 60.8872 79.745 60.8922 79.744 60.8924C79.743 60.8926 79.758 60.8893 79.7923 60.886C79.8264 60.8827 79.875 60.88 79.9402 60.88V56.88ZM77.8889 57.3717C77.1701 57.771 76.7079 58.3965 76.4606 59.0765L80.2197 60.4435C80.2071 60.4783 80.1739 60.5532 80.1024 60.6412C80.0284 60.7322 79.9346 60.811 79.8314 60.8683L77.8889 57.3717ZM76.4106 59.2338C76.2693 59.752 76.2202 60.3011 76.2202 60.84H80.2202C80.2202 60.5256 80.251 60.3546 80.2697 60.2862L76.4106 59.2338ZM76.2202 60.84V82.24H80.2202V60.84H76.2202ZM78.2202 84.24H85.3402V80.24H78.2202V84.24ZM85.3402 84.24C86.084 84.24 86.8246 84.0938 87.5146 83.7489L85.7257 80.1711C85.6691 80.1995 85.5564 80.24 85.3402 80.24V84.24ZM87.5613 83.7247C88.3737 83.2915 88.9643 82.619 89.391 81.8821L85.9293 79.8779C85.7693 80.1543 85.6666 80.2019 85.679 80.1953L87.5613 83.7247ZM89.3511 81.948C89.8108 81.2202 90.1557 80.3407 90.4255 79.3815L86.5749 78.2985C86.3646 79.046 86.1495 79.5265 85.9692 79.812L89.3511 81.948ZM90.4261 79.3793L91.2661 76.3793L87.4142 75.3007L86.5742 78.3007L90.4261 79.3793ZM89.3402 77.84H91.7002V73.84H89.3402V77.84ZM89.7011 75.7789L89.4211 84.9389L93.4192 85.0611L93.6992 75.9011L89.7011 75.7789ZM91.4202 83H66.5002V87H91.4202V83ZM93.5705 85H91.5705V87H93.5705V85ZM93.5705 82.56V80.56H91.5705V82.56H93.5705ZM96.4905 82.28L97.8075 83.7852L97.8134 83.78L97.8192 83.7748L96.4905 82.28ZM97.0505 81.48L95.2043 80.7108L97.0505 81.48ZM97.0105 59.84L95.2216 60.7344L95.2376 60.7664L95.2547 60.7977L97.0105 59.84ZM96.3305 59.12L95.3015 60.835L95.3367 60.8561L95.3728 60.8758L96.3305 59.12ZM93.5705 58.88H91.5705V60.88H93.5705V58.88ZM93.5705 56.44V54.44H91.5705V56.44H93.5705ZM115.49 57.92L114.684 59.7503L114.693 59.7543L114.703 59.7583L115.49 57.92ZM120.65 62.32L118.942 63.3592L120.65 62.32ZM120.73 77.64L118.942 76.7456L118.937 76.7539L118.933 76.7623L120.73 77.64ZM115.69 83.04L114.683 81.3124L114.674 81.3177L115.69 83.04ZM110.61 80.68L111.97 82.1469L111.98 82.138L111.989 82.1291L110.61 80.68ZM113.09 76.36L111.182 75.7603L111.18 75.769L111.177 75.7777L113.09 76.36ZM113.13 63.8L111.246 64.4707L111.25 64.4809L113.13 63.8ZM110.61 60.32L109.483 61.9716L109.492 61.9779L109.501 61.9841L110.61 60.32ZM105.21 59.2V57.2H103.21V59.2H105.21ZM105.21 82.2H103.21V84.2H105.21V82.2ZM95.5705 85V82.56H91.5705V85H95.5705ZM93.5705 84.56H95.6905V80.56H93.5705V84.56ZM95.6905 84.56C96.4282 84.56 97.1823 84.3322 97.8075 83.7852L95.1735 80.7748C95.2585 80.7005 95.3611 80.6403 95.4698 80.6023C95.5749 80.5655 95.655 80.56 95.6905 80.56V84.56ZM97.8192 83.7748C98.3016 83.346 98.657 82.8244 98.8966 82.2492L95.2043 80.7108C95.1895 80.7463 95.1775 80.7652 95.172 80.7731C95.1668 80.7805 95.1637 80.7834 95.1617 80.7852L97.8192 83.7748ZM98.8966 82.2492C99.1459 81.6509 99.2505 81.0238 99.2505 80.4H95.2505C95.2505 80.5762 95.2217 80.6691 95.2043 80.7108L98.8966 82.2492ZM99.2505 80.4V61.04H95.2505V80.4H99.2505ZM99.2505 61.04C99.2505 60.3572 99.1483 59.5827 98.7663 58.8823L95.2547 60.7977C95.2195 60.7333 95.2205 60.708 95.2293 60.7522C95.2382 60.7965 95.2505 60.8882 95.2505 61.04H99.2505ZM98.7993 58.9456C98.4703 58.2876 97.9658 57.7338 97.2882 57.3642L95.3728 60.8758C95.3372 60.8564 95.2992 60.8279 95.2664 60.7932C95.2511 60.7771 95.2399 60.7625 95.2322 60.7514C95.2246 60.7403 95.2214 60.7341 95.2216 60.7344L98.7993 58.9456ZM97.3595 57.405C96.7248 57.0242 96.0333 56.88 95.3705 56.88V60.88C95.4147 60.88 95.4233 60.8848 95.4054 60.8803C95.3856 60.8753 95.3473 60.8625 95.3015 60.835L97.3595 57.405ZM95.3705 56.88H93.5705V60.88H95.3705V56.88ZM95.5705 58.88V56.44H91.5705V58.88H95.5705ZM93.5705 58.44H107.49V54.44H93.5705V58.44ZM107.49 58.44C110.377 58.44 112.756 58.9009 114.684 59.7503L116.297 56.0897C113.745 54.9658 110.791 54.44 107.49 54.44V58.44ZM114.703 59.7583C116.582 60.5639 117.97 61.7619 118.942 63.3592L122.359 61.2808C120.931 58.9315 118.879 57.1961 116.278 56.0817L114.703 59.7583ZM118.942 63.3592C119.9 64.935 120.45 67.0534 120.45 69.84H124.45C124.45 66.5466 123.801 63.6516 122.359 61.2808L118.942 63.3592ZM120.45 69.84C120.45 72.478 119.932 74.765 118.942 76.7456L122.519 78.5344C123.822 75.9283 124.45 73.0154 124.45 69.84H120.45ZM118.933 76.7623C117.99 78.6946 116.587 80.2015 114.683 81.3124L116.698 84.7676C119.274 83.2652 121.231 81.1721 122.528 78.5177L118.933 76.7623ZM114.674 81.3177C112.84 82.4002 110.48 83 107.49 83V87C111.008 87 114.114 86.2931 116.707 84.7623L114.674 81.3177ZM107.49 83H93.5705V87H107.49V83ZM106.53 84.2C108.611 84.2 110.472 83.5355 111.97 82.1469L109.251 79.2131C108.563 79.8512 107.703 80.2 106.53 80.2V84.2ZM111.989 82.1291C113.392 80.7944 114.37 79.0237 115.004 76.9423L111.177 75.7777C110.691 77.3763 110.016 78.4855 109.232 79.2309L111.989 82.1291ZM114.998 76.9597C115.66 74.8551 115.97 72.4717 115.97 69.84H111.97C111.97 72.1683 111.694 74.1316 111.182 75.7603L114.998 76.9597ZM115.97 69.84C115.97 67.2337 115.679 64.9653 115.011 63.1191L111.25 64.4809C111.701 65.728 111.97 67.4863 111.97 69.84H115.97ZM115.015 63.1293C114.346 61.2494 113.277 59.6941 111.72 58.6559L109.501 61.9841C110.184 62.4392 110.795 63.2039 111.246 64.4706L115.015 63.1293ZM111.738 58.6684C110.249 57.651 108.488 57.2 106.57 57.2V61.2C107.853 61.2 108.786 61.4956 109.483 61.9716L111.738 58.6684ZM106.57 57.2H105.21V61.2H106.57V57.2ZM103.21 59.2V82.2H107.21V59.2H103.21ZM105.21 84.2H106.53V80.2H105.21V84.2ZM129.766 68.6L127.799 68.9623L128.101 70.6H129.766V68.6ZM127.526 56.44V54.44H125.124L125.56 56.8023L127.526 56.44ZM135.246 56.44L137.213 56.8023L137.648 54.44H135.246V56.44ZM133.006 68.6V70.6H134.672L134.973 68.9623L133.006 68.6ZM131.733 68.2377L129.493 56.0777L125.56 56.8023L127.799 68.9623L131.733 68.2377ZM127.526 58.44H135.246V54.44H127.526V58.44ZM133.279 56.0777L131.04 68.2377L134.973 68.9623L137.213 56.8023L133.279 56.0777ZM133.006 66.6H129.766V70.6H133.006V66.6ZM139.039 85H137.039V87H139.039V85ZM139.039 82.56V80.56H137.039V82.56H139.039ZM141.999 82.32L143.109 83.9841L143.169 83.9436L143.227 83.8987L141.999 82.32ZM142.519 81.6L140.698 80.7724L140.666 80.8433L140.64 80.9165L142.519 81.6ZM142.479 59.64L140.69 60.5344L140.706 60.5664L140.723 60.5977L142.479 59.64ZM141.839 59.04L141.096 60.8969L141.179 60.93L141.265 60.9557L141.839 59.04ZM139.039 58.88H137.039V60.88H139.039V58.88ZM139.039 56.44V54.44H137.039V56.44H139.039ZM162.759 56.44L164.759 56.4086L164.728 54.44H162.759V56.44ZM162.879 64.08V66.08H164.911L164.879 64.0486L162.879 64.08ZM159.559 64.08L157.569 64.279L157.749 66.08H159.559V64.08ZM159.359 62.08L157.365 62.2277L157.367 62.2534L157.369 62.279L159.359 62.08ZM158.999 60.4L157.167 61.2016L157.177 61.2238L157.187 61.2458L158.999 60.4ZM158.159 59.48L157.211 61.2409L157.238 61.2553L157.265 61.2689L158.159 59.48ZM150.679 59.2V57.2H148.679V59.2H150.679ZM150.679 68.72H148.679V70.72H150.679V68.72ZM160.119 68.72H162.119V66.72H160.119V68.72ZM160.119 71.44V73.44H162.119V71.44H160.119ZM150.679 71.44V69.44H148.679V71.44H150.679ZM150.679 82.24H148.679V84.24H150.679V82.24ZM159.279 81.88L160.361 83.5624L159.279 81.88ZM160.159 80.88L158.416 79.8995L158.392 79.942L158.37 79.9856L160.159 80.88ZM160.639 79.36L158.664 79.044L158.661 79.0669L158.658 79.0898L160.639 79.36ZM160.959 77.36V75.36H159.254L158.984 77.044L160.959 77.36ZM164.239 77.36L166.238 77.4333L166.314 75.36H164.239V77.36ZM163.959 85V87H165.887L165.958 85.0732L163.959 85ZM141.039 85V82.56H137.039V85H141.039ZM139.039 84.56H141.079V80.56H139.039V84.56ZM141.079 84.56C141.732 84.56 142.456 84.4193 143.109 83.9841L140.89 80.6559C141.063 80.5407 141.173 80.56 141.079 80.56V84.56ZM143.227 83.8987C143.772 83.4745 144.167 82.9207 144.399 82.2835L140.64 80.9165C140.646 80.899 140.661 80.8667 140.688 80.829C140.715 80.791 140.746 80.7613 140.771 80.7413L143.227 83.8987ZM144.34 82.4276C144.609 81.8363 144.719 81.2138 144.719 80.6H140.719C140.719 80.6677 140.713 80.7121 140.708 80.7378C140.705 80.7506 140.703 80.7593 140.701 80.7644C140.7 80.7695 140.699 80.772 140.698 80.7724L144.34 82.4276ZM144.719 80.6V61.04H140.719V80.6H144.719ZM144.719 61.04C144.719 60.3194 144.644 59.432 144.235 58.6823L140.723 60.5977C140.664 60.4889 140.671 60.4486 140.688 60.5479C140.704 60.6386 140.719 60.7966 140.719 61.04H144.719ZM144.268 58.7456C143.936 58.0809 143.349 57.4049 142.414 57.1243L141.265 60.9557C141.087 60.9023 140.939 60.8096 140.831 60.7091C140.732 60.6156 140.693 60.5403 140.69 60.5344L144.268 58.7456ZM142.582 57.183C142.074 56.9798 141.541 56.88 140.999 56.88V60.88C141.044 60.88 141.071 60.8868 141.096 60.8969L142.582 57.183ZM140.999 56.88H139.039V60.88H140.999V56.88ZM141.039 58.88V56.44H137.039V58.88H141.039ZM139.039 58.44H162.759V54.44H139.039V58.44ZM160.759 56.4714L160.879 64.1114L164.879 64.0486L164.759 56.4086L160.759 56.4714ZM162.879 62.08H159.559V66.08H162.879V62.08ZM161.549 63.881L161.349 61.881L157.369 62.279L157.569 64.279L161.549 63.881ZM161.354 61.9323C161.292 61.1043 161.145 60.2694 160.812 59.5542L157.187 61.2458C157.226 61.3306 157.319 61.6157 157.365 62.2277L161.354 61.9323ZM160.832 59.5984C160.48 58.7959 159.894 58.1115 159.054 57.6911L157.265 61.2689C157.251 61.262 157.234 61.252 157.217 61.2386C157.199 61.2252 157.184 61.2112 157.172 61.1985C157.148 61.1719 157.151 61.1647 157.167 61.2016L160.832 59.5984ZM159.107 57.7191C158.341 57.3066 157.466 57.2 156.679 57.2V61.2C156.907 61.2 157.061 61.217 157.157 61.2351C157.255 61.2536 157.26 61.2673 157.211 61.2409L159.107 57.7191ZM156.679 57.2H150.679V61.2H156.679V57.2ZM148.679 59.2V68.72H152.679V59.2H148.679ZM150.679 70.72H160.119V66.72H150.679V70.72ZM158.119 68.72V71.44H162.119V68.72H158.119ZM160.119 69.44H150.679V73.44H160.119V69.44ZM148.679 71.44V82.24H152.679V71.44H148.679ZM150.679 84.24H157.839V80.24H150.679V84.24ZM157.839 84.24C158.688 84.24 159.576 84.0666 160.361 83.5624L158.198 80.1976C158.235 80.1734 158.163 80.24 157.839 80.24V84.24ZM160.361 83.5624C161.059 83.1135 161.586 82.4976 161.948 81.7744L158.37 79.9856C158.305 80.1157 158.246 80.1665 158.198 80.1976L160.361 83.5624ZM161.902 81.8605C162.289 81.1735 162.514 80.4156 162.621 79.6302L158.658 79.0898C158.605 79.4777 158.51 79.7332 158.416 79.8995L161.902 81.8605ZM162.614 79.676L162.934 77.676L158.984 77.044L158.664 79.044L162.614 79.676ZM160.959 79.36H164.239V75.36H160.959V79.36ZM162.241 77.2868L161.961 84.9268L165.958 85.0732L166.238 77.4333L162.241 77.2868ZM163.959 83H139.039V87H163.959V83ZM166.031 85H164.031V87H166.031V85ZM166.031 82.56V80.56H164.031V82.56H166.031ZM168.631 82.36L169.349 84.2267L169.41 84.2033L169.47 84.1759L168.631 82.36ZM169.431 81.64L171.159 82.6477L171.176 82.6183L171.192 82.5882L169.431 81.64ZM169.431 59.84L167.643 60.7344L167.671 60.7921L167.704 60.8477L169.431 59.84ZM168.791 59.12L167.682 60.7841L167.722 60.8105L167.762 60.835L168.791 59.12ZM166.031 58.88H164.031V60.88H166.031V58.88ZM166.031 56.44V54.44H164.031V56.44H166.031ZM179.311 56.44L181.213 55.8199L180.763 54.44H179.311V56.44ZM184.751 73.12L182.85 73.7401L184.832 79.8169L186.667 73.6943L184.751 73.12ZM189.751 56.44V54.44H188.263L187.836 55.8657L189.751 56.44ZM202.871 56.44H204.871V54.44H202.871V56.44ZM202.871 58.88V60.88H204.871V58.88H202.871ZM200.031 59.12L201.091 60.816L201.116 60.8004L201.141 60.7841L200.031 59.12ZM199.471 59.76L201.186 60.789L201.208 60.7538L201.227 60.7177L199.471 59.76ZM199.431 81.72L197.611 82.5476L197.626 82.5813L197.643 82.6144L199.431 81.72ZM200.071 82.36L199.114 84.1158L199.178 84.1506L199.244 84.1807L200.071 82.36ZM202.871 82.56H204.871V80.56H202.871V82.56ZM202.871 85V87H204.871V85H202.871ZM188.471 85H186.471V87H188.471V85ZM188.471 82.56V80.56H186.471V82.56H188.471ZM190.391 82.32L189.553 80.5041L189.525 80.5172L189.497 80.5311L190.391 82.32ZM191.111 81.56L189.273 80.7722L189.258 80.8068L189.245 80.842L191.111 81.56ZM191.351 61.12H193.351L189.438 60.5368L191.351 61.12ZM184.071 85V87H185.553L185.984 85.5832L184.071 85ZM180.911 85L179.01 85.6191L179.459 87H180.911V85ZM173.111 61.04L175.013 60.4209L171.111 61.04H173.111ZM173.471 81.72L175.116 80.5816H175.116L173.471 81.72ZM174.471 82.4L173.986 84.3403L174 84.3437L174.013 84.3468L174.471 82.4ZM176.471 82.56H178.471V80.56H176.471V82.56ZM176.471 85V87H178.471V85H176.471ZM168.031 85V82.56H164.031V85H168.031ZM166.031 84.56H167.351V80.56H166.031V84.56ZM167.351 84.56C168.02 84.56 168.707 84.4738 169.349 84.2267L167.913 80.4933C167.863 80.5128 167.696 80.56 167.351 80.56V84.56ZM169.47 84.1759C170.176 83.8497 170.759 83.3333 171.159 82.6477L167.704 80.6323C167.711 80.6193 167.728 80.5964 167.753 80.5734C167.779 80.5508 167.796 80.5428 167.793 80.5441L169.47 84.1759ZM171.192 82.5882C171.575 81.8784 171.711 81.1053 171.711 80.36H167.711C167.711 80.6281 167.662 80.7083 167.67 80.6918L171.192 82.5882ZM171.711 80.36V61.08H167.711V80.36H171.711ZM171.711 61.08C171.711 60.3441 171.578 59.5504 171.159 58.8323L167.704 60.8477C167.681 60.8079 167.683 60.7951 167.691 60.8305C167.699 60.8678 167.711 60.947 167.711 61.08H171.711ZM171.22 58.9456C170.916 58.3377 170.46 57.7888 169.82 57.405L167.762 60.835C167.716 60.8072 167.68 60.7754 167.657 60.7487C167.634 60.7235 167.632 60.7138 167.643 60.7344L171.22 58.9456ZM169.901 57.4559C169.326 57.073 168.672 56.88 167.991 56.88V60.88C167.954 60.88 167.9 60.8745 167.837 60.8557C167.774 60.8367 167.721 60.81 167.682 60.7841L169.901 57.4559ZM167.991 56.88H166.031V60.88H167.991V56.88ZM168.031 58.88V56.44H164.031V58.88H168.031ZM166.031 58.44H179.311V54.44H166.031V58.44ZM177.41 57.0601L182.85 73.7401L186.653 72.4999L181.213 55.8199L177.41 57.0601ZM186.667 73.6943L191.667 57.0143L187.836 55.8657L182.836 72.5457L186.667 73.6943ZM189.751 58.44H202.871V54.44H189.751V58.44ZM200.871 56.44V58.88H204.871V56.44H200.871ZM202.871 56.88H200.751V60.88H202.871V56.88ZM200.751 56.88C200.043 56.88 199.423 57.1217 198.922 57.4559L201.141 60.7841C201.133 60.7892 201.094 60.8139 201.024 60.8374C200.951 60.8616 200.858 60.88 200.751 60.88V56.88ZM198.971 57.424C198.386 57.7897 197.988 58.3028 197.716 58.8023L201.227 60.7177C201.275 60.6305 201.25 60.717 201.091 60.816L198.971 57.424ZM197.756 58.731C197.353 59.4034 197.231 60.1403 197.231 60.8H201.231C201.231 60.7555 201.234 60.7229 201.236 60.7008C201.238 60.6787 201.24 60.669 201.24 60.6697C201.24 60.6717 201.228 60.7189 201.186 60.789L197.756 58.731ZM197.231 60.8V80.68H201.231V60.8H197.231ZM197.231 80.68C197.231 81.2984 197.334 81.9396 197.611 82.5476L201.252 80.8924C201.262 80.9138 201.231 80.8616 201.231 80.68H197.231ZM197.643 82.6144C197.98 83.2897 198.507 83.7848 199.114 84.1158L201.029 80.6042C201.032 80.606 201.064 80.6237 201.106 80.6658C201.149 80.7093 201.19 80.7643 201.22 80.8256L197.643 82.6144ZM199.244 84.1807C199.867 84.4639 200.527 84.56 201.151 84.56V80.56C200.922 80.56 200.863 80.5227 200.899 80.5393L199.244 84.1807ZM201.151 84.56H202.871V80.56H201.151V84.56ZM200.871 82.56V85H204.871V82.56H200.871ZM202.871 83H188.471V87H202.871V83ZM190.471 85V82.56H186.471V85H190.471ZM188.471 84.56H189.071V80.56H188.471V84.56ZM189.071 84.56C189.784 84.56 190.575 84.4644 191.286 84.1089L189.497 80.5311C189.543 80.5083 189.542 80.5181 189.464 80.5323C189.387 80.5462 189.26 80.56 189.071 80.56V84.56ZM191.23 84.1359C192.034 83.7645 192.652 83.1255 192.978 82.278L189.245 80.842C189.266 80.7871 189.308 80.7098 189.38 80.6345C189.45 80.5601 189.518 80.5205 189.553 80.5041L191.23 84.1359ZM192.95 82.3478C193.253 81.6407 193.351 80.8668 193.351 80.12H189.351C189.351 80.5465 189.29 80.7326 189.273 80.7722L192.95 82.3478ZM193.351 80.12V61.12H189.351V80.12H193.351ZM189.438 60.5368L182.158 84.4168L185.984 85.5832L193.264 61.7032L189.438 60.5368ZM184.071 83H180.911V87H184.071V83ZM182.813 84.3809L175.013 60.4209L171.21 61.6591L179.01 85.6191L182.813 84.3809ZM171.111 61.04V80.16H175.111V61.04H171.111ZM171.111 80.16C171.111 81.0223 171.249 82.0241 171.827 82.8584L175.116 80.5816C175.173 80.6637 175.168 80.6964 175.15 80.6203C175.133 80.544 175.111 80.3977 175.111 80.16H171.111ZM171.827 82.8584C172.356 83.6226 173.111 84.1214 173.986 84.3403L174.956 80.4597C174.951 80.4583 174.981 80.4656 175.026 80.4961C175.072 80.5275 175.102 80.562 175.116 80.5816L171.827 82.8584ZM174.013 84.3468C174.661 84.4992 175.37 84.56 176.111 84.56V80.56C175.573 80.56 175.189 80.5141 174.929 80.4532L174.013 84.3468ZM176.111 84.56H176.471V80.56H176.111V84.56ZM174.471 82.56V85H178.471V82.56H174.471ZM176.471 83H166.031V87H176.471V83Z" fill="url(#paint0_linear_23_714)"/>
<defs>
<linearGradient id="paint0_linear_23_714" x1="93.5" y1="-38.5" x2="125" y2="106" gradientUnits="userSpaceOnUse">
<stop stop-color="#BEA54B"/>
<stop offset="0.688343" stop-color="#FCEBAD"/>
<stop offset="1" stop-color="#BEA54B"/>
</linearGradient>
</defs>
</svg>
