<?xml version="1.0" standalone="no"?>
<!DOCTYPE svg PUBLIC "-//W3C//DTD SVG 20010904//EN"
 "http://www.w3.org/TR/2001/REC-SVG-20010904/DTD/svg10.dtd">
<svg version="1.0" xmlns="http://www.w3.org/2000/svg"
 width="100.000000pt" height="34.000000pt" viewBox="0 0 100.000000 34.000000"
 preserveAspectRatio="xMidYMid meet">

<g transform="translate(0.000000,34.000000) scale(0.100000,-0.100000)"
fill="#ffffff" stroke="none">
<path d="M10 338 c0 -4 5 -19 12 -33 l12 -26 17 22 17 22 6 -21 c7 -22 26 -31
26 -12 0 6 -4 10 -8 10 -5 0 -13 10 -19 22 l-10 23 -13 -24 -12 -24 -14 24
c-7 13 -13 21 -14 17z"/>
<path d="M105 329 c-4 -6 -5 -12 -2 -15 2 -3 7 2 10 11 7 17 1 20 -8 4z"/>
<path d="M202 310 c0 -19 2 -27 5 -17 2 9 2 25 0 35 -3 9 -5 1 -5 -18z"/>
<path d="M301 308 c2 -31 2 -32 6 -5 l4 28 20 -26 c27 -34 39 -32 38 8 l-1 32
-7 -30 -6 -29 -18 27 c-23 36 -37 34 -36 -5z"/>
<path d="M461 308 c1 -29 2 -30 8 -10 l6 24 19 -21 c27 -29 36 -26 35 12 l-1
32 -7 -30 -7 -30 -18 28 c-24 36 -36 34 -35 -5z"/>
<path d="M610 310 c0 -27 3 -30 33 -29 30 2 30 2 4 6 -35 5 -33 35 3 44 23 6
22 7 -7 8 -30 1 -33 -2 -33 -29z"/>
<path d="M761 308 c0 -18 3 -27 6 -20 2 6 13 12 23 12 10 0 21 -6 23 -12 3 -7
6 2 6 20 1 29 -2 32 -29 32 -27 0 -30 -3 -29 -32z m49 12 c0 -5 -9 -10 -20
-10 -11 0 -20 5 -20 10 0 6 9 10 20 10 11 0 20 -4 20 -10z"/>
<path d="M910 323 c0 -14 2 -15 9 -4 5 8 18 12 30 8 12 -3 19 -1 15 4 -10 17
-54 10 -54 -8z"/>
<path d="M960 301 c0 -9 -9 -12 -25 -9 -14 3 -25 1 -25 -3 0 -13 48 -11 55 2
4 6 4 13 1 16 -3 4 -6 1 -6 -6z"/>
<path d="M0 174 l0 -65 28 3 c19 2 28 9 30 26 3 20 9 22 56 22 64 0 85 17 68
55 -11 24 -16 25 -97 25 l-85 0 0 -66z m130 27 c0 -14 -9 -20 -35 -23 -31 -4
-35 -1 -35 19 0 20 5 23 35 23 28 0 35 -4 35 -19z"/>
<path d="M216 224 c-9 -8 -16 -31 -16 -49 0 -44 29 -65 93 -65 80 0 124 63 77
110 -26 26 -130 29 -154 4z m92 -6 c7 -7 12 -16 12 -22 0 -5 -6 -2 -13 9 -9
11 -19 15 -27 10 -9 -5 -11 -4 -6 3 9 15 19 15 34 0z m-11 -72 c-2 -6 -13 -9
-23 -8 -32 6 -34 17 -3 18 18 1 28 -3 26 -10z m38 4 c-3 -5 -12 -10 -18 -10
-7 0 -6 4 3 10 19 12 23 12 15 0z"/>
<path d="M400 175 l0 -66 28 3 c22 2 28 8 30 35 l3 32 49 -35 c34 -25 58 -34
77 -32 28 3 28 4 -19 38 -27 18 -48 37 -48 40 0 3 19 16 43 27 33 17 37 22 19
22 -12 1 -45 -10 -72 -24 l-49 -25 -3 23 c-2 16 -11 23 -30 25 l-28 3 0 -66z"/>
<path d="M617 222 c-10 -10 -17 -33 -17 -50 0 -44 30 -62 107 -62 76 0 84 18
11 22 l-53 3 0 40 0 40 53 3 c76 4 64 22 -16 22 -54 0 -72 -4 -85 -18z"/>
<path d="M790 175 c0 -63 1 -65 25 -65 24 0 25 3 25 55 l0 55 40 0 c29 0 40
-4 40 -15 0 -10 -11 -15 -35 -15 -19 0 -35 -3 -35 -7 1 -18 89 -73 116 -73
l29 1 -33 28 c-31 27 -32 29 -12 34 17 4 21 12 18 34 l-3 28 -87 3 -88 3 0
-66z"/>
<path d="M670 180 c0 -5 23 -10 50 -10 28 0 50 5 50 10 0 6 -22 10 -50 10 -27
0 -50 -4 -50 -10z"/>
<path d="M262 38 c3 -30 6 -33 37 -33 19 0 36 6 38 12 3 9 -4 11 -26 7 -24 -5
-31 -3 -31 10 0 11 9 16 31 16 17 0 28 4 24 10 -3 6 -22 10 -41 10 -34 0 -35
-1 -32 -32z"/>
<path d="M392 38 c3 -29 7 -33 36 -36 18 -2 32 1 32 7 0 6 -9 11 -20 11 -15 0
-20 7 -20 25 0 16 -6 25 -16 25 -11 0 -14 -8 -12 -32z"/>
<path d="M512 38 c3 -30 6 -33 38 -33 32 0 35 3 38 33 2 18 -1 32 -7 32 -6 0
-11 -11 -11 -25 0 -18 -5 -25 -20 -25 -15 0 -20 7 -20 25 0 14 -5 25 -11 25
-6 0 -9 -14 -7 -32z"/>
<path d="M650 34 c0 -35 1 -35 38 -32 34 3 37 6 40 36 3 31 2 32 -37 32 -40 0
-41 -1 -41 -36z m53 9 c-7 -2 -19 -2 -25 0 -7 3 -2 5 12 5 14 0 19 -2 13 -5z
m0 -20 c-7 -2 -19 -2 -25 0 -7 3 -2 5 12 5 14 0 19 -2 13 -5z"/>
<path d="M113 33 c20 -2 54 -2 75 0 20 2 3 4 -38 4 -41 0 -58 -2 -37 -4z"/>
<path d="M803 33 c20 -2 54 -2 75 0 20 2 3 4 -38 4 -41 0 -58 -2 -37 -4z"/>
</g>
</svg>
