<svg id="Logo_Small" xmlns="http://www.w3.org/2000/svg" xmlns:xlink="http://www.w3.org/1999/xlink" width="120" height="40.899" viewBox="0 0 120 40.899">
  <defs>
    <linearGradient id="linear-gradient" x1="0.5" x2="0.5" y2="1" gradientUnits="objectBoundingBox">
      <stop offset="0" stop-color="#ec1e24"/>
      <stop offset="1" stop-color="#a71e22"/>
    </linearGradient>
  </defs>
  <path id="Poker" d="M103.2,63.232a.711.711,0,0,0-.751.795V65.1a.718.718,0,0,0,.595.788.7.7,0,0,0,.1.008.733.733,0,0,0,.074,0l11.055,0c.554,0,.751-.32.751-.62v-1.4a.662.662,0,0,0-.751-.642Zm-13-5.748a2.34,2.34,0,0,0-1.027.249L78,63.065l-.022.011a.944.944,0,0,0-.49.975v.662a.981.981,0,0,0,.449.932l10.22,7.02a2.054,2.054,0,0,0,1.17.367c.049,0,.1,0,.146-.005l5.264-.005c.6,0,.813-.343.813-.683a.87.87,0,0,0-.44-.709L83.59,63.577l10.14-4.857a.679.679,0,0,0,.42-.617.61.61,0,0,0-.668-.62ZM54.274,63.265a3.024,3.024,0,0,1-.141-.917,2.779,2.779,0,1,1,5.552,0,3.014,3.014,0,0,1-.142.914l-.142.448.467-.039c.075-.006.151-.009.228-.009a2.9,2.9,0,0,1,.013,5.8,2.739,2.739,0,0,1-2.118-1.008l-.925-1.122.4,1.467a3.1,3.1,0,0,0,.984,1.505.315.315,0,0,1,.113.242v.191a.314.314,0,0,1-.313.314h-2.68a.314.314,0,0,1-.313-.314v-.191a.315.315,0,0,1,.112-.242,3.1,3.1,0,0,0,.986-1.509l.4-1.468-.929,1.129a2.722,2.722,0,0,1-2.1,1.007,2.9,2.9,0,0,1,0-5.8c.077,0,.153,0,.228.009l.467.039ZM52,57.48c-4.077,0-6.924,3.2-6.924,7.771,0,4.5,2.912,7.771,6.924,7.771H61.82c4.012,0,6.924-3.268,6.924-7.771,0-4.576-2.847-7.771-6.924-7.771Zm62.407,0H100.678c-4.065,0-6.9,3.2-6.9,7.771,0,4.5,2.9,7.771,6.9,7.771h0l13.785-.006a.712.712,0,0,0,.081,0,.7.7,0,0,0,.686-.606.739.739,0,0,0,.005-.164v-1.1a.711.711,0,0,0-.751-.8H104.329c-1.506,0-2.9-.635-2.9-5.241,0-4.161,1.109-5,2.9-5h10.095a.714.714,0,0,0,.772-.751v-1.1a.731.731,0,0,0-.642-.787.7.7,0,0,0-.15,0m-38.27,0H70.742c-.02,0-.04,0-.061,0a.715.715,0,0,0-.7.648.76.76,0,0,0,0,.142v14a.717.717,0,0,0,.646.763h.016l.089,0,5.4-.005c.022,0,.044,0,.067,0a.711.711,0,0,0,.7-.634l0-.016,0-.106v-14a.725.725,0,0,0-.625-.786.676.676,0,0,0-.082,0l-.06,0m40.775.689a.846.846,0,0,0,0,.214V72.264a.718.718,0,0,0,.646.763h.016l.089,0h5.406c.022,0,.044,0,.067,0a.711.711,0,0,0,.7-.634l0-.015,0-.106V60.12H130.9c1.437,0,2.023.486,2.023,1.676,0,1.221-.6,1.742-2,1.742h-5.548a.625.625,0,0,0-.081,0,.7.7,0,0,0-.686.6.743.743,0,0,0-.006.166v.512a1.014,1.014,0,0,0,.441.909l8.405,6.757a2.826,2.826,0,0,0,1.974.542h5.551l.055,0a.6.6,0,0,0,.585-.541l0-.068,0-.03a.836.836,0,0,0-.24-.491l-.017-.017-7.985-5.744H135.3c2.773,0,4.565-1.668,4.565-4.25a4.247,4.247,0,0,0-4.565-4.4h-17.52a.747.747,0,0,0-.093-.006.8.8,0,0,0-.781.694M39.587,57.48H22.456c-.021,0-.042,0-.062,0a.777.777,0,0,0-.767.713.825.825,0,0,0,0,.169v13.9a.7.7,0,0,0,.594.765.685.685,0,0,0,.09.006c.021,0,.043,0,.064,0h5.385a.709.709,0,0,0,.081,0,.7.7,0,0,0,.686-.605.743.743,0,0,0,.006-.165V60.12h6.849c.06-.005.119-.007.178-.007a2.284,2.284,0,0,1,2.214,2.155,2.64,2.64,0,0,1,0,.361,2.285,2.285,0,0,1-2.545,2.485H30.074l-.061,0a.715.715,0,0,0-.7.649.757.757,0,0,0,0,.142v1.09a.717.717,0,0,0,.646.763h.017l.089,0h9.007c3.37,0,5.548-1.977,5.548-5.021a4.917,4.917,0,0,0-4.5-5.251q-.132-.007-.263-.008c-.093,0-.185,0-.258.008" transform="translate(-21.623 -45.498)" fill="#fff"/>
  <path id="Winner" d="M26.208.063,28.5,5.8,30.686.063h1.86L34.7,5.8,37.034.063h1.6L35.68,7.122H33.628L31.606,1.577,29.544,7.122H27.5L24.6.063ZM48.265,7.122h1.557V.063H48.265ZM60.021.063V7.122h1.506L61.5,1.28l5.034,5.841h2.426V.063H67.471l.03,5.873L62.437.063H60.021m19.125,0V7.122h1.506l-.03-5.841,5.034,5.841h2.426V.063H86.6l.03,5.873L81.563.063H79.147m19.126,0V7.122H105.5V5.884H99.809v-1.8h5.357V2.974H99.809V1.3h5.63V.063H98.273m17.134,0V7.122h1.547V4.92h3.75c1.021-.01,1.233.18,1.253,1.143V7.122h1.567v-1.4c.01-1.121-.182-1.4-1.031-1.471a1.228,1.228,0,0,0,.849-.466,2.448,2.448,0,0,0,.293-1.471A2.56,2.56,0,0,0,123.2.624c-.364-.413-.9-.561-2.082-.561h-5.711m5.246,3.555h-3.7V1.386h3.73c1.152,0,1.385.2,1.385,1.175,0,.847-.283,1.058-1.415,1.058m14.415,1.27h-1.526c-.01.137-.01.3-.01.36a1.845,1.845,0,0,0,.435,1.4c.425.423,1.182.54,3.609.54,2.274,0,3.144-.148,3.588-.593a2.153,2.153,0,0,0,.485-1.587,2.086,2.086,0,0,0-.414-1.471c-.425-.476-1.041-.593-3.063-.593h-1.142a3.727,3.727,0,0,1-1.678-.18.659.659,0,0,1-.283-.624.7.7,0,0,1,.364-.688,7.465,7.465,0,0,1,2.466-.244,4.685,4.685,0,0,1,1.678.222c.212.106.314.317.324.73h1.516V2.021c0-1.09-.293-1.566-1.132-1.82a9.389,9.389,0,0,0-2.548-.2c-2.224,0-3.255.169-3.71.614a2.436,2.436,0,0,0-.506,1.725A1.745,1.745,0,0,0,134,3.7c.374.36.93.476,2.355.487h.97a10.006,10.006,0,0,1,2.133.074c.465.106.637.307.637.72a.981.981,0,0,1-.2.6,1.007,1.007,0,0,1-.7.275,14.36,14.36,0,0,1-2.092.127,4.058,4.058,0,0,1-1.759-.212c-.192-.116-.273-.36-.273-.815V4.889" transform="translate(-24.029)" fill="#fff"/>
  <path id="Club" d="M64.1,161.99a5.013,5.013,0,0,1-.212,1.976c-.307.7-.944,1.037-2.17,1.124-.484.049-1.427.062-3,.062-2.265,0-3-.111-3.633-.543-.778-.519-1-1.383-1-3.828,0-2.173.236-2.951,1.061-3.445.708-.432,1.463-.543,3.668-.543,2.937,0,3.574.062,4.246.407.637.333.932,1.062.932,2.272v.272H61.7c-.047-.9-.224-.975-2.3-.975-1.958,0-2.312.049-2.607.321s-.342.6-.342,1.939c0,1.976.177,2.124,2.477,2.124,1.781,0,2.04-.012,2.371-.16s.472-.408.472-1Zm6.6-5.136h2.394v6.2h5.414v2.037H70.7v-8.236m16.346,0v4.074a6.311,6.311,0,0,0,.035,1.148c.118.926.507,1.111,2.3,1.111s2.288-.05,2.583-.284c.236-.185.354-.543.366-1.173.012-.185.012-.185.012-1.1v-3.778h2.394v4.321c.024,2.038-.142,2.643-.837,3.3a3.517,3.517,0,0,1-2.3.667c-.366.012-.578.012-1.05.012l-.9.012a12.156,12.156,0,0,1-3.232-.2c-1.427-.457-1.8-1.235-1.769-3.679v-4.433h2.394m14.387,0h7.1a3.856,3.856,0,0,1,1.816.3c.637.346.9.9.9,1.951,0,1.074-.354,1.63-1.1,1.778,1.062.21,1.415.691,1.415,1.889a2.079,2.079,0,0,1-.908,2.037,3.809,3.809,0,0,1-1.793.284h-7.431v-8.236m6.357,3.284a1.712,1.712,0,0,0,.779-.1.687.687,0,0,0,.307-.617.675.675,0,0,0-.413-.679,2.183,2.183,0,0,0-.731-.062h-3.963v1.457h4.022m.26,3.124a2.087,2.087,0,0,0,.731-.062.663.663,0,0,0,.377-.679.68.68,0,0,0-.4-.7,2.124,2.124,0,0,0-.767-.062h-4.222v1.506h4.282M49.72,161.481v-1.315l-26.584.657,26.584.658m92.789-.658-26.584-.657v1.315l26.584-.658" transform="translate(-22.867 -124.264)" fill="#fff"/>
  <path id="Club-2" data-name="Club" d="M170.686,68.742a2.233,2.233,0,0,1,1.627.709,2.478,2.478,0,0,1,.679,1.719,2.513,2.513,0,0,1-.54,1.561l-.578.725.9-.224.019,0,.036-.009.033-.017a2.186,2.186,0,0,1,1.014-.248,2.233,2.233,0,0,1,1.628.71,2.476,2.476,0,0,1,.679,1.719,2.377,2.377,0,0,1-2.3,2.428,2.3,2.3,0,0,1-2.05-1.3.609.609,0,0,0-.548-.342.388.388,0,1,1-.749.187.629.629,0,0,0-.449-.187h0a.609.609,0,0,0-.546.346,2.29,2.29,0,0,1-2.04,1.294,2.38,2.38,0,0,1-2.307-2.428,2.477,2.477,0,0,1,.679-1.719,2.234,2.234,0,0,1,1.629-.71,2.185,2.185,0,0,1,1.013.248l.033.017.036.009.019,0,.9.221-.577-.722a2.51,2.51,0,0,1-.54-1.557v-.013a2.375,2.375,0,0,1,2.306-2.419Zm0,8.5a3.486,3.486,0,0,0,.1.507,3.568,3.568,0,0,0,1.036,1.651h-2.28a3.565,3.565,0,0,0,1.036-1.651,3.414,3.414,0,0,0,.1-.507" transform="translate(-135.445 -54.368)"/>
</svg>
